<mxfile host="Electron" modified="2022-12-11T15:30:27.844Z" agent="5.0 (Macintosh; Intel Mac OS X 10_15_7) AppleWebKit/537.36 (KHTML, like Gecko) draw.io/20.6.1 Chrome/106.0.5249.199 Electron/21.3.3 Safari/537.36" etag="O_r14MRr0RU7ep9r8Qi9" compressed="false" version="20.6.1" type="device">
  <diagram name="Страница-1" id="Страница-1">
    <mxGraphModel dx="860" dy="555" grid="1" gridSize="10" guides="1" tooltips="1" connect="1" arrows="1" fold="1" page="1" pageScale="1" pageWidth="2336" pageHeight="1654" background="none" math="0" shadow="0">
      <root>
        <mxCell id="0" />
        <mxCell id="9BwAd8rwPp-84XcoNZzX-183" value="Устройства" parent="0" />
        <mxCell id="0MDFwOMSwQNmZCORZw81-256" value="" style="shape=mxgraph.cisco.computers_and_peripherals.laptop;sketch=0;html=1;pointerEvents=1;dashed=0;fillColor=#000000;strokeColor=#E6E6E6;strokeWidth=2;verticalLabelPosition=bottom;verticalAlign=top;align=center;outlineConnect=0;fillStyle=auto;fontSize=23;aspect=fixed;fontFamily=Arial;container=0;fontStyle=2" parent="9BwAd8rwPp-84XcoNZzX-183" vertex="1">
          <mxGeometry x="280" y="333.0000000000001" width="78.74" height="54.22" as="geometry" />
        </mxCell>
        <mxCell id="0MDFwOMSwQNmZCORZw81-258" value="" style="shape=mxgraph.cisco.misc.access_point;html=1;pointerEvents=1;dashed=0;fillColor=#000000;strokeColor=#E6E6E6;strokeWidth=2;verticalLabelPosition=bottom;verticalAlign=top;align=center;outlineConnect=0;fillStyle=auto;fontSize=23;aspect=fixed;fontFamily=Arial;container=0;fontStyle=2" parent="9BwAd8rwPp-84XcoNZzX-183" vertex="1">
          <mxGeometry x="440" y="262.41999999999996" width="78.74" height="36.26" as="geometry" />
        </mxCell>
        <mxCell id="0MDFwOMSwQNmZCORZw81-257" value="" style="shape=mxgraph.cisco.computers_and_peripherals.laptop;sketch=0;html=1;pointerEvents=1;dashed=0;fillColor=#000000;strokeColor=#E6E6E6;strokeWidth=2;verticalLabelPosition=bottom;verticalAlign=top;align=center;outlineConnect=0;fillStyle=auto;fontSize=23;aspect=fixed;fontFamily=Arial;container=0;fontStyle=2" parent="9BwAd8rwPp-84XcoNZzX-183" vertex="1">
          <mxGeometry x="280" y="172.9999999999999" width="78.74" height="54.17" as="geometry" />
        </mxCell>
        <mxCell id="0MDFwOMSwQNmZCORZw81-246" value="" style="shape=mxgraph.cisco.switches.workgroup_switch;sketch=0;html=1;pointerEvents=1;dashed=0;fillColor=#000000;strokeColor=#E6E6E6;strokeWidth=2;verticalLabelPosition=bottom;verticalAlign=top;align=center;outlineConnect=0;fontSize=23;fillStyle=auto;aspect=fixed;fontFamily=Arial;fontStyle=2" parent="9BwAd8rwPp-84XcoNZzX-183" vertex="1">
          <mxGeometry x="840" y="257.8735" width="78.74" height="44.44" as="geometry" />
        </mxCell>
        <mxCell id="0MDFwOMSwQNmZCORZw81-247" value="" style="shape=mxgraph.cisco.computers_and_peripherals.pc;sketch=0;html=1;pointerEvents=1;dashed=0;fillColor=#000000;strokeColor=#E6E6E6;strokeWidth=2;verticalLabelPosition=bottom;verticalAlign=top;align=center;outlineConnect=0;fontSize=23;fillStyle=auto;aspect=fixed;fontFamily=Arial;fontStyle=2" parent="9BwAd8rwPp-84XcoNZzX-183" vertex="1">
          <mxGeometry x="1000" y="168" width="78.74" height="71.8" as="geometry" />
        </mxCell>
        <mxCell id="0MDFwOMSwQNmZCORZw81-250" value="" style="shape=mxgraph.cisco.computers_and_peripherals.printer;sketch=0;html=1;pointerEvents=1;dashed=0;fillColor=#000000;strokeColor=#E6E6E6;strokeWidth=2;verticalLabelPosition=bottom;verticalAlign=top;align=center;outlineConnect=0;fontSize=23;fillStyle=auto;aspect=fixed;fontFamily=Arial;fontStyle=2" parent="9BwAd8rwPp-84XcoNZzX-183" vertex="1">
          <mxGeometry x="840" y="345.0000000000001" width="78.74" height="29.88" as="geometry" />
        </mxCell>
        <mxCell id="0MDFwOMSwQNmZCORZw81-251" value="" style="shape=mxgraph.cisco.computers_and_peripherals.printer;sketch=0;html=1;pointerEvents=1;dashed=0;fillColor=#000000;strokeColor=#E6E6E6;strokeWidth=2;verticalLabelPosition=bottom;verticalAlign=top;align=center;outlineConnect=0;fontSize=23;fillStyle=auto;aspect=fixed;fontFamily=Arial;fontStyle=2" parent="9BwAd8rwPp-84XcoNZzX-183" vertex="1">
          <mxGeometry x="1320" y="345.0000000000001" width="78.74" height="29.88" as="geometry" />
        </mxCell>
        <mxCell id="0MDFwOMSwQNmZCORZw81-248" value="" style="shape=mxgraph.cisco.computers_and_peripherals.pc;sketch=0;html=1;pointerEvents=1;dashed=0;fillColor=#000000;strokeColor=#E6E6E6;strokeWidth=2;verticalLabelPosition=bottom;verticalAlign=top;align=center;outlineConnect=0;fontSize=23;fillStyle=auto;aspect=fixed;fontFamily=Arial;fontStyle=2" parent="9BwAd8rwPp-84XcoNZzX-183" vertex="1">
          <mxGeometry x="1160" y="168" width="78.74" height="71.8" as="geometry" />
        </mxCell>
        <mxCell id="0MDFwOMSwQNmZCORZw81-255" value="" style="shape=mxgraph.cisco.misc.access_point;html=1;pointerEvents=1;dashed=0;fillColor=#000000;strokeColor=#E6E6E6;strokeWidth=2;verticalLabelPosition=bottom;verticalAlign=top;align=center;outlineConnect=0;fillStyle=auto;fontSize=23;aspect=fixed;fontFamily=Arial;fontStyle=2" parent="9BwAd8rwPp-84XcoNZzX-183" vertex="1">
          <mxGeometry x="1320" y="262.41999999999996" width="78.74" height="36.26" as="geometry" />
        </mxCell>
        <mxCell id="0MDFwOMSwQNmZCORZw81-254" value="" style="shape=mxgraph.cisco.computers_and_peripherals.laptop;sketch=0;html=1;pointerEvents=1;dashed=0;fillColor=#000000;strokeColor=#E6E6E6;strokeWidth=2;verticalLabelPosition=bottom;verticalAlign=top;align=center;outlineConnect=0;fillStyle=auto;fontSize=23;aspect=fixed;fontFamily=Arial;fontStyle=2" parent="9BwAd8rwPp-84XcoNZzX-183" vertex="1">
          <mxGeometry x="1480" y="172.9999999999999" width="78.74" height="54.22" as="geometry" />
        </mxCell>
        <mxCell id="0MDFwOMSwQNmZCORZw81-249" value="" style="shape=mxgraph.cisco.computers_and_peripherals.laptop;sketch=0;html=1;pointerEvents=1;dashed=0;fillColor=#000000;strokeColor=#E6E6E6;strokeWidth=2;verticalLabelPosition=bottom;verticalAlign=top;align=center;outlineConnect=0;fillStyle=auto;fontSize=23;aspect=fixed;fontFamily=Arial;fontStyle=2" parent="9BwAd8rwPp-84XcoNZzX-183" vertex="1">
          <mxGeometry x="1480" y="333.0000000000001" width="78.74" height="54.22" as="geometry" />
        </mxCell>
        <mxCell id="0MDFwOMSwQNmZCORZw81-290" value="" style="shape=mxgraph.cisco.servers.file_server;sketch=0;html=1;pointerEvents=1;dashed=0;fillColor=#000000;strokeColor=#E6E6E6;strokeWidth=2;verticalLabelPosition=bottom;verticalAlign=top;align=center;outlineConnect=0;fillStyle=auto;fontSize=23;fontFamily=Arial;fontStyle=2" parent="9BwAd8rwPp-84XcoNZzX-183" vertex="1">
          <mxGeometry x="559" y="1520.36" width="78.74" height="80" as="geometry" />
        </mxCell>
        <mxCell id="0MDFwOMSwQNmZCORZw81-252" value="" style="shape=mxgraph.cisco.routers.router;sketch=0;html=1;pointerEvents=1;dashed=0;fillColor=#000000;strokeColor=#E6E6E6;strokeWidth=2;verticalLabelPosition=bottom;verticalAlign=top;align=center;outlineConnect=0;fontSize=23;fillStyle=auto;aspect=fixed;fontFamily=Arial;fontStyle=2" parent="9BwAd8rwPp-84XcoNZzX-183" vertex="1">
          <mxGeometry x="560" y="1445" width="78.74" height="54.36" as="geometry" />
        </mxCell>
        <mxCell id="0MDFwOMSwQNmZCORZw81-282" value="" style="shape=mxgraph.cisco.switches.workgroup_switch;sketch=0;html=1;pointerEvents=1;dashed=0;fillColor=#000000;strokeColor=#E6E6E6;strokeWidth=2;verticalLabelPosition=bottom;verticalAlign=top;align=center;outlineConnect=0;fontSize=23;fillStyle=auto;aspect=fixed;fontFamily=Arial;fontStyle=2" parent="9BwAd8rwPp-84XcoNZzX-183" vertex="1">
          <mxGeometry x="400" y="1455" width="78.74" height="44.44" as="geometry" />
        </mxCell>
        <mxCell id="0MDFwOMSwQNmZCORZw81-284" value="" style="shape=mxgraph.cisco.computers_and_peripherals.pc;sketch=0;html=1;pointerEvents=1;dashed=0;fillColor=#000000;strokeColor=#E6E6E6;strokeWidth=2;verticalLabelPosition=bottom;verticalAlign=top;align=center;outlineConnect=0;fontSize=23;fillStyle=auto;aspect=fixed;fontFamily=Arial;fontStyle=2" parent="9BwAd8rwPp-84XcoNZzX-183" vertex="1">
          <mxGeometry x="400" y="1527.64" width="78.74" height="71.8" as="geometry" />
        </mxCell>
        <mxCell id="0MDFwOMSwQNmZCORZw81-283" value="" style="shape=mxgraph.cisco.computers_and_peripherals.laptop;sketch=0;html=1;pointerEvents=1;dashed=0;fillColor=#000000;strokeColor=#E6E6E6;strokeWidth=2;verticalLabelPosition=bottom;verticalAlign=top;align=center;outlineConnect=0;fillStyle=auto;fontSize=23;aspect=fixed;fontFamily=Arial;container=0;fontStyle=2" parent="9BwAd8rwPp-84XcoNZzX-183" vertex="1">
          <mxGeometry x="240" y="1546" width="78.74" height="54.22" as="geometry" />
        </mxCell>
        <mxCell id="0MDFwOMSwQNmZCORZw81-281" value="" style="shape=mxgraph.cisco.misc.access_point;html=1;pointerEvents=1;dashed=0;fillColor=#000000;strokeColor=#E6E6E6;strokeWidth=2;verticalLabelPosition=bottom;verticalAlign=top;align=center;outlineConnect=0;fillStyle=auto;fontSize=23;aspect=fixed;fontFamily=Arial;container=0;fontStyle=2" parent="9BwAd8rwPp-84XcoNZzX-183" vertex="1">
          <mxGeometry x="240" y="1464" width="78.74" height="36.26" as="geometry" />
        </mxCell>
        <mxCell id="0MDFwOMSwQNmZCORZw81-253" value="" style="shape=mxgraph.cisco.modems_and_phones.modem;sketch=0;html=1;pointerEvents=1;dashed=0;fillColor=#000000;strokeColor=#E6E6E6;strokeWidth=2;verticalLabelPosition=bottom;verticalAlign=top;align=center;outlineConnect=0;fontSize=23;fillStyle=auto;aspect=fixed;fontFamily=Arial;fontStyle=2" parent="9BwAd8rwPp-84XcoNZzX-183" vertex="1">
          <mxGeometry x="80" y="1472" width="78.74" height="28.04" as="geometry" />
        </mxCell>
        <mxCell id="0MDFwOMSwQNmZCORZw81-289" value="" style="shape=mxgraph.cisco.computers_and_peripherals.printer;sketch=0;html=1;pointerEvents=1;dashed=0;fillColor=#000000;strokeColor=#E6E6E6;strokeWidth=2;verticalLabelPosition=bottom;verticalAlign=top;align=center;outlineConnect=0;fontSize=23;fillStyle=auto;aspect=fixed;fontFamily=Arial;fontStyle=2" parent="9BwAd8rwPp-84XcoNZzX-183" vertex="1">
          <mxGeometry x="80" y="1570" width="78.74" height="29.88" as="geometry" />
        </mxCell>
        <mxCell id="0MDFwOMSwQNmZCORZw81-285" value="" style="shape=mxgraph.cisco.modems_and_phones.modem;sketch=0;html=1;pointerEvents=1;dashed=0;fillColor=#000000;strokeColor=#E6E6E6;strokeWidth=2;verticalLabelPosition=bottom;verticalAlign=top;align=center;outlineConnect=0;fontSize=23;fillStyle=auto;aspect=fixed;fontFamily=Arial;fontStyle=2" parent="9BwAd8rwPp-84XcoNZzX-183" vertex="1">
          <mxGeometry x="1960" y="1115.9999999999998" width="78.74" height="28.04" as="geometry" />
        </mxCell>
        <mxCell id="0MDFwOMSwQNmZCORZw81-286" value="" style="shape=mxgraph.cisco.routers.router;sketch=0;html=1;pointerEvents=1;dashed=0;fillColor=#000000;strokeColor=#E6E6E6;strokeWidth=2;verticalLabelPosition=bottom;verticalAlign=top;align=center;outlineConnect=0;fontSize=23;fillStyle=auto;aspect=fixed;fontFamily=Arial;fontStyle=2" parent="9BwAd8rwPp-84XcoNZzX-183" vertex="1">
          <mxGeometry x="1800.63" y="1103" width="78.74" height="54.36" as="geometry" />
        </mxCell>
        <mxCell id="Ox5Po6O9_LgIOVLj1sJk-9" value="" style="shape=mxgraph.cisco.servers.file_server;sketch=0;html=1;pointerEvents=1;dashed=0;fillColor=#000000;strokeColor=#E6E6E6;strokeWidth=2;verticalLabelPosition=bottom;verticalAlign=top;align=center;outlineConnect=0;fillStyle=auto;fontSize=23;fontFamily=Arial;fontStyle=2" parent="9BwAd8rwPp-84XcoNZzX-183" vertex="1">
          <mxGeometry x="1640" y="1090" width="78.74" height="80" as="geometry" />
        </mxCell>
        <mxCell id="Ln7XQUvNqYD8yCebmWpK-15" style="edgeStyle=orthogonalEdgeStyle;rounded=0;orthogonalLoop=1;jettySize=auto;html=1;exitX=0;exitY=0;exitDx=0;exitDy=0;endArrow=none;endFill=0;fontFamily=Arial;align=center;fontStyle=2" parent="9BwAd8rwPp-84XcoNZzX-183" source="0MDFwOMSwQNmZCORZw81-192" target="Ln7XQUvNqYD8yCebmWpK-17" edge="1">
          <mxGeometry relative="1" as="geometry">
            <mxPoint x="1040" y="320" as="targetPoint" />
            <Array as="points">
              <mxPoint x="1040" y="310" />
              <mxPoint x="1040" y="310" />
            </Array>
          </mxGeometry>
        </mxCell>
        <mxCell id="Ln7XQUvNqYD8yCebmWpK-19" value="" style="edgeStyle=orthogonalEdgeStyle;rounded=0;orthogonalLoop=1;jettySize=auto;html=1;endArrow=none;endFill=0;fontFamily=Arial;align=center;fontStyle=2;dashed=1;dashPattern=1 4;" parent="9BwAd8rwPp-84XcoNZzX-183" edge="1">
          <mxGeometry relative="1" as="geometry">
            <mxPoint x="910" y="360" as="targetPoint" />
            <mxPoint x="1010" y="360" as="sourcePoint" />
          </mxGeometry>
        </mxCell>
        <mxCell id="Ln7XQUvNqYD8yCebmWpK-17" value="" style="shape=mxgraph.cisco.computers_and_peripherals.pc;sketch=0;html=1;pointerEvents=1;dashed=0;fillColor=#000000;strokeColor=#E6E6E6;strokeWidth=2;verticalLabelPosition=bottom;verticalAlign=top;align=center;outlineConnect=0;fontSize=23;fillStyle=auto;aspect=fixed;fontFamily=Arial;fontStyle=2" parent="9BwAd8rwPp-84XcoNZzX-183" vertex="1">
          <mxGeometry x="1000" y="328" width="78.74" height="71.8" as="geometry" />
        </mxCell>
        <mxCell id="Ln7XQUvNqYD8yCebmWpK-25" style="edgeStyle=orthogonalEdgeStyle;rounded=0;orthogonalLoop=1;jettySize=auto;html=1;exitX=0;exitY=0;exitDx=0;exitDy=0;endArrow=none;endFill=0;fontFamily=Arial;align=center;fontStyle=2" parent="9BwAd8rwPp-84XcoNZzX-183" target="Ln7XQUvNqYD8yCebmWpK-27" edge="1">
          <mxGeometry relative="1" as="geometry">
            <mxPoint x="1200" y="320" as="targetPoint" />
            <mxPoint x="1200" y="240" as="sourcePoint" />
            <Array as="points">
              <mxPoint x="1200" y="310" />
              <mxPoint x="1200" y="310" />
            </Array>
          </mxGeometry>
        </mxCell>
        <mxCell id="Ln7XQUvNqYD8yCebmWpK-27" value="" style="shape=mxgraph.cisco.computers_and_peripherals.pc;sketch=0;html=1;pointerEvents=1;dashed=0;fillColor=#000000;strokeColor=#E6E6E6;strokeWidth=2;verticalLabelPosition=bottom;verticalAlign=top;align=center;outlineConnect=0;fontSize=23;fillStyle=auto;aspect=fixed;fontFamily=Arial;fontStyle=2" parent="9BwAd8rwPp-84XcoNZzX-183" vertex="1">
          <mxGeometry x="1160" y="328" width="78.74" height="71.8" as="geometry" />
        </mxCell>
        <mxCell id="Ln7XQUvNqYD8yCebmWpK-29" value="" style="edgeStyle=orthogonalEdgeStyle;rounded=0;orthogonalLoop=1;jettySize=auto;html=1;endArrow=none;endFill=0;fontFamily=Arial;align=center;fontStyle=2;dashed=1;dashPattern=1 4;" parent="9BwAd8rwPp-84XcoNZzX-183" edge="1">
          <mxGeometry relative="1" as="geometry">
            <mxPoint x="1227" y="360" as="targetPoint" />
            <mxPoint x="1320" y="360" as="sourcePoint" />
          </mxGeometry>
        </mxCell>
        <mxCell id="Ln7XQUvNqYD8yCebmWpK-34" value="" style="shape=mxgraph.cisco.computers_and_peripherals.laptop;sketch=0;html=1;pointerEvents=1;dashed=0;fillColor=#000000;strokeColor=#E6E6E6;strokeWidth=2;verticalLabelPosition=bottom;verticalAlign=top;align=center;outlineConnect=0;fillStyle=auto;fontSize=23;aspect=fixed;fontFamily=Arial;container=0;fontStyle=2" parent="9BwAd8rwPp-84XcoNZzX-183" vertex="1">
          <mxGeometry x="280" y="723.0000000000001" width="78.74" height="54.22" as="geometry" />
        </mxCell>
        <mxCell id="Ln7XQUvNqYD8yCebmWpK-35" value="" style="shape=mxgraph.cisco.misc.access_point;html=1;pointerEvents=1;dashed=0;fillColor=#000000;strokeColor=#E6E6E6;strokeWidth=2;verticalLabelPosition=bottom;verticalAlign=top;align=center;outlineConnect=0;fillStyle=auto;fontSize=23;aspect=fixed;fontFamily=Arial;container=0;fontStyle=2" parent="9BwAd8rwPp-84XcoNZzX-183" vertex="1">
          <mxGeometry x="440" y="652.42" width="78.74" height="36.26" as="geometry" />
        </mxCell>
        <mxCell id="Ln7XQUvNqYD8yCebmWpK-36" value="" style="shape=mxgraph.cisco.computers_and_peripherals.laptop;sketch=0;html=1;pointerEvents=1;dashed=0;fillColor=#000000;strokeColor=#E6E6E6;strokeWidth=2;verticalLabelPosition=bottom;verticalAlign=top;align=center;outlineConnect=0;fillStyle=auto;fontSize=23;aspect=fixed;fontFamily=Arial;container=0;fontStyle=2" parent="9BwAd8rwPp-84XcoNZzX-183" vertex="1">
          <mxGeometry x="280" y="562.9999999999999" width="78.74" height="54.17" as="geometry" />
        </mxCell>
        <mxCell id="Ln7XQUvNqYD8yCebmWpK-49" value="" style="shape=mxgraph.cisco.switches.workgroup_switch;sketch=0;html=1;pointerEvents=1;dashed=0;fillColor=#000000;strokeColor=#E6E6E6;strokeWidth=2;verticalLabelPosition=bottom;verticalAlign=top;align=center;outlineConnect=0;fontSize=23;fillStyle=auto;aspect=fixed;fontFamily=Arial;fontStyle=2" parent="9BwAd8rwPp-84XcoNZzX-183" vertex="1">
          <mxGeometry x="840" y="647.8734999999999" width="78.74" height="44.44" as="geometry" />
        </mxCell>
        <mxCell id="Ln7XQUvNqYD8yCebmWpK-50" value="" style="shape=mxgraph.cisco.computers_and_peripherals.pc;sketch=0;html=1;pointerEvents=1;dashed=0;fillColor=#000000;strokeColor=#E6E6E6;strokeWidth=2;verticalLabelPosition=bottom;verticalAlign=top;align=center;outlineConnect=0;fontSize=23;fillStyle=auto;aspect=fixed;fontFamily=Arial;fontStyle=2" parent="9BwAd8rwPp-84XcoNZzX-183" vertex="1">
          <mxGeometry x="1000" y="558" width="78.74" height="71.8" as="geometry" />
        </mxCell>
        <mxCell id="Ln7XQUvNqYD8yCebmWpK-51" value="" style="shape=mxgraph.cisco.computers_and_peripherals.printer;sketch=0;html=1;pointerEvents=1;dashed=0;fillColor=#000000;strokeColor=#E6E6E6;strokeWidth=2;verticalLabelPosition=bottom;verticalAlign=top;align=center;outlineConnect=0;fontSize=23;fillStyle=auto;aspect=fixed;fontFamily=Arial;fontStyle=2" parent="9BwAd8rwPp-84XcoNZzX-183" vertex="1">
          <mxGeometry x="840" y="735.0000000000001" width="78.74" height="29.88" as="geometry" />
        </mxCell>
        <mxCell id="Ln7XQUvNqYD8yCebmWpK-52" value="" style="shape=mxgraph.cisco.computers_and_peripherals.printer;sketch=0;html=1;pointerEvents=1;dashed=0;fillColor=#000000;strokeColor=#E6E6E6;strokeWidth=2;verticalLabelPosition=bottom;verticalAlign=top;align=center;outlineConnect=0;fontSize=23;fillStyle=auto;aspect=fixed;fontFamily=Arial;fontStyle=2" parent="9BwAd8rwPp-84XcoNZzX-183" vertex="1">
          <mxGeometry x="1320" y="735.0000000000001" width="78.74" height="29.88" as="geometry" />
        </mxCell>
        <mxCell id="Ln7XQUvNqYD8yCebmWpK-53" value="" style="shape=mxgraph.cisco.computers_and_peripherals.pc;sketch=0;html=1;pointerEvents=1;dashed=0;fillColor=#000000;strokeColor=#E6E6E6;strokeWidth=2;verticalLabelPosition=bottom;verticalAlign=top;align=center;outlineConnect=0;fontSize=23;fillStyle=auto;aspect=fixed;fontFamily=Arial;fontStyle=2" parent="9BwAd8rwPp-84XcoNZzX-183" vertex="1">
          <mxGeometry x="1160" y="558" width="78.74" height="71.8" as="geometry" />
        </mxCell>
        <mxCell id="Ln7XQUvNqYD8yCebmWpK-54" value="" style="shape=mxgraph.cisco.misc.access_point;html=1;pointerEvents=1;dashed=0;fillColor=#000000;strokeColor=#E6E6E6;strokeWidth=2;verticalLabelPosition=bottom;verticalAlign=top;align=center;outlineConnect=0;fillStyle=auto;fontSize=23;aspect=fixed;fontFamily=Arial;fontStyle=2" parent="9BwAd8rwPp-84XcoNZzX-183" vertex="1">
          <mxGeometry x="1320" y="652.42" width="78.74" height="36.26" as="geometry" />
        </mxCell>
        <mxCell id="Ln7XQUvNqYD8yCebmWpK-55" value="" style="shape=mxgraph.cisco.computers_and_peripherals.laptop;sketch=0;html=1;pointerEvents=1;dashed=0;fillColor=#000000;strokeColor=#E6E6E6;strokeWidth=2;verticalLabelPosition=bottom;verticalAlign=top;align=center;outlineConnect=0;fillStyle=auto;fontSize=23;aspect=fixed;fontFamily=Arial;fontStyle=2" parent="9BwAd8rwPp-84XcoNZzX-183" vertex="1">
          <mxGeometry x="1480" y="562.9999999999999" width="78.74" height="54.22" as="geometry" />
        </mxCell>
        <mxCell id="Ln7XQUvNqYD8yCebmWpK-56" value="" style="shape=mxgraph.cisco.computers_and_peripherals.laptop;sketch=0;html=1;pointerEvents=1;dashed=0;fillColor=#000000;strokeColor=#E6E6E6;strokeWidth=2;verticalLabelPosition=bottom;verticalAlign=top;align=center;outlineConnect=0;fillStyle=auto;fontSize=23;aspect=fixed;fontFamily=Arial;fontStyle=2" parent="9BwAd8rwPp-84XcoNZzX-183" vertex="1">
          <mxGeometry x="1480" y="723.0000000000001" width="78.74" height="54.22" as="geometry" />
        </mxCell>
        <mxCell id="Ln7XQUvNqYD8yCebmWpK-57" style="edgeStyle=orthogonalEdgeStyle;rounded=0;orthogonalLoop=1;jettySize=auto;html=1;exitX=0;exitY=0;exitDx=0;exitDy=0;endArrow=none;endFill=0;fontFamily=Arial;align=center;fontStyle=2" parent="9BwAd8rwPp-84XcoNZzX-183" source="Ln7XQUvNqYD8yCebmWpK-63" target="Ln7XQUvNqYD8yCebmWpK-59" edge="1">
          <mxGeometry relative="1" as="geometry">
            <mxPoint x="1040" y="710" as="targetPoint" />
            <Array as="points">
              <mxPoint x="1040" y="700" />
              <mxPoint x="1040" y="700" />
            </Array>
          </mxGeometry>
        </mxCell>
        <mxCell id="Ln7XQUvNqYD8yCebmWpK-58" value="" style="edgeStyle=orthogonalEdgeStyle;rounded=0;orthogonalLoop=1;jettySize=auto;html=1;endArrow=none;endFill=0;fontFamily=Arial;align=center;fontStyle=2;dashed=1;dashPattern=1 4;" parent="9BwAd8rwPp-84XcoNZzX-183" edge="1">
          <mxGeometry relative="1" as="geometry">
            <mxPoint x="910" y="750" as="targetPoint" />
            <mxPoint x="1010" y="750" as="sourcePoint" />
          </mxGeometry>
        </mxCell>
        <mxCell id="Ln7XQUvNqYD8yCebmWpK-59" value="" style="shape=mxgraph.cisco.computers_and_peripherals.pc;sketch=0;html=1;pointerEvents=1;dashed=0;fillColor=#000000;strokeColor=#E6E6E6;strokeWidth=2;verticalLabelPosition=bottom;verticalAlign=top;align=center;outlineConnect=0;fontSize=23;fillStyle=auto;aspect=fixed;fontFamily=Arial;fontStyle=2" parent="9BwAd8rwPp-84XcoNZzX-183" vertex="1">
          <mxGeometry x="1000" y="718" width="78.74" height="71.8" as="geometry" />
        </mxCell>
        <mxCell id="Ln7XQUvNqYD8yCebmWpK-60" style="edgeStyle=orthogonalEdgeStyle;rounded=0;orthogonalLoop=1;jettySize=auto;html=1;exitX=0;exitY=0;exitDx=0;exitDy=0;endArrow=none;endFill=0;fontFamily=Arial;align=center;fontStyle=2" parent="9BwAd8rwPp-84XcoNZzX-183" target="Ln7XQUvNqYD8yCebmWpK-61" edge="1">
          <mxGeometry relative="1" as="geometry">
            <mxPoint x="1200" y="710" as="targetPoint" />
            <mxPoint x="1200" y="630" as="sourcePoint" />
            <Array as="points">
              <mxPoint x="1200" y="700" />
              <mxPoint x="1200" y="700" />
            </Array>
          </mxGeometry>
        </mxCell>
        <mxCell id="Ln7XQUvNqYD8yCebmWpK-61" value="" style="shape=mxgraph.cisco.computers_and_peripherals.pc;sketch=0;html=1;pointerEvents=1;dashed=0;fillColor=#000000;strokeColor=#E6E6E6;strokeWidth=2;verticalLabelPosition=bottom;verticalAlign=top;align=center;outlineConnect=0;fontSize=23;fillStyle=auto;aspect=fixed;fontFamily=Arial;fontStyle=2" parent="9BwAd8rwPp-84XcoNZzX-183" vertex="1">
          <mxGeometry x="1160" y="718" width="78.74" height="71.8" as="geometry" />
        </mxCell>
        <mxCell id="Ln7XQUvNqYD8yCebmWpK-62" value="" style="edgeStyle=orthogonalEdgeStyle;rounded=0;orthogonalLoop=1;jettySize=auto;html=1;endArrow=none;endFill=0;fontFamily=Arial;align=center;fontStyle=2;dashed=1;dashPattern=1 4;" parent="9BwAd8rwPp-84XcoNZzX-183" edge="1">
          <mxGeometry relative="1" as="geometry">
            <mxPoint x="1227" y="750" as="targetPoint" />
            <mxPoint x="1320" y="750" as="sourcePoint" />
          </mxGeometry>
        </mxCell>
        <mxCell id="Ln7XQUvNqYD8yCebmWpK-102" value="" style="shape=mxgraph.cisco.switches.workgroup_switch;sketch=0;html=1;pointerEvents=1;dashed=0;fillColor=#000000;strokeColor=#E6E6E6;strokeWidth=2;verticalLabelPosition=bottom;verticalAlign=top;align=center;outlineConnect=0;fontSize=23;fillStyle=auto;aspect=fixed;fontFamily=Arial;fontStyle=2" parent="9BwAd8rwPp-84XcoNZzX-183" vertex="1">
          <mxGeometry x="840" y="1037.8735" width="78.74" height="44.44" as="geometry" />
        </mxCell>
        <mxCell id="Ln7XQUvNqYD8yCebmWpK-103" value="" style="shape=mxgraph.cisco.computers_and_peripherals.pc;sketch=0;html=1;pointerEvents=1;dashed=0;fillColor=#000000;strokeColor=#E6E6E6;strokeWidth=2;verticalLabelPosition=bottom;verticalAlign=top;align=center;outlineConnect=0;fontSize=23;fillStyle=auto;aspect=fixed;fontFamily=Arial;fontStyle=2" parent="9BwAd8rwPp-84XcoNZzX-183" vertex="1">
          <mxGeometry x="1000" y="948" width="78.74" height="71.8" as="geometry" />
        </mxCell>
        <mxCell id="Ln7XQUvNqYD8yCebmWpK-104" value="" style="shape=mxgraph.cisco.computers_and_peripherals.printer;sketch=0;html=1;pointerEvents=1;dashed=0;fillColor=#000000;strokeColor=#E6E6E6;strokeWidth=2;verticalLabelPosition=bottom;verticalAlign=top;align=center;outlineConnect=0;fontSize=23;fillStyle=auto;aspect=fixed;fontFamily=Arial;fontStyle=2" parent="9BwAd8rwPp-84XcoNZzX-183" vertex="1">
          <mxGeometry x="840" y="1125" width="78.74" height="29.88" as="geometry" />
        </mxCell>
        <mxCell id="Ln7XQUvNqYD8yCebmWpK-105" value="" style="shape=mxgraph.cisco.computers_and_peripherals.printer;sketch=0;html=1;pointerEvents=1;dashed=0;fillColor=#000000;strokeColor=#E6E6E6;strokeWidth=2;verticalLabelPosition=bottom;verticalAlign=top;align=center;outlineConnect=0;fontSize=23;fillStyle=auto;aspect=fixed;fontFamily=Arial;fontStyle=2" parent="9BwAd8rwPp-84XcoNZzX-183" vertex="1">
          <mxGeometry x="1320" y="1125" width="78.74" height="29.88" as="geometry" />
        </mxCell>
        <mxCell id="Ln7XQUvNqYD8yCebmWpK-106" value="" style="shape=mxgraph.cisco.computers_and_peripherals.pc;sketch=0;html=1;pointerEvents=1;dashed=0;fillColor=#000000;strokeColor=#E6E6E6;strokeWidth=2;verticalLabelPosition=bottom;verticalAlign=top;align=center;outlineConnect=0;fontSize=23;fillStyle=auto;aspect=fixed;fontFamily=Arial;fontStyle=2" parent="9BwAd8rwPp-84XcoNZzX-183" vertex="1">
          <mxGeometry x="1160" y="948" width="78.74" height="71.8" as="geometry" />
        </mxCell>
        <mxCell id="Ln7XQUvNqYD8yCebmWpK-107" value="" style="shape=mxgraph.cisco.misc.access_point;html=1;pointerEvents=1;dashed=0;fillColor=#000000;strokeColor=#E6E6E6;strokeWidth=2;verticalLabelPosition=bottom;verticalAlign=top;align=center;outlineConnect=0;fillStyle=auto;fontSize=23;aspect=fixed;fontFamily=Arial;fontStyle=2" parent="9BwAd8rwPp-84XcoNZzX-183" vertex="1">
          <mxGeometry x="1320" y="1042.42" width="78.74" height="36.26" as="geometry" />
        </mxCell>
        <mxCell id="Ln7XQUvNqYD8yCebmWpK-108" value="" style="shape=mxgraph.cisco.computers_and_peripherals.laptop;sketch=0;html=1;pointerEvents=1;dashed=0;fillColor=#000000;strokeColor=#E6E6E6;strokeWidth=2;verticalLabelPosition=bottom;verticalAlign=top;align=center;outlineConnect=0;fillStyle=auto;fontSize=23;aspect=fixed;fontFamily=Arial;fontStyle=2" parent="9BwAd8rwPp-84XcoNZzX-183" vertex="1">
          <mxGeometry x="1480" y="952.9999999999999" width="78.74" height="54.22" as="geometry" />
        </mxCell>
        <mxCell id="Ln7XQUvNqYD8yCebmWpK-109" value="" style="shape=mxgraph.cisco.computers_and_peripherals.laptop;sketch=0;html=1;pointerEvents=1;dashed=0;fillColor=#000000;strokeColor=#E6E6E6;strokeWidth=2;verticalLabelPosition=bottom;verticalAlign=top;align=center;outlineConnect=0;fillStyle=auto;fontSize=23;aspect=fixed;fontFamily=Arial;fontStyle=2" parent="9BwAd8rwPp-84XcoNZzX-183" vertex="1">
          <mxGeometry x="1480" y="1113" width="78.74" height="54.22" as="geometry" />
        </mxCell>
        <mxCell id="Ln7XQUvNqYD8yCebmWpK-110" style="edgeStyle=orthogonalEdgeStyle;rounded=0;orthogonalLoop=1;jettySize=auto;html=1;exitX=0;exitY=0;exitDx=0;exitDy=0;endArrow=none;endFill=0;fontFamily=Arial;align=center;fontStyle=2" parent="9BwAd8rwPp-84XcoNZzX-183" source="Ln7XQUvNqYD8yCebmWpK-116" target="Ln7XQUvNqYD8yCebmWpK-112" edge="1">
          <mxGeometry relative="1" as="geometry">
            <mxPoint x="1040" y="1100" as="targetPoint" />
            <Array as="points">
              <mxPoint x="1040" y="1090" />
              <mxPoint x="1040" y="1090" />
            </Array>
          </mxGeometry>
        </mxCell>
        <mxCell id="Ln7XQUvNqYD8yCebmWpK-111" value="" style="edgeStyle=orthogonalEdgeStyle;rounded=0;orthogonalLoop=1;jettySize=auto;html=1;endArrow=none;endFill=0;fontFamily=Arial;align=center;fontStyle=2;dashed=1;dashPattern=1 4;" parent="9BwAd8rwPp-84XcoNZzX-183" edge="1">
          <mxGeometry relative="1" as="geometry">
            <mxPoint x="910" y="1140" as="targetPoint" />
            <mxPoint x="1010" y="1140" as="sourcePoint" />
          </mxGeometry>
        </mxCell>
        <mxCell id="Ln7XQUvNqYD8yCebmWpK-112" value="" style="shape=mxgraph.cisco.computers_and_peripherals.pc;sketch=0;html=1;pointerEvents=1;dashed=0;fillColor=#000000;strokeColor=#E6E6E6;strokeWidth=2;verticalLabelPosition=bottom;verticalAlign=top;align=center;outlineConnect=0;fontSize=23;fillStyle=auto;aspect=fixed;fontFamily=Arial;fontStyle=2" parent="9BwAd8rwPp-84XcoNZzX-183" vertex="1">
          <mxGeometry x="1000" y="1108" width="78.74" height="71.8" as="geometry" />
        </mxCell>
        <mxCell id="Ln7XQUvNqYD8yCebmWpK-113" style="edgeStyle=orthogonalEdgeStyle;rounded=0;orthogonalLoop=1;jettySize=auto;html=1;exitX=0;exitY=0;exitDx=0;exitDy=0;endArrow=none;endFill=0;fontFamily=Arial;align=center;fontStyle=2" parent="9BwAd8rwPp-84XcoNZzX-183" target="Ln7XQUvNqYD8yCebmWpK-114" edge="1">
          <mxGeometry relative="1" as="geometry">
            <mxPoint x="1200" y="1100" as="targetPoint" />
            <mxPoint x="1200" y="1020" as="sourcePoint" />
            <Array as="points">
              <mxPoint x="1200" y="1090" />
              <mxPoint x="1200" y="1090" />
            </Array>
          </mxGeometry>
        </mxCell>
        <mxCell id="Ln7XQUvNqYD8yCebmWpK-114" value="" style="shape=mxgraph.cisco.computers_and_peripherals.pc;sketch=0;html=1;pointerEvents=1;dashed=0;fillColor=#000000;strokeColor=#E6E6E6;strokeWidth=2;verticalLabelPosition=bottom;verticalAlign=top;align=center;outlineConnect=0;fontSize=23;fillStyle=auto;aspect=fixed;fontFamily=Arial;fontStyle=2" parent="9BwAd8rwPp-84XcoNZzX-183" vertex="1">
          <mxGeometry x="1160" y="1108" width="78.74" height="71.8" as="geometry" />
        </mxCell>
        <mxCell id="Ln7XQUvNqYD8yCebmWpK-115" value="" style="edgeStyle=orthogonalEdgeStyle;rounded=0;orthogonalLoop=1;jettySize=auto;html=1;endArrow=none;endFill=0;fontFamily=Arial;align=center;fontStyle=2;dashed=1;dashPattern=1 4;" parent="9BwAd8rwPp-84XcoNZzX-183" edge="1">
          <mxGeometry relative="1" as="geometry">
            <mxPoint x="1227" y="1140" as="targetPoint" />
            <mxPoint x="1320" y="1140" as="sourcePoint" />
          </mxGeometry>
        </mxCell>
        <mxCell id="Ln7XQUvNqYD8yCebmWpK-151" value="" style="shape=mxgraph.cisco.computers_and_peripherals.laptop;sketch=0;html=1;pointerEvents=1;dashed=0;fillColor=#000000;strokeColor=#E6E6E6;strokeWidth=2;verticalLabelPosition=bottom;verticalAlign=top;align=center;outlineConnect=0;fillStyle=auto;fontSize=23;aspect=fixed;fontFamily=Arial;container=0;fontStyle=2" parent="9BwAd8rwPp-84XcoNZzX-183" vertex="1">
          <mxGeometry x="280" y="1113" width="78.74" height="54.22" as="geometry" />
        </mxCell>
        <mxCell id="Ln7XQUvNqYD8yCebmWpK-152" value="" style="shape=mxgraph.cisco.misc.access_point;html=1;pointerEvents=1;dashed=0;fillColor=#000000;strokeColor=#E6E6E6;strokeWidth=2;verticalLabelPosition=bottom;verticalAlign=top;align=center;outlineConnect=0;fillStyle=auto;fontSize=23;aspect=fixed;fontFamily=Arial;container=0;fontStyle=2" parent="9BwAd8rwPp-84XcoNZzX-183" vertex="1">
          <mxGeometry x="440" y="1042.42" width="78.74" height="36.26" as="geometry" />
        </mxCell>
        <mxCell id="Ln7XQUvNqYD8yCebmWpK-153" value="" style="shape=mxgraph.cisco.computers_and_peripherals.laptop;sketch=0;html=1;pointerEvents=1;dashed=0;fillColor=#000000;strokeColor=#E6E6E6;strokeWidth=2;verticalLabelPosition=bottom;verticalAlign=top;align=center;outlineConnect=0;fillStyle=auto;fontSize=23;aspect=fixed;fontFamily=Arial;container=0;fontStyle=2" parent="9BwAd8rwPp-84XcoNZzX-183" vertex="1">
          <mxGeometry x="280" y="952.9999999999999" width="78.74" height="54.17" as="geometry" />
        </mxCell>
        <mxCell id="IKqkC-VqAS8bh-hIaz8--4" style="edgeStyle=orthogonalEdgeStyle;rounded=0;orthogonalLoop=1;jettySize=auto;html=1;strokeWidth=1;fontFamily=Arial;fontSize=14;endArrow=none;endFill=0;dashed=1;align=center;fontStyle=2" edge="1" parent="9BwAd8rwPp-84XcoNZzX-183">
          <mxGeometry relative="1" as="geometry">
            <mxPoint x="880" y="1490" as="targetPoint" />
            <mxPoint x="800" y="1490" as="sourcePoint" />
          </mxGeometry>
        </mxCell>
        <mxCell id="IKqkC-VqAS8bh-hIaz8--5" value="Беспроводное соединение Wi-Fi" style="text;html=1;strokeColor=none;fillColor=none;align=center;verticalAlign=bottom;whiteSpace=wrap;rounded=0;dashed=1;fillStyle=auto;strokeWidth=2;fontFamily=Arial;fontSize=14;fontStyle=2;container=0;" vertex="1" parent="9BwAd8rwPp-84XcoNZzX-183">
          <mxGeometry x="720" y="1450" width="240" height="30" as="geometry" />
        </mxCell>
        <mxCell id="IKqkC-VqAS8bh-hIaz8--6" style="edgeStyle=orthogonalEdgeStyle;rounded=0;orthogonalLoop=1;jettySize=auto;html=1;strokeWidth=1;fontFamily=Arial;fontSize=14;endArrow=none;endFill=0;dashed=1;align=center;fontStyle=2;dashPattern=1 4;" edge="1" parent="9BwAd8rwPp-84XcoNZzX-183">
          <mxGeometry relative="1" as="geometry">
            <mxPoint x="880" y="1590" as="targetPoint" />
            <mxPoint x="800" y="1590" as="sourcePoint" />
          </mxGeometry>
        </mxCell>
        <mxCell id="IKqkC-VqAS8bh-hIaz8--7" value="Universal Serial Bus" style="text;html=1;strokeColor=none;fillColor=none;align=center;verticalAlign=bottom;whiteSpace=wrap;rounded=0;dashed=1;fillStyle=auto;strokeWidth=2;fontFamily=Arial;fontSize=14;fontStyle=2;container=0;" vertex="1" parent="9BwAd8rwPp-84XcoNZzX-183">
          <mxGeometry x="720" y="1550" width="240" height="30" as="geometry" />
        </mxCell>
        <object label="Интерфейсы" id="9BwAd8rwPp-84XcoNZzX-187">
          <mxCell parent="0" />
        </object>
        <mxCell id="0MDFwOMSwQNmZCORZw81-230" value="&lt;span style=&quot;font-size: 11px;&quot;&gt;GE/8&lt;/span&gt;" style="text;html=1;strokeColor=none;fillColor=none;align=center;verticalAlign=middle;whiteSpace=wrap;rounded=0;dashed=1;fillStyle=auto;strokeWidth=2;fontFamily=Arial;fontSize=11;fontStyle=2" parent="9BwAd8rwPp-84XcoNZzX-187" vertex="1">
          <mxGeometry x="680" y="1200" width="40" height="20" as="geometry" />
        </mxCell>
        <mxCell id="0MDFwOMSwQNmZCORZw81-235" value="&lt;span style=&quot;font-size: 11px;&quot;&gt;GE/9&lt;/span&gt;" style="text;html=1;strokeColor=none;fillColor=none;align=center;verticalAlign=middle;whiteSpace=wrap;rounded=0;dashed=1;fillStyle=auto;strokeWidth=2;fontFamily=Arial;fontSize=11;fontStyle=2" parent="9BwAd8rwPp-84XcoNZzX-187" vertex="1">
          <mxGeometry x="720" y="1200" width="40" height="20" as="geometry" />
        </mxCell>
        <mxCell id="0MDFwOMSwQNmZCORZw81-236" value="&lt;span style=&quot;font-size: 11px;&quot;&gt;GE/10&lt;/span&gt;" style="text;html=1;strokeColor=none;fillColor=none;align=center;verticalAlign=middle;whiteSpace=wrap;rounded=0;dashed=1;fillStyle=auto;strokeWidth=2;fontFamily=Arial;fontSize=11;fontStyle=2" parent="9BwAd8rwPp-84XcoNZzX-187" vertex="1">
          <mxGeometry x="760" y="1200" width="40" height="20" as="geometry" />
        </mxCell>
        <mxCell id="0MDFwOMSwQNmZCORZw81-192" value="&lt;span style=&quot;font-size: 11px;&quot;&gt;GE/0&lt;/span&gt;" style="text;html=1;strokeColor=none;fillColor=none;align=center;verticalAlign=middle;whiteSpace=wrap;rounded=0;dashed=1;fillStyle=auto;strokeWidth=2;fontFamily=Arial;fontSize=11;fontStyle=2" parent="9BwAd8rwPp-84XcoNZzX-187" vertex="1">
          <mxGeometry x="1040" y="240" width="40" height="20" as="geometry" />
        </mxCell>
        <mxCell id="0MDFwOMSwQNmZCORZw81-193" value="&lt;span style=&quot;font-size: 11px;&quot;&gt;GE/0&lt;/span&gt;" style="text;html=1;strokeColor=none;fillColor=none;align=center;verticalAlign=middle;whiteSpace=wrap;rounded=0;dashed=1;fillStyle=auto;strokeWidth=2;fontFamily=Arial;fontSize=11;fontStyle=2" parent="9BwAd8rwPp-84XcoNZzX-187" vertex="1">
          <mxGeometry x="1200" y="240" width="40" height="20" as="geometry" />
        </mxCell>
        <mxCell id="0MDFwOMSwQNmZCORZw81-194" value="&lt;span style=&quot;font-size: 11px;&quot;&gt;GE/5&lt;/span&gt;" style="text;html=1;strokeColor=none;fillColor=none;align=center;verticalAlign=middle;whiteSpace=wrap;rounded=0;dashed=1;fillStyle=auto;strokeWidth=2;fontFamily=Arial;fontSize=11;fontStyle=2" parent="9BwAd8rwPp-84XcoNZzX-187" vertex="1">
          <mxGeometry x="1000" y="260" width="40" height="20" as="geometry" />
        </mxCell>
        <mxCell id="0MDFwOMSwQNmZCORZw81-195" value="&lt;span style=&quot;font-size: 11px;&quot;&gt;GE/20&lt;/span&gt;" style="text;html=1;strokeColor=none;fillColor=none;align=center;verticalAlign=middle;whiteSpace=wrap;rounded=0;dashed=1;fillStyle=auto;strokeWidth=2;fontFamily=Arial;fontSize=11;fontStyle=2" parent="9BwAd8rwPp-84XcoNZzX-187" vertex="1">
          <mxGeometry x="1159" y="260" width="40" height="20" as="geometry" />
        </mxCell>
        <mxCell id="0MDFwOMSwQNmZCORZw81-196" value="&lt;span style=&quot;font-size: 11px;&quot;&gt;GE/4&lt;/span&gt;" style="text;html=1;strokeColor=none;fillColor=none;align=center;verticalAlign=middle;whiteSpace=wrap;rounded=0;dashed=1;fillStyle=auto;strokeWidth=2;fontFamily=Arial;fontSize=11;fontStyle=2" parent="9BwAd8rwPp-84XcoNZzX-187" vertex="1">
          <mxGeometry x="1159" y="280" width="40" height="20" as="geometry" />
        </mxCell>
        <mxCell id="0MDFwOMSwQNmZCORZw81-197" value="&lt;span style=&quot;font-size: 11px;&quot;&gt;GE/1&lt;/span&gt;" style="text;html=1;strokeColor=none;fillColor=none;align=center;verticalAlign=middle;whiteSpace=wrap;rounded=0;dashed=1;fillStyle=auto;strokeWidth=2;fontFamily=Arial;fontSize=11;fontStyle=2" parent="9BwAd8rwPp-84XcoNZzX-187" vertex="1">
          <mxGeometry x="1000" y="280" width="40" height="20" as="geometry" />
        </mxCell>
        <mxCell id="0MDFwOMSwQNmZCORZw81-200" value="&lt;span style=&quot;font-size: 11px;&quot;&gt;GE/0&lt;/span&gt;" style="text;html=1;strokeColor=none;fillColor=none;align=center;verticalAlign=middle;whiteSpace=wrap;rounded=0;dashed=1;fillStyle=auto;strokeWidth=2;fontFamily=Arial;fontSize=11;fontStyle=2" parent="9BwAd8rwPp-84XcoNZzX-187" vertex="1">
          <mxGeometry x="1279" y="280" width="40" height="20" as="geometry" />
        </mxCell>
        <mxCell id="0MDFwOMSwQNmZCORZw81-201" value="&lt;span style=&quot;font-size: 11px;&quot;&gt;GE/42&lt;/span&gt;" style="text;html=1;strokeColor=none;fillColor=none;align=center;verticalAlign=middle;whiteSpace=wrap;rounded=0;dashed=1;fillStyle=auto;strokeWidth=2;fontFamily=Arial;fontSize=11;fontStyle=2" parent="9BwAd8rwPp-84XcoNZzX-187" vertex="1">
          <mxGeometry x="1239" y="260" width="40" height="20" as="geometry" />
        </mxCell>
        <mxCell id="0MDFwOMSwQNmZCORZw81-202" value="&lt;span style=&quot;font-size: 11px;&quot;&gt;GE/0&lt;/span&gt;" style="text;html=1;strokeColor=none;fillColor=none;align=center;verticalAlign=middle;whiteSpace=wrap;rounded=0;dashed=1;fillStyle=auto;strokeWidth=2;fontFamily=Arial;fontSize=11;fontStyle=2" parent="9BwAd8rwPp-84XcoNZzX-187" vertex="1">
          <mxGeometry x="520" y="280" width="40" height="20" as="geometry" />
        </mxCell>
        <mxCell id="0MDFwOMSwQNmZCORZw81-203" value="&lt;span style=&quot;font-size: 11px;&quot;&gt;GE/41&lt;/span&gt;" style="text;html=1;strokeColor=none;fillColor=none;align=center;verticalAlign=middle;whiteSpace=wrap;rounded=0;dashed=1;fillStyle=auto;strokeWidth=2;fontFamily=Arial;fontSize=11;fontStyle=2" parent="9BwAd8rwPp-84XcoNZzX-187" vertex="1">
          <mxGeometry x="560" y="260" width="40" height="20" as="geometry" />
        </mxCell>
        <mxCell id="0MDFwOMSwQNmZCORZw81-239" value="&lt;span style=&quot;font-size: 11px;&quot;&gt;GE/48&lt;/span&gt;" style="text;html=1;strokeColor=none;fillColor=none;align=center;verticalAlign=middle;whiteSpace=wrap;rounded=0;dashed=1;fillStyle=auto;strokeWidth=2;fontFamily=Arial;fontSize=11;fontStyle=2" parent="9BwAd8rwPp-84XcoNZzX-187" vertex="1">
          <mxGeometry x="720" y="260" width="40" height="20" as="geometry" />
        </mxCell>
        <mxCell id="0MDFwOMSwQNmZCORZw81-240" value="&lt;span style=&quot;font-size: 11px;&quot;&gt;GE/47&lt;/span&gt;" style="text;html=1;strokeColor=none;fillColor=none;align=center;verticalAlign=middle;whiteSpace=wrap;rounded=0;dashed=1;fillStyle=auto;strokeWidth=2;fontFamily=Arial;fontSize=11;fontStyle=2" parent="9BwAd8rwPp-84XcoNZzX-187" vertex="1">
          <mxGeometry x="639" y="260" width="40" height="20" as="geometry" />
        </mxCell>
        <mxCell id="0MDFwOMSwQNmZCORZw81-241" value="&lt;span style=&quot;font-size: 11px;&quot;&gt;GE/46&lt;/span&gt;" style="text;html=1;strokeColor=none;fillColor=none;align=center;verticalAlign=middle;whiteSpace=wrap;rounded=0;dashed=1;fillStyle=auto;strokeWidth=2;fontFamily=Arial;fontSize=11;fontStyle=2" parent="9BwAd8rwPp-84XcoNZzX-187" vertex="1">
          <mxGeometry x="599" y="260" width="40" height="20" as="geometry" />
        </mxCell>
        <mxCell id="0MDFwOMSwQNmZCORZw81-232" value="&lt;span style=&quot;font-size: 11px;&quot;&gt;GE/0&lt;/span&gt;" style="text;html=1;strokeColor=none;fillColor=none;align=center;verticalAlign=middle;whiteSpace=wrap;rounded=0;dashed=1;fillStyle=auto;strokeWidth=2;fontFamily=Arial;fontSize=11;fontStyle=2" parent="9BwAd8rwPp-84XcoNZzX-187" vertex="1">
          <mxGeometry x="1920" y="1130" width="40" height="20" as="geometry" />
        </mxCell>
        <mxCell id="Ox5Po6O9_LgIOVLj1sJk-7" value="&lt;span style=&quot;font-size: 11px;&quot;&gt;GE/3&lt;/span&gt;" style="text;html=1;strokeColor=none;fillColor=none;align=center;verticalAlign=middle;whiteSpace=wrap;rounded=0;dashed=1;fillStyle=auto;strokeWidth=2;fontFamily=Arial;fontSize=11;fontStyle=2" parent="9BwAd8rwPp-84XcoNZzX-187" vertex="1">
          <mxGeometry x="1760" y="1110" width="40" height="20" as="geometry" />
        </mxCell>
        <mxCell id="oEqlLLCMxWZDDx5f_Mu--39" value="&lt;span style=&quot;font-size: 11px;&quot;&gt;GE/48&lt;/span&gt;" style="text;html=1;strokeColor=none;fillColor=none;align=center;verticalAlign=middle;whiteSpace=wrap;rounded=0;dashed=1;fillStyle=auto;strokeWidth=2;fontFamily=Arial;fontSize=11;fontStyle=2" parent="9BwAd8rwPp-84XcoNZzX-187" vertex="1">
          <mxGeometry x="760" y="650" width="40" height="20" as="geometry" />
        </mxCell>
        <mxCell id="oEqlLLCMxWZDDx5f_Mu--40" value="&lt;span style=&quot;font-size: 11px;&quot;&gt;GE/47&lt;/span&gt;" style="text;html=1;strokeColor=none;fillColor=none;align=center;verticalAlign=middle;whiteSpace=wrap;rounded=0;dashed=1;fillStyle=auto;strokeWidth=2;fontFamily=Arial;fontSize=11;fontStyle=2" parent="9BwAd8rwPp-84XcoNZzX-187" vertex="1">
          <mxGeometry x="679" y="650" width="40" height="20" as="geometry" />
        </mxCell>
        <mxCell id="oEqlLLCMxWZDDx5f_Mu--41" value="&lt;span style=&quot;font-size: 11px;&quot;&gt;GE/46&lt;/span&gt;" style="text;html=1;strokeColor=none;fillColor=none;align=center;verticalAlign=middle;whiteSpace=wrap;rounded=0;dashed=1;fillStyle=auto;strokeWidth=2;fontFamily=Arial;fontSize=11;fontStyle=2" parent="9BwAd8rwPp-84XcoNZzX-187" vertex="1">
          <mxGeometry x="600" y="650" width="40" height="20" as="geometry" />
        </mxCell>
        <mxCell id="oEqlLLCMxWZDDx5f_Mu--103" value="&lt;span style=&quot;font-size: 11px;&quot;&gt;GE/47&lt;/span&gt;" style="text;html=1;strokeColor=none;fillColor=none;align=center;verticalAlign=middle;whiteSpace=wrap;rounded=0;dashed=1;fillStyle=auto;strokeWidth=2;fontFamily=Arial;fontSize=11;fontStyle=2" parent="9BwAd8rwPp-84XcoNZzX-187" vertex="1">
          <mxGeometry x="680" y="1040" width="40" height="20" as="geometry" />
        </mxCell>
        <mxCell id="oEqlLLCMxWZDDx5f_Mu--104" value="&lt;span style=&quot;font-size: 11px;&quot;&gt;GE/46&lt;/span&gt;" style="text;html=1;strokeColor=none;fillColor=none;align=center;verticalAlign=middle;whiteSpace=wrap;rounded=0;dashed=1;fillStyle=auto;strokeWidth=2;fontFamily=Arial;fontSize=11;fontStyle=2" parent="9BwAd8rwPp-84XcoNZzX-187" vertex="1">
          <mxGeometry x="640" y="1040" width="40" height="20" as="geometry" />
        </mxCell>
        <mxCell id="oEqlLLCMxWZDDx5f_Mu--169" value="&lt;span style=&quot;font-size: 11px;&quot;&gt;GE/0&lt;/span&gt;" style="text;html=1;strokeColor=none;fillColor=none;align=center;verticalAlign=middle;whiteSpace=wrap;rounded=0;dashed=1;fillStyle=auto;strokeWidth=2;fontFamily=Arial;fontSize=11;fontStyle=2" parent="9BwAd8rwPp-84XcoNZzX-187" vertex="1">
          <mxGeometry x="1720" y="1130" width="40" height="20" as="geometry" />
        </mxCell>
        <mxCell id="oEqlLLCMxWZDDx5f_Mu--170" value="&lt;span style=&quot;font-size: 11px;&quot;&gt;GE/4&lt;/span&gt;" style="text;html=1;strokeColor=none;fillColor=none;align=center;verticalAlign=middle;whiteSpace=wrap;rounded=0;dashed=1;fillStyle=auto;strokeWidth=2;fontFamily=Arial;fontSize=11;fontStyle=2" parent="9BwAd8rwPp-84XcoNZzX-187" vertex="1">
          <mxGeometry x="1880" y="1110" width="40" height="20" as="geometry" />
        </mxCell>
        <mxCell id="Ln7XQUvNqYD8yCebmWpK-32" value="&lt;span style=&quot;font-size: 11px;&quot;&gt;GE/0&lt;/span&gt;" style="text;html=1;strokeColor=none;fillColor=none;align=center;verticalAlign=middle;whiteSpace=wrap;rounded=0;dashed=1;fillStyle=auto;strokeWidth=2;fontFamily=Arial;fontSize=11;fontStyle=2" parent="9BwAd8rwPp-84XcoNZzX-187" vertex="1">
          <mxGeometry x="1040" y="310" width="40" height="20" as="geometry" />
        </mxCell>
        <mxCell id="Ln7XQUvNqYD8yCebmWpK-33" value="&lt;span style=&quot;font-size: 11px;&quot;&gt;GE/0&lt;/span&gt;" style="text;html=1;strokeColor=none;fillColor=none;align=center;verticalAlign=middle;whiteSpace=wrap;rounded=0;dashed=1;fillStyle=auto;strokeWidth=2;fontFamily=Arial;fontSize=11;fontStyle=2" parent="9BwAd8rwPp-84XcoNZzX-187" vertex="1">
          <mxGeometry x="1200" y="310" width="40" height="20" as="geometry" />
        </mxCell>
        <mxCell id="Ln7XQUvNqYD8yCebmWpK-37" value="&lt;span style=&quot;font-size: 11px;&quot;&gt;GE/0&lt;/span&gt;" style="text;html=1;strokeColor=none;fillColor=none;align=center;verticalAlign=middle;whiteSpace=wrap;rounded=0;dashed=1;fillStyle=auto;strokeWidth=2;fontFamily=Arial;fontSize=11;fontStyle=2" parent="9BwAd8rwPp-84XcoNZzX-187" vertex="1">
          <mxGeometry x="520" y="670" width="40" height="20" as="geometry" />
        </mxCell>
        <mxCell id="Ln7XQUvNqYD8yCebmWpK-38" value="&lt;span style=&quot;font-size: 11px;&quot;&gt;GE/41&lt;/span&gt;" style="text;html=1;strokeColor=none;fillColor=none;align=center;verticalAlign=middle;whiteSpace=wrap;rounded=0;dashed=1;fillStyle=auto;strokeWidth=2;fontFamily=Arial;fontSize=11;fontStyle=2" parent="9BwAd8rwPp-84XcoNZzX-187" vertex="1">
          <mxGeometry x="560" y="650" width="40" height="20" as="geometry" />
        </mxCell>
        <mxCell id="Ln7XQUvNqYD8yCebmWpK-63" value="&lt;span style=&quot;font-size: 11px;&quot;&gt;GE/0&lt;/span&gt;" style="text;html=1;strokeColor=none;fillColor=none;align=center;verticalAlign=middle;whiteSpace=wrap;rounded=0;dashed=1;fillStyle=auto;strokeWidth=2;fontFamily=Arial;fontSize=11;fontStyle=2" parent="9BwAd8rwPp-84XcoNZzX-187" vertex="1">
          <mxGeometry x="1040" y="630" width="40" height="20" as="geometry" />
        </mxCell>
        <mxCell id="Ln7XQUvNqYD8yCebmWpK-64" value="&lt;span style=&quot;font-size: 11px;&quot;&gt;GE/0&lt;/span&gt;" style="text;html=1;strokeColor=none;fillColor=none;align=center;verticalAlign=middle;whiteSpace=wrap;rounded=0;dashed=1;fillStyle=auto;strokeWidth=2;fontFamily=Arial;fontSize=11;fontStyle=2" parent="9BwAd8rwPp-84XcoNZzX-187" vertex="1">
          <mxGeometry x="1200" y="630" width="40" height="20" as="geometry" />
        </mxCell>
        <mxCell id="Ln7XQUvNqYD8yCebmWpK-65" value="&lt;span style=&quot;font-size: 11px;&quot;&gt;GE/5&lt;/span&gt;" style="text;html=1;strokeColor=none;fillColor=none;align=center;verticalAlign=middle;whiteSpace=wrap;rounded=0;dashed=1;fillStyle=auto;strokeWidth=2;fontFamily=Arial;fontSize=11;fontStyle=2" parent="9BwAd8rwPp-84XcoNZzX-187" vertex="1">
          <mxGeometry x="1000" y="650" width="40" height="20" as="geometry" />
        </mxCell>
        <mxCell id="Ln7XQUvNqYD8yCebmWpK-66" value="&lt;span style=&quot;font-size: 11px;&quot;&gt;GE/20&lt;/span&gt;" style="text;html=1;strokeColor=none;fillColor=none;align=center;verticalAlign=middle;whiteSpace=wrap;rounded=0;dashed=1;fillStyle=auto;strokeWidth=2;fontFamily=Arial;fontSize=11;fontStyle=2" parent="9BwAd8rwPp-84XcoNZzX-187" vertex="1">
          <mxGeometry x="1159" y="650" width="40" height="20" as="geometry" />
        </mxCell>
        <mxCell id="Ln7XQUvNqYD8yCebmWpK-67" value="&lt;span style=&quot;font-size: 11px;&quot;&gt;GE/4&lt;/span&gt;" style="text;html=1;strokeColor=none;fillColor=none;align=center;verticalAlign=middle;whiteSpace=wrap;rounded=0;dashed=1;fillStyle=auto;strokeWidth=2;fontFamily=Arial;fontSize=11;fontStyle=2" parent="9BwAd8rwPp-84XcoNZzX-187" vertex="1">
          <mxGeometry x="1159" y="670" width="40" height="20" as="geometry" />
        </mxCell>
        <mxCell id="Ln7XQUvNqYD8yCebmWpK-68" value="&lt;span style=&quot;font-size: 11px;&quot;&gt;GE/1&lt;/span&gt;" style="text;html=1;strokeColor=none;fillColor=none;align=center;verticalAlign=middle;whiteSpace=wrap;rounded=0;dashed=1;fillStyle=auto;strokeWidth=2;fontFamily=Arial;fontSize=11;fontStyle=2" parent="9BwAd8rwPp-84XcoNZzX-187" vertex="1">
          <mxGeometry x="1000" y="670" width="40" height="20" as="geometry" />
        </mxCell>
        <mxCell id="Ln7XQUvNqYD8yCebmWpK-69" value="&lt;span style=&quot;font-size: 11px;&quot;&gt;GE/0&lt;/span&gt;" style="text;html=1;strokeColor=none;fillColor=none;align=center;verticalAlign=middle;whiteSpace=wrap;rounded=0;dashed=1;fillStyle=auto;strokeWidth=2;fontFamily=Arial;fontSize=11;fontStyle=2" parent="9BwAd8rwPp-84XcoNZzX-187" vertex="1">
          <mxGeometry x="1279" y="670" width="40" height="20" as="geometry" />
        </mxCell>
        <mxCell id="Ln7XQUvNqYD8yCebmWpK-70" value="&lt;span style=&quot;font-size: 11px;&quot;&gt;GE/42&lt;/span&gt;" style="text;html=1;strokeColor=none;fillColor=none;align=center;verticalAlign=middle;whiteSpace=wrap;rounded=0;dashed=1;fillStyle=auto;strokeWidth=2;fontFamily=Arial;fontSize=11;fontStyle=2" parent="9BwAd8rwPp-84XcoNZzX-187" vertex="1">
          <mxGeometry x="1239" y="650" width="40" height="20" as="geometry" />
        </mxCell>
        <mxCell id="Ln7XQUvNqYD8yCebmWpK-71" value="&lt;span style=&quot;font-size: 11px;&quot;&gt;GE/0&lt;/span&gt;" style="text;html=1;strokeColor=none;fillColor=none;align=center;verticalAlign=middle;whiteSpace=wrap;rounded=0;dashed=1;fillStyle=auto;strokeWidth=2;fontFamily=Arial;fontSize=11;fontStyle=2" parent="9BwAd8rwPp-84XcoNZzX-187" vertex="1">
          <mxGeometry x="1040" y="700" width="40" height="20" as="geometry" />
        </mxCell>
        <mxCell id="Ln7XQUvNqYD8yCebmWpK-72" value="&lt;span style=&quot;font-size: 11px;&quot;&gt;GE/0&lt;/span&gt;" style="text;html=1;strokeColor=none;fillColor=none;align=center;verticalAlign=middle;whiteSpace=wrap;rounded=0;dashed=1;fillStyle=auto;strokeWidth=2;fontFamily=Arial;fontSize=11;fontStyle=2" parent="9BwAd8rwPp-84XcoNZzX-187" vertex="1">
          <mxGeometry x="1200" y="700" width="40" height="20" as="geometry" />
        </mxCell>
        <mxCell id="Ln7XQUvNqYD8yCebmWpK-116" value="&lt;span style=&quot;font-size: 11px;&quot;&gt;GE/0&lt;/span&gt;" style="text;html=1;strokeColor=none;fillColor=none;align=center;verticalAlign=middle;whiteSpace=wrap;rounded=0;dashed=1;fillStyle=auto;strokeWidth=2;fontFamily=Arial;fontSize=11;fontStyle=2" parent="9BwAd8rwPp-84XcoNZzX-187" vertex="1">
          <mxGeometry x="1040" y="1020" width="40" height="20" as="geometry" />
        </mxCell>
        <mxCell id="Ln7XQUvNqYD8yCebmWpK-117" value="&lt;span style=&quot;font-size: 11px;&quot;&gt;GE/0&lt;/span&gt;" style="text;html=1;strokeColor=none;fillColor=none;align=center;verticalAlign=middle;whiteSpace=wrap;rounded=0;dashed=1;fillStyle=auto;strokeWidth=2;fontFamily=Arial;fontSize=11;fontStyle=2" parent="9BwAd8rwPp-84XcoNZzX-187" vertex="1">
          <mxGeometry x="1200" y="1020" width="40" height="20" as="geometry" />
        </mxCell>
        <mxCell id="Ln7XQUvNqYD8yCebmWpK-118" value="&lt;span style=&quot;font-size: 11px;&quot;&gt;GE/5&lt;/span&gt;" style="text;html=1;strokeColor=none;fillColor=none;align=center;verticalAlign=middle;whiteSpace=wrap;rounded=0;dashed=1;fillStyle=auto;strokeWidth=2;fontFamily=Arial;fontSize=11;fontStyle=2" parent="9BwAd8rwPp-84XcoNZzX-187" vertex="1">
          <mxGeometry x="1000" y="1040" width="40" height="20" as="geometry" />
        </mxCell>
        <mxCell id="Ln7XQUvNqYD8yCebmWpK-119" value="&lt;span style=&quot;font-size: 11px;&quot;&gt;GE/20&lt;/span&gt;" style="text;html=1;strokeColor=none;fillColor=none;align=center;verticalAlign=middle;whiteSpace=wrap;rounded=0;dashed=1;fillStyle=auto;strokeWidth=2;fontFamily=Arial;fontSize=11;fontStyle=2" parent="9BwAd8rwPp-84XcoNZzX-187" vertex="1">
          <mxGeometry x="1159" y="1040" width="40" height="20" as="geometry" />
        </mxCell>
        <mxCell id="Ln7XQUvNqYD8yCebmWpK-120" value="&lt;span style=&quot;font-size: 11px;&quot;&gt;GE/4&lt;/span&gt;" style="text;html=1;strokeColor=none;fillColor=none;align=center;verticalAlign=middle;whiteSpace=wrap;rounded=0;dashed=1;fillStyle=auto;strokeWidth=2;fontFamily=Arial;fontSize=11;fontStyle=2" parent="9BwAd8rwPp-84XcoNZzX-187" vertex="1">
          <mxGeometry x="1159" y="1060" width="40" height="20" as="geometry" />
        </mxCell>
        <mxCell id="Ln7XQUvNqYD8yCebmWpK-121" value="&lt;span style=&quot;font-size: 11px;&quot;&gt;GE/1&lt;/span&gt;" style="text;html=1;strokeColor=none;fillColor=none;align=center;verticalAlign=middle;whiteSpace=wrap;rounded=0;dashed=1;fillStyle=auto;strokeWidth=2;fontFamily=Arial;fontSize=11;fontStyle=2" parent="9BwAd8rwPp-84XcoNZzX-187" vertex="1">
          <mxGeometry x="1000" y="1060" width="40" height="20" as="geometry" />
        </mxCell>
        <mxCell id="Ln7XQUvNqYD8yCebmWpK-122" value="&lt;span style=&quot;font-size: 11px;&quot;&gt;GE/0&lt;/span&gt;" style="text;html=1;strokeColor=none;fillColor=none;align=center;verticalAlign=middle;whiteSpace=wrap;rounded=0;dashed=1;fillStyle=auto;strokeWidth=2;fontFamily=Arial;fontSize=11;fontStyle=2" parent="9BwAd8rwPp-84XcoNZzX-187" vertex="1">
          <mxGeometry x="1279" y="1060" width="40" height="20" as="geometry" />
        </mxCell>
        <mxCell id="Ln7XQUvNqYD8yCebmWpK-123" value="&lt;span style=&quot;font-size: 11px;&quot;&gt;GE/42&lt;/span&gt;" style="text;html=1;strokeColor=none;fillColor=none;align=center;verticalAlign=middle;whiteSpace=wrap;rounded=0;dashed=1;fillStyle=auto;strokeWidth=2;fontFamily=Arial;fontSize=11;fontStyle=2" parent="9BwAd8rwPp-84XcoNZzX-187" vertex="1">
          <mxGeometry x="1239" y="1040" width="40" height="20" as="geometry" />
        </mxCell>
        <mxCell id="Ln7XQUvNqYD8yCebmWpK-124" value="&lt;span style=&quot;font-size: 11px;&quot;&gt;GE/0&lt;/span&gt;" style="text;html=1;strokeColor=none;fillColor=none;align=center;verticalAlign=middle;whiteSpace=wrap;rounded=0;dashed=1;fillStyle=auto;strokeWidth=2;fontFamily=Arial;fontSize=11;fontStyle=2" parent="9BwAd8rwPp-84XcoNZzX-187" vertex="1">
          <mxGeometry x="1040" y="1090" width="40" height="20" as="geometry" />
        </mxCell>
        <mxCell id="Ln7XQUvNqYD8yCebmWpK-125" value="&lt;span style=&quot;font-size: 11px;&quot;&gt;GE/0&lt;/span&gt;" style="text;html=1;strokeColor=none;fillColor=none;align=center;verticalAlign=middle;whiteSpace=wrap;rounded=0;dashed=1;fillStyle=auto;strokeWidth=2;fontFamily=Arial;fontSize=11;fontStyle=2" parent="9BwAd8rwPp-84XcoNZzX-187" vertex="1">
          <mxGeometry x="1200" y="1090" width="40" height="20" as="geometry" />
        </mxCell>
        <mxCell id="Ln7XQUvNqYD8yCebmWpK-154" value="&lt;span style=&quot;font-size: 11px;&quot;&gt;GE/0&lt;/span&gt;" style="text;html=1;strokeColor=none;fillColor=none;align=center;verticalAlign=middle;whiteSpace=wrap;rounded=0;dashed=1;fillStyle=auto;strokeWidth=2;fontFamily=Arial;fontSize=11;fontStyle=2" parent="9BwAd8rwPp-84XcoNZzX-187" vertex="1">
          <mxGeometry x="520" y="1060" width="40" height="20" as="geometry" />
        </mxCell>
        <mxCell id="Ln7XQUvNqYD8yCebmWpK-155" value="&lt;span style=&quot;font-size: 11px;&quot;&gt;GE/41&lt;/span&gt;" style="text;html=1;strokeColor=none;fillColor=none;align=center;verticalAlign=middle;whiteSpace=wrap;rounded=0;dashed=1;fillStyle=auto;strokeWidth=2;fontFamily=Arial;fontSize=11;fontStyle=2" parent="9BwAd8rwPp-84XcoNZzX-187" vertex="1">
          <mxGeometry x="560" y="1040" width="40" height="20" as="geometry" />
        </mxCell>
        <mxCell id="9BwAd8rwPp-84XcoNZzX-200" value="Беспроводные соединения" parent="0" />
        <mxCell id="0MDFwOMSwQNmZCORZw81-114" style="edgeStyle=orthogonalEdgeStyle;rounded=0;orthogonalLoop=1;jettySize=auto;html=1;strokeWidth=1;fontFamily=Arial;fontSize=14;endArrow=none;endFill=0;dashed=1;align=center;fontStyle=2;startArrow=none;" parent="9BwAd8rwPp-84XcoNZzX-200" target="0MDFwOMSwQNmZCORZw81-258" edge="1">
          <mxGeometry relative="1" as="geometry">
            <mxPoint x="457.99999999999955" y="307" as="targetPoint" />
            <mxPoint x="378.42979205898814" y="360.17647058823525" as="sourcePoint" />
            <Array as="points">
              <mxPoint x="400" y="360" />
              <mxPoint x="400" y="290" />
            </Array>
          </mxGeometry>
        </mxCell>
        <mxCell id="0MDFwOMSwQNmZCORZw81-115" style="edgeStyle=orthogonalEdgeStyle;rounded=0;orthogonalLoop=1;jettySize=auto;html=1;strokeWidth=1;fontFamily=Arial;fontSize=14;endArrow=none;endFill=0;dashed=1;align=center;fontStyle=2" parent="9BwAd8rwPp-84XcoNZzX-200" edge="1">
          <mxGeometry relative="1" as="geometry">
            <mxPoint x="450" y="270" as="targetPoint" />
            <mxPoint x="360" y="200" as="sourcePoint" />
            <Array as="points">
              <mxPoint x="400" y="200" />
              <mxPoint x="400" y="270" />
              <mxPoint x="458" y="270" />
            </Array>
          </mxGeometry>
        </mxCell>
        <mxCell id="0MDFwOMSwQNmZCORZw81-124" style="edgeStyle=orthogonalEdgeStyle;rounded=0;orthogonalLoop=1;jettySize=auto;html=1;strokeWidth=1;fontFamily=Arial;fontSize=14;endArrow=none;endFill=0;exitX=0.28;exitY=0.5;exitDx=0;exitDy=0;exitPerimeter=0;dashed=1;align=center;fontStyle=2" parent="9BwAd8rwPp-84XcoNZzX-200" source="0MDFwOMSwQNmZCORZw81-254" target="0MDFwOMSwQNmZCORZw81-255" edge="1">
          <mxGeometry relative="1" as="geometry">
            <mxPoint x="1359" y="267" as="targetPoint" />
            <Array as="points">
              <mxPoint x="1440" y="200" />
              <mxPoint x="1440" y="270" />
            </Array>
          </mxGeometry>
        </mxCell>
        <mxCell id="0MDFwOMSwQNmZCORZw81-125" style="edgeStyle=orthogonalEdgeStyle;rounded=0;orthogonalLoop=1;jettySize=auto;html=1;exitX=0.28;exitY=0.5;exitDx=0;exitDy=0;exitPerimeter=0;strokeWidth=1;fontFamily=Arial;fontSize=14;endArrow=none;endFill=0;dashed=1;align=center;fontStyle=2" parent="9BwAd8rwPp-84XcoNZzX-200" source="0MDFwOMSwQNmZCORZw81-249" edge="1">
          <mxGeometry relative="1" as="geometry">
            <mxPoint x="1400" y="290" as="targetPoint" />
            <Array as="points">
              <mxPoint x="1440" y="360" />
              <mxPoint x="1440" y="290" />
            </Array>
          </mxGeometry>
        </mxCell>
        <mxCell id="Ln7XQUvNqYD8yCebmWpK-39" style="edgeStyle=orthogonalEdgeStyle;rounded=0;orthogonalLoop=1;jettySize=auto;html=1;strokeWidth=1;fontFamily=Arial;fontSize=14;endArrow=none;endFill=0;dashed=1;align=center;fontStyle=2" parent="9BwAd8rwPp-84XcoNZzX-200" target="Ln7XQUvNqYD8yCebmWpK-35" edge="1">
          <mxGeometry relative="1" as="geometry">
            <mxPoint x="457.99999999999955" y="697" as="targetPoint" />
            <mxPoint x="359.9999999999998" y="750" as="sourcePoint" />
            <Array as="points">
              <mxPoint x="360" y="750" />
              <mxPoint x="400" y="750" />
              <mxPoint x="400" y="680" />
            </Array>
          </mxGeometry>
        </mxCell>
        <mxCell id="Ln7XQUvNqYD8yCebmWpK-40" style="edgeStyle=orthogonalEdgeStyle;rounded=0;orthogonalLoop=1;jettySize=auto;html=1;strokeWidth=1;fontFamily=Arial;fontSize=14;endArrow=none;endFill=0;dashed=1;align=center;fontStyle=2" parent="9BwAd8rwPp-84XcoNZzX-200" edge="1">
          <mxGeometry relative="1" as="geometry">
            <mxPoint x="449.9999999999998" y="660" as="targetPoint" />
            <mxPoint x="359.9999999999998" y="590" as="sourcePoint" />
            <Array as="points">
              <mxPoint x="400" y="590" />
              <mxPoint x="400" y="660" />
              <mxPoint x="458" y="660" />
            </Array>
          </mxGeometry>
        </mxCell>
        <mxCell id="Ln7XQUvNqYD8yCebmWpK-73" style="edgeStyle=orthogonalEdgeStyle;rounded=0;orthogonalLoop=1;jettySize=auto;html=1;strokeWidth=1;fontFamily=Arial;fontSize=14;endArrow=none;endFill=0;exitX=0.28;exitY=0.5;exitDx=0;exitDy=0;exitPerimeter=0;dashed=1;align=center;fontStyle=2" parent="9BwAd8rwPp-84XcoNZzX-200" source="Ln7XQUvNqYD8yCebmWpK-55" target="Ln7XQUvNqYD8yCebmWpK-54" edge="1">
          <mxGeometry relative="1" as="geometry">
            <mxPoint x="1359" y="657" as="targetPoint" />
            <Array as="points">
              <mxPoint x="1440" y="590" />
              <mxPoint x="1440" y="660" />
            </Array>
          </mxGeometry>
        </mxCell>
        <mxCell id="Ln7XQUvNqYD8yCebmWpK-74" style="edgeStyle=orthogonalEdgeStyle;rounded=0;orthogonalLoop=1;jettySize=auto;html=1;exitX=0.28;exitY=0.5;exitDx=0;exitDy=0;exitPerimeter=0;strokeWidth=1;fontFamily=Arial;fontSize=14;endArrow=none;endFill=0;dashed=1;align=center;fontStyle=2" parent="9BwAd8rwPp-84XcoNZzX-200" source="Ln7XQUvNqYD8yCebmWpK-56" edge="1">
          <mxGeometry relative="1" as="geometry">
            <mxPoint x="1400" y="680" as="targetPoint" />
            <Array as="points">
              <mxPoint x="1440" y="750" />
              <mxPoint x="1440" y="680" />
            </Array>
          </mxGeometry>
        </mxCell>
        <mxCell id="Ln7XQUvNqYD8yCebmWpK-126" style="edgeStyle=orthogonalEdgeStyle;rounded=0;orthogonalLoop=1;jettySize=auto;html=1;strokeWidth=1;fontFamily=Arial;fontSize=14;endArrow=none;endFill=0;exitX=0.28;exitY=0.5;exitDx=0;exitDy=0;exitPerimeter=0;dashed=1;align=center;fontStyle=2" parent="9BwAd8rwPp-84XcoNZzX-200" source="Ln7XQUvNqYD8yCebmWpK-108" target="Ln7XQUvNqYD8yCebmWpK-107" edge="1">
          <mxGeometry relative="1" as="geometry">
            <mxPoint x="1359" y="1047" as="targetPoint" />
            <Array as="points">
              <mxPoint x="1440" y="980" />
              <mxPoint x="1440" y="1050" />
            </Array>
          </mxGeometry>
        </mxCell>
        <mxCell id="Ln7XQUvNqYD8yCebmWpK-127" style="edgeStyle=orthogonalEdgeStyle;rounded=0;orthogonalLoop=1;jettySize=auto;html=1;exitX=0.28;exitY=0.5;exitDx=0;exitDy=0;exitPerimeter=0;strokeWidth=1;fontFamily=Arial;fontSize=14;endArrow=none;endFill=0;dashed=1;align=center;fontStyle=2" parent="9BwAd8rwPp-84XcoNZzX-200" source="Ln7XQUvNqYD8yCebmWpK-109" edge="1">
          <mxGeometry relative="1" as="geometry">
            <mxPoint x="1400" y="1070" as="targetPoint" />
            <Array as="points">
              <mxPoint x="1440" y="1140" />
              <mxPoint x="1440" y="1070" />
            </Array>
          </mxGeometry>
        </mxCell>
        <mxCell id="Ln7XQUvNqYD8yCebmWpK-156" style="edgeStyle=orthogonalEdgeStyle;rounded=0;orthogonalLoop=1;jettySize=auto;html=1;strokeWidth=1;fontFamily=Arial;fontSize=14;endArrow=none;endFill=0;dashed=1;align=center;fontStyle=2" parent="9BwAd8rwPp-84XcoNZzX-200" target="Ln7XQUvNqYD8yCebmWpK-152" edge="1">
          <mxGeometry relative="1" as="geometry">
            <mxPoint x="457.99999999999955" y="1087" as="targetPoint" />
            <mxPoint x="359.9999999999998" y="1140" as="sourcePoint" />
            <Array as="points">
              <mxPoint x="360" y="1140" />
              <mxPoint x="400" y="1140" />
              <mxPoint x="400" y="1070" />
            </Array>
          </mxGeometry>
        </mxCell>
        <mxCell id="Ln7XQUvNqYD8yCebmWpK-157" style="edgeStyle=orthogonalEdgeStyle;rounded=0;orthogonalLoop=1;jettySize=auto;html=1;strokeWidth=1;fontFamily=Arial;fontSize=14;endArrow=none;endFill=0;dashed=1;align=center;fontStyle=2" parent="9BwAd8rwPp-84XcoNZzX-200" edge="1">
          <mxGeometry relative="1" as="geometry">
            <mxPoint x="449.9999999999998" y="1050" as="targetPoint" />
            <mxPoint x="359.9999999999998" y="980" as="sourcePoint" />
            <Array as="points">
              <mxPoint x="400" y="980" />
              <mxPoint x="400" y="1050" />
              <mxPoint x="458" y="1050" />
            </Array>
          </mxGeometry>
        </mxCell>
        <mxCell id="IKqkC-VqAS8bh-hIaz8--2" value="" style="edgeStyle=orthogonalEdgeStyle;rounded=0;orthogonalLoop=1;jettySize=auto;html=1;strokeWidth=1;fontFamily=Arial;fontSize=14;endArrow=none;endFill=0;dashed=1;align=center;fontStyle=2" edge="1" parent="9BwAd8rwPp-84XcoNZzX-200">
          <mxGeometry relative="1" as="geometry">
            <mxPoint x="378.42935687690135" y="360" as="targetPoint" />
            <mxPoint x="360" y="360" as="sourcePoint" />
            <Array as="points">
              <mxPoint x="360" y="360" />
            </Array>
          </mxGeometry>
        </mxCell>
        <mxCell id="9BwAd8rwPp-84XcoNZzX-199" value="Проводные соединения" parent="0" />
        <mxCell id="Ox5Po6O9_LgIOVLj1sJk-14" value="" style="endArrow=none;html=1;rounded=0;strokeWidth=1;fontFamily=Arial;fontSize=14;exitX=0;exitY=1;exitDx=0;exitDy=0;align=center;fontStyle=2" parent="9BwAd8rwPp-84XcoNZzX-199" edge="1">
          <mxGeometry width="50" height="50" relative="1" as="geometry">
            <mxPoint x="800" y="1540" as="sourcePoint" />
            <mxPoint x="880" y="1540" as="targetPoint" />
          </mxGeometry>
        </mxCell>
        <mxCell id="0MDFwOMSwQNmZCORZw81-95" style="edgeStyle=orthogonalEdgeStyle;rounded=0;orthogonalLoop=1;jettySize=auto;html=1;strokeWidth=1;fontFamily=Arial;fontSize=14;endArrow=none;endFill=0;align=center;fontStyle=2" parent="9BwAd8rwPp-84XcoNZzX-199" edge="1">
          <mxGeometry relative="1" as="geometry">
            <mxPoint x="600" y="280" as="targetPoint" />
            <mxPoint x="520" y="280" as="sourcePoint" />
            <Array as="points">
              <mxPoint x="520" y="280" />
              <mxPoint x="520" y="280" />
            </Array>
          </mxGeometry>
        </mxCell>
        <mxCell id="0MDFwOMSwQNmZCORZw81-103" style="edgeStyle=orthogonalEdgeStyle;rounded=0;orthogonalLoop=1;jettySize=auto;html=1;strokeWidth=1;fontFamily=Arial;fontSize=14;endArrow=none;endFill=0;align=center;fontStyle=2" parent="9BwAd8rwPp-84XcoNZzX-199" source="0MDFwOMSwQNmZCORZw81-255" edge="1">
          <mxGeometry relative="1" as="geometry">
            <mxPoint x="1240" y="280" as="targetPoint" />
            <Array as="points">
              <mxPoint x="1280" y="281" />
            </Array>
          </mxGeometry>
        </mxCell>
        <mxCell id="oEqlLLCMxWZDDx5f_Mu--153" style="edgeStyle=orthogonalEdgeStyle;rounded=0;orthogonalLoop=1;jettySize=auto;html=1;strokeWidth=1;fontFamily=Arial;fontSize=14;endArrow=none;endFill=0;align=center;fontStyle=2" parent="9BwAd8rwPp-84XcoNZzX-199" edge="1">
          <mxGeometry relative="1" as="geometry">
            <mxPoint x="1720" y="1130" as="targetPoint" />
            <mxPoint x="1800" y="1130" as="sourcePoint" />
            <Array as="points">
              <mxPoint x="1790" y="1130" />
              <mxPoint x="1750" y="1130" />
            </Array>
          </mxGeometry>
        </mxCell>
        <mxCell id="oEqlLLCMxWZDDx5f_Mu--156" style="edgeStyle=orthogonalEdgeStyle;rounded=0;orthogonalLoop=1;jettySize=auto;html=1;strokeWidth=1;fontFamily=Arial;fontSize=14;endArrow=none;endFill=0;align=center;fontStyle=2" parent="9BwAd8rwPp-84XcoNZzX-199" edge="1">
          <mxGeometry relative="1" as="geometry">
            <mxPoint x="1880" y="1130" as="targetPoint" />
            <mxPoint x="1960" y="1130" as="sourcePoint" />
            <Array as="points">
              <mxPoint x="1950" y="1130" />
              <mxPoint x="1910" y="1130" />
            </Array>
          </mxGeometry>
        </mxCell>
        <mxCell id="oEqlLLCMxWZDDx5f_Mu--161" style="edgeStyle=orthogonalEdgeStyle;rounded=0;orthogonalLoop=1;jettySize=auto;html=1;fontSize=23;endArrow=none;endFill=0;fontFamily=Arial;exitX=0;exitY=1;exitDx=0;exitDy=0;align=center;fontStyle=2" parent="9BwAd8rwPp-84XcoNZzX-199" edge="1">
          <mxGeometry relative="1" as="geometry">
            <mxPoint x="800" y="1220" as="targetPoint" />
            <mxPoint x="800" y="1059.9999999999998" as="sourcePoint" />
          </mxGeometry>
        </mxCell>
        <mxCell id="oEqlLLCMxWZDDx5f_Mu--163" style="edgeStyle=orthogonalEdgeStyle;rounded=0;orthogonalLoop=1;jettySize=auto;html=1;fontSize=23;endArrow=none;endFill=0;fontFamily=Arial;align=center;fontStyle=2;strokeWidth=1;" parent="9BwAd8rwPp-84XcoNZzX-199" edge="1">
          <mxGeometry relative="1" as="geometry">
            <mxPoint x="760" y="1220" as="targetPoint" />
            <mxPoint x="760" y="670" as="sourcePoint" />
          </mxGeometry>
        </mxCell>
        <mxCell id="oEqlLLCMxWZDDx5f_Mu--164" style="edgeStyle=orthogonalEdgeStyle;rounded=0;orthogonalLoop=1;jettySize=auto;html=1;fontSize=23;endArrow=none;endFill=0;fontFamily=Arial;entryX=0;entryY=1;entryDx=0;entryDy=0;align=center;fontStyle=2" parent="9BwAd8rwPp-84XcoNZzX-199" target="0MDFwOMSwQNmZCORZw81-235" edge="1">
          <mxGeometry relative="1" as="geometry">
            <mxPoint x="720" y="1200" as="targetPoint" />
            <mxPoint x="720" y="280" as="sourcePoint" />
            <Array as="points">
              <mxPoint x="720" y="990" />
              <mxPoint x="720" y="990" />
            </Array>
          </mxGeometry>
        </mxCell>
        <mxCell id="oEqlLLCMxWZDDx5f_Mu--165" style="edgeStyle=orthogonalEdgeStyle;rounded=0;orthogonalLoop=1;jettySize=auto;html=1;fontSize=23;endArrow=none;endFill=0;fontFamily=Arial;align=center;fontStyle=2" parent="9BwAd8rwPp-84XcoNZzX-199" edge="1">
          <mxGeometry relative="1" as="geometry">
            <mxPoint x="680" y="1060" as="targetPoint" />
            <mxPoint x="680" y="670" as="sourcePoint" />
            <Array as="points">
              <mxPoint x="680" y="690" />
              <mxPoint x="680" y="690" />
            </Array>
          </mxGeometry>
        </mxCell>
        <mxCell id="oEqlLLCMxWZDDx5f_Mu--166" style="edgeStyle=orthogonalEdgeStyle;rounded=0;orthogonalLoop=1;jettySize=auto;html=1;fontSize=23;endArrow=none;endFill=0;fontFamily=Arial;entryX=0;entryY=1;entryDx=0;entryDy=0;align=center;fontStyle=2" parent="9BwAd8rwPp-84XcoNZzX-199" target="oEqlLLCMxWZDDx5f_Mu--104" edge="1">
          <mxGeometry relative="1" as="geometry">
            <mxPoint x="640" y="1040" as="targetPoint" />
            <mxPoint x="640" y="280" as="sourcePoint" />
            <Array as="points">
              <mxPoint x="640" y="860" />
              <mxPoint x="640" y="860" />
            </Array>
          </mxGeometry>
        </mxCell>
        <mxCell id="oEqlLLCMxWZDDx5f_Mu--167" style="edgeStyle=orthogonalEdgeStyle;rounded=0;orthogonalLoop=1;jettySize=auto;html=1;fontSize=23;endArrow=none;endFill=0;fontFamily=Arial;entryX=1;entryY=1;entryDx=0;entryDy=0;align=center;fontStyle=2" parent="9BwAd8rwPp-84XcoNZzX-199" target="Ln7XQUvNqYD8yCebmWpK-38" edge="1">
          <mxGeometry relative="1" as="geometry">
            <mxPoint x="600" y="620" as="targetPoint" />
            <mxPoint x="600" y="280" as="sourcePoint" />
            <Array as="points">
              <mxPoint x="600" y="540" />
              <mxPoint x="600" y="540" />
            </Array>
          </mxGeometry>
        </mxCell>
        <mxCell id="Ln7XQUvNqYD8yCebmWpK-41" style="edgeStyle=orthogonalEdgeStyle;rounded=0;orthogonalLoop=1;jettySize=auto;html=1;strokeWidth=1;fontFamily=Arial;fontSize=14;endArrow=none;endFill=0;align=center;fontStyle=2" parent="9BwAd8rwPp-84XcoNZzX-199" edge="1">
          <mxGeometry relative="1" as="geometry">
            <mxPoint x="599.9999999999998" y="670" as="targetPoint" />
            <mxPoint x="519.9999999999998" y="670" as="sourcePoint" />
            <Array as="points">
              <mxPoint x="520" y="670" />
              <mxPoint x="520" y="670" />
            </Array>
          </mxGeometry>
        </mxCell>
        <mxCell id="Ln7XQUvNqYD8yCebmWpK-75" style="edgeStyle=orthogonalEdgeStyle;rounded=0;orthogonalLoop=1;jettySize=auto;html=1;strokeWidth=1;fontFamily=Arial;fontSize=14;endArrow=none;endFill=0;align=center;fontStyle=2" parent="9BwAd8rwPp-84XcoNZzX-199" source="Ln7XQUvNqYD8yCebmWpK-54" edge="1">
          <mxGeometry relative="1" as="geometry">
            <mxPoint x="1240" y="670" as="targetPoint" />
            <Array as="points">
              <mxPoint x="1280" y="671" />
            </Array>
          </mxGeometry>
        </mxCell>
        <mxCell id="Ln7XQUvNqYD8yCebmWpK-128" style="edgeStyle=orthogonalEdgeStyle;rounded=0;orthogonalLoop=1;jettySize=auto;html=1;strokeWidth=1;fontFamily=Arial;fontSize=14;endArrow=none;endFill=0;align=center;fontStyle=2" parent="9BwAd8rwPp-84XcoNZzX-199" source="Ln7XQUvNqYD8yCebmWpK-107" edge="1">
          <mxGeometry relative="1" as="geometry">
            <mxPoint x="1240" y="1060" as="targetPoint" />
            <Array as="points">
              <mxPoint x="1280" y="1061" />
            </Array>
          </mxGeometry>
        </mxCell>
        <mxCell id="Ln7XQUvNqYD8yCebmWpK-158" style="edgeStyle=orthogonalEdgeStyle;rounded=0;orthogonalLoop=1;jettySize=auto;html=1;strokeWidth=1;fontFamily=Arial;fontSize=14;endArrow=none;endFill=0;align=center;fontStyle=2" parent="9BwAd8rwPp-84XcoNZzX-199" edge="1">
          <mxGeometry relative="1" as="geometry">
            <mxPoint x="599.9999999999998" y="1060" as="targetPoint" />
            <mxPoint x="519.9999999999998" y="1060" as="sourcePoint" />
            <Array as="points">
              <mxPoint x="520" y="1060" />
              <mxPoint x="520" y="1060" />
            </Array>
          </mxGeometry>
        </mxCell>
        <mxCell id="9BwAd8rwPp-84XcoNZzX-198" value="Шины" parent="0" />
        <mxCell id="Ox5Po6O9_LgIOVLj1sJk-16" style="edgeStyle=orthogonalEdgeStyle;rounded=0;orthogonalLoop=1;jettySize=auto;html=1;strokeWidth=3;fontFamily=Arial;fontSize=14;endArrow=none;endFill=0;align=center;fontStyle=2" parent="9BwAd8rwPp-84XcoNZzX-198" edge="1">
          <mxGeometry relative="1" as="geometry">
            <mxPoint x="800" y="1440" as="targetPoint" />
            <mxPoint x="880" y="1440" as="sourcePoint" />
          </mxGeometry>
        </mxCell>
        <mxCell id="oEqlLLCMxWZDDx5f_Mu--1" style="edgeStyle=orthogonalEdgeStyle;rounded=0;orthogonalLoop=1;jettySize=auto;html=1;fontSize=23;endArrow=none;endFill=0;strokeWidth=3;fontFamily=Arial;align=center;fontStyle=2" parent="9BwAd8rwPp-84XcoNZzX-198" edge="1">
          <mxGeometry relative="1" as="geometry">
            <mxPoint x="920" y="280" as="sourcePoint" />
            <mxPoint x="1240" y="280" as="targetPoint" />
            <Array as="points">
              <mxPoint x="1070" y="280" />
              <mxPoint x="1070" y="280" />
            </Array>
          </mxGeometry>
        </mxCell>
        <mxCell id="oEqlLLCMxWZDDx5f_Mu--2" style="edgeStyle=orthogonalEdgeStyle;rounded=0;orthogonalLoop=1;jettySize=auto;html=1;fontSize=23;endArrow=none;endFill=0;strokeWidth=3;fontFamily=Arial;entryX=0;entryY=0.5;entryDx=0;entryDy=0;entryPerimeter=0;align=center;fontStyle=2" parent="9BwAd8rwPp-84XcoNZzX-198" target="0MDFwOMSwQNmZCORZw81-246" edge="1">
          <mxGeometry relative="1" as="geometry">
            <mxPoint x="600" y="280" as="sourcePoint" />
            <mxPoint x="830" y="280" as="targetPoint" />
            <Array as="points">
              <mxPoint x="770" y="280" />
            </Array>
          </mxGeometry>
        </mxCell>
        <mxCell id="oEqlLLCMxWZDDx5f_Mu--51" style="edgeStyle=orthogonalEdgeStyle;rounded=0;orthogonalLoop=1;jettySize=auto;html=1;fontSize=23;endArrow=none;endFill=0;strokeWidth=3;fontFamily=Arial;entryX=0;entryY=0.5;entryDx=0;entryDy=0;entryPerimeter=0;align=center;fontStyle=2" parent="9BwAd8rwPp-84XcoNZzX-198" edge="1">
          <mxGeometry relative="1" as="geometry">
            <mxPoint x="600" y="670" as="sourcePoint" />
            <mxPoint x="840" y="670.0935" as="targetPoint" />
            <Array as="points">
              <mxPoint x="780" y="670" />
              <mxPoint x="780" y="670" />
            </Array>
          </mxGeometry>
        </mxCell>
        <mxCell id="oEqlLLCMxWZDDx5f_Mu--114" style="edgeStyle=orthogonalEdgeStyle;rounded=0;orthogonalLoop=1;jettySize=auto;html=1;fontSize=23;endArrow=none;endFill=0;strokeWidth=3;fontFamily=Arial;entryX=0;entryY=0.5;entryDx=0;entryDy=0;entryPerimeter=0;align=center;fontStyle=2" parent="9BwAd8rwPp-84XcoNZzX-198" edge="1">
          <mxGeometry relative="1" as="geometry">
            <mxPoint x="600" y="1060" as="sourcePoint" />
            <mxPoint x="840" y="1060.0934999999995" as="targetPoint" />
            <Array as="points">
              <mxPoint x="780" y="1060" />
              <mxPoint x="780" y="1060" />
            </Array>
          </mxGeometry>
        </mxCell>
        <mxCell id="oEqlLLCMxWZDDx5f_Mu--157" style="edgeStyle=orthogonalEdgeStyle;rounded=0;orthogonalLoop=1;jettySize=auto;html=1;fontSize=23;endArrow=none;endFill=0;strokeWidth=3;fontFamily=Arial;align=center;fontStyle=2" parent="9BwAd8rwPp-84XcoNZzX-198" edge="1">
          <mxGeometry relative="1" as="geometry">
            <mxPoint x="720" y="1220" as="sourcePoint" />
            <mxPoint x="1840" y="1150" as="targetPoint" />
            <Array as="points">
              <mxPoint x="1840" y="1220" />
            </Array>
          </mxGeometry>
        </mxCell>
        <mxCell id="Ln7XQUvNqYD8yCebmWpK-76" style="edgeStyle=orthogonalEdgeStyle;rounded=0;orthogonalLoop=1;jettySize=auto;html=1;fontSize=23;endArrow=none;endFill=0;strokeWidth=3;fontFamily=Arial;align=center;fontStyle=2" parent="9BwAd8rwPp-84XcoNZzX-198" edge="1">
          <mxGeometry relative="1" as="geometry">
            <mxPoint x="920" y="670" as="sourcePoint" />
            <mxPoint x="1240" y="670" as="targetPoint" />
            <Array as="points">
              <mxPoint x="1070" y="670" />
              <mxPoint x="1070" y="670" />
            </Array>
          </mxGeometry>
        </mxCell>
        <mxCell id="Ln7XQUvNqYD8yCebmWpK-129" style="edgeStyle=orthogonalEdgeStyle;rounded=0;orthogonalLoop=1;jettySize=auto;html=1;fontSize=23;endArrow=none;endFill=0;strokeWidth=3;fontFamily=Arial;align=center;fontStyle=2" parent="9BwAd8rwPp-84XcoNZzX-198" edge="1">
          <mxGeometry relative="1" as="geometry">
            <mxPoint x="920" y="1060" as="sourcePoint" />
            <mxPoint x="1240" y="1060" as="targetPoint" />
            <Array as="points">
              <mxPoint x="1070" y="1060" />
              <mxPoint x="1070" y="1060" />
            </Array>
          </mxGeometry>
        </mxCell>
        <mxCell id="9BwAd8rwPp-84XcoNZzX-201" value="Названия" style="" parent="0" />
        <mxCell id="0MDFwOMSwQNmZCORZw81-140" value="Laptop 3-5" style="text;html=1;strokeColor=none;fillColor=none;align=center;verticalAlign=middle;whiteSpace=wrap;rounded=0;dashed=1;fillStyle=auto;strokeWidth=2;fontFamily=Arial;fontSize=14;fontStyle=2;container=0;" parent="9BwAd8rwPp-84XcoNZzX-201" vertex="1">
          <mxGeometry x="280" y="310" width="80" height="20" as="geometry" />
        </mxCell>
        <mxCell id="0MDFwOMSwQNmZCORZw81-139" value="Laptop 3-1" style="text;html=1;strokeColor=none;fillColor=none;align=center;verticalAlign=middle;whiteSpace=wrap;rounded=0;dashed=1;fillStyle=auto;strokeWidth=2;fontFamily=Arial;fontSize=14;fontStyle=2;container=0;" parent="9BwAd8rwPp-84XcoNZzX-201" vertex="1">
          <mxGeometry x="280" y="150" width="80" height="20" as="geometry" />
        </mxCell>
        <mxCell id="0MDFwOMSwQNmZCORZw81-161" value="AP 3-1" style="text;html=1;strokeColor=none;fillColor=none;align=center;verticalAlign=middle;whiteSpace=wrap;rounded=0;dashed=1;fillStyle=auto;strokeWidth=2;fontFamily=Arial;fontSize=14;fontStyle=2" parent="9BwAd8rwPp-84XcoNZzX-201" vertex="1">
          <mxGeometry x="440" y="240" width="80" height="20" as="geometry" />
        </mxCell>
        <mxCell id="0MDFwOMSwQNmZCORZw81-183" value="&lt;span&gt;&lt;font style=&quot;font-size: 24px;&quot;&gt;...&lt;/font&gt;&lt;/span&gt;" style="text;html=1;align=center;verticalAlign=middle;resizable=0;points=[];autosize=1;strokeColor=none;fillColor=none;fontSize=23;fontFamily=Arial;container=0;fontStyle=2" parent="9BwAd8rwPp-84XcoNZzX-201" vertex="1">
          <mxGeometry x="300" y="260.0000000000002" width="40" height="40" as="geometry" />
        </mxCell>
        <mxCell id="0MDFwOMSwQNmZCORZw81-164" value="Switch3" style="text;html=1;strokeColor=none;fillColor=none;align=center;verticalAlign=middle;whiteSpace=wrap;rounded=0;dashed=1;fillStyle=auto;strokeWidth=2;fontFamily=Arial;fontSize=14;fontStyle=2" parent="9BwAd8rwPp-84XcoNZzX-201" vertex="1">
          <mxGeometry x="840" y="240" width="80" height="20" as="geometry" />
        </mxCell>
        <mxCell id="0MDFwOMSwQNmZCORZw81-173" value="Router" style="text;html=1;strokeColor=none;fillColor=none;align=center;verticalAlign=middle;whiteSpace=wrap;rounded=0;dashed=1;fillStyle=auto;strokeWidth=2;fontFamily=Arial;fontSize=14;fontStyle=2" parent="9BwAd8rwPp-84XcoNZzX-201" vertex="1">
          <mxGeometry x="1800" y="1060" width="80" height="30" as="geometry" />
        </mxCell>
        <mxCell id="0MDFwOMSwQNmZCORZw81-179" value="Modem" style="text;html=1;strokeColor=none;fillColor=none;align=center;verticalAlign=middle;whiteSpace=wrap;rounded=0;dashed=1;fillStyle=auto;strokeWidth=2;fontFamily=Arial;fontSize=14;fontStyle=2" parent="9BwAd8rwPp-84XcoNZzX-201" vertex="1">
          <mxGeometry x="1960" y="1060" width="79.9211" height="30" as="geometry" />
        </mxCell>
        <mxCell id="0MDFwOMSwQNmZCORZw81-137" value="Laptop 3-6" style="text;html=1;strokeColor=none;fillColor=none;align=center;verticalAlign=middle;whiteSpace=wrap;rounded=0;dashed=1;fillStyle=auto;strokeWidth=2;fontFamily=Arial;fontSize=14;fontStyle=2" parent="9BwAd8rwPp-84XcoNZzX-201" vertex="1">
          <mxGeometry x="1480" y="150" width="80" height="20" as="geometry" />
        </mxCell>
        <mxCell id="0MDFwOMSwQNmZCORZw81-138" value="Laptop 3-10" style="text;html=1;strokeColor=none;fillColor=none;align=center;verticalAlign=middle;whiteSpace=wrap;rounded=0;dashed=1;fillStyle=auto;strokeWidth=2;fontFamily=Arial;fontSize=14;fontStyle=2" parent="9BwAd8rwPp-84XcoNZzX-201" vertex="1">
          <mxGeometry x="1480" y="310" width="80" height="20" as="geometry" />
        </mxCell>
        <mxCell id="0MDFwOMSwQNmZCORZw81-188" value="&lt;span&gt;&lt;font style=&quot;font-size: 24px;&quot;&gt;...&lt;/font&gt;&lt;/span&gt;" style="text;html=1;align=center;verticalAlign=middle;resizable=0;points=[];autosize=1;strokeColor=none;fillColor=none;fontSize=23;fontFamily=Arial;fontStyle=2" parent="9BwAd8rwPp-84XcoNZzX-201" vertex="1">
          <mxGeometry x="1500" y="260.0000000000002" width="40" height="40" as="geometry" />
        </mxCell>
        <mxCell id="0MDFwOMSwQNmZCORZw81-132" value="PC 3-20" style="text;html=1;strokeColor=none;fillColor=none;align=center;verticalAlign=middle;whiteSpace=wrap;rounded=0;dashed=1;fillStyle=auto;strokeWidth=2;fontFamily=Arial;fontSize=14;fontStyle=2" parent="9BwAd8rwPp-84XcoNZzX-201" vertex="1">
          <mxGeometry x="1159" y="150" width="80" height="20" as="geometry" />
        </mxCell>
        <mxCell id="0MDFwOMSwQNmZCORZw81-131" value="PC 3-5" style="text;html=1;strokeColor=none;fillColor=none;align=center;verticalAlign=middle;whiteSpace=wrap;rounded=0;dashed=1;fillStyle=auto;strokeWidth=2;fontFamily=Arial;fontSize=14;fontStyle=2" parent="9BwAd8rwPp-84XcoNZzX-201" vertex="1">
          <mxGeometry x="999" y="150" width="80" height="20" as="geometry" />
        </mxCell>
        <mxCell id="0MDFwOMSwQNmZCORZw81-135" value="AP 3-2" style="text;html=1;strokeColor=none;fillColor=none;align=center;verticalAlign=middle;whiteSpace=wrap;rounded=0;dashed=1;fillStyle=auto;strokeWidth=2;fontFamily=Arial;fontSize=14;fontStyle=2" parent="9BwAd8rwPp-84XcoNZzX-201" vertex="1">
          <mxGeometry x="1320" y="240" width="80" height="20" as="geometry" />
        </mxCell>
        <mxCell id="Ox5Po6O9_LgIOVLj1sJk-6" value="Server" style="text;html=1;strokeColor=none;fillColor=none;align=center;verticalAlign=middle;whiteSpace=wrap;rounded=0;dashed=1;fillStyle=auto;strokeWidth=2;fontFamily=Arial;fontSize=14;fontStyle=2" parent="9BwAd8rwPp-84XcoNZzX-201" vertex="1">
          <mxGeometry x="1640" y="1060" width="80" height="30" as="geometry" />
        </mxCell>
        <mxCell id="0MDFwOMSwQNmZCORZw81-136" value="P 3-4" style="text;html=1;strokeColor=none;fillColor=none;align=center;verticalAlign=middle;whiteSpace=wrap;rounded=0;dashed=1;fillStyle=auto;strokeWidth=2;fontFamily=Arial;fontSize=14;fontStyle=2" parent="9BwAd8rwPp-84XcoNZzX-201" vertex="1">
          <mxGeometry x="1320" y="320" width="80" height="20" as="geometry" />
        </mxCell>
        <mxCell id="0MDFwOMSwQNmZCORZw81-133" value="&lt;span&gt;&lt;font style=&quot;font-size: 24px;&quot;&gt;...&lt;/font&gt;&lt;/span&gt;" style="text;html=1;align=center;verticalAlign=middle;resizable=0;points=[];autosize=1;strokeColor=none;fillColor=none;fontSize=23;fontFamily=Arial;fontStyle=2" parent="9BwAd8rwPp-84XcoNZzX-201" vertex="1">
          <mxGeometry x="1099" y="187.0000000000001" width="40" height="40" as="geometry" />
        </mxCell>
        <mxCell id="0MDFwOMSwQNmZCORZw81-134" value="P 3-1" style="text;html=1;strokeColor=none;fillColor=none;align=center;verticalAlign=middle;whiteSpace=wrap;rounded=0;dashed=1;fillStyle=auto;strokeWidth=2;fontFamily=Arial;fontSize=14;fontStyle=2" parent="9BwAd8rwPp-84XcoNZzX-201" vertex="1">
          <mxGeometry x="840" y="320" width="80" height="20" as="geometry" />
        </mxCell>
        <mxCell id="0MDFwOMSwQNmZCORZw81-165" value="Коммутатор" style="text;html=1;strokeColor=none;fillColor=none;align=center;verticalAlign=bottom;whiteSpace=wrap;rounded=0;dashed=1;fillStyle=auto;strokeWidth=2;fontFamily=Arial;fontSize=14;fontStyle=2;container=0;" parent="9BwAd8rwPp-84XcoNZzX-201" vertex="1">
          <mxGeometry x="400" y="1390" width="80" height="30" as="geometry" />
        </mxCell>
        <mxCell id="0MDFwOMSwQNmZCORZw81-166" value="Модем" style="text;html=1;strokeColor=none;fillColor=none;align=center;verticalAlign=bottom;whiteSpace=wrap;rounded=0;dashed=1;fillStyle=auto;strokeWidth=2;fontFamily=Arial;fontSize=14;fontStyle=2;container=0;" parent="9BwAd8rwPp-84XcoNZzX-201" vertex="1">
          <mxGeometry x="80" y="1390" width="80" height="30" as="geometry" />
        </mxCell>
        <mxCell id="0MDFwOMSwQNmZCORZw81-167" value="Маршрутизатор" style="text;html=1;strokeColor=none;fillColor=none;align=center;verticalAlign=bottom;whiteSpace=wrap;rounded=0;dashed=1;fillStyle=auto;strokeWidth=2;fontFamily=Arial;fontSize=14;fontStyle=2;container=0;" parent="9BwAd8rwPp-84XcoNZzX-201" vertex="1">
          <mxGeometry x="560" y="1390" width="80" height="30" as="geometry" />
        </mxCell>
        <mxCell id="0MDFwOMSwQNmZCORZw81-168" value="Беспроводная точка доступа" style="text;html=1;strokeColor=none;fillColor=none;align=center;verticalAlign=bottom;whiteSpace=wrap;rounded=0;dashed=1;fillStyle=auto;strokeWidth=2;fontFamily=Arial;fontSize=14;fontStyle=2;container=0;" parent="9BwAd8rwPp-84XcoNZzX-201" vertex="1">
          <mxGeometry x="240" y="1390" width="80" height="30" as="geometry" />
        </mxCell>
        <mxCell id="0MDFwOMSwQNmZCORZw81-169" value="Беспроводное устройство" style="text;html=1;strokeColor=none;fillColor=none;align=center;verticalAlign=bottom;whiteSpace=wrap;rounded=0;dashed=1;fillStyle=auto;strokeWidth=2;fontFamily=Arial;fontSize=14;fontStyle=2;container=0;" parent="9BwAd8rwPp-84XcoNZzX-201" vertex="1">
          <mxGeometry x="240" y="1510" width="80" height="30" as="geometry" />
        </mxCell>
        <mxCell id="0MDFwOMSwQNmZCORZw81-170" value="Рабочая станция" style="text;html=1;strokeColor=none;fillColor=none;align=center;verticalAlign=bottom;whiteSpace=wrap;rounded=0;dashed=1;fillStyle=auto;strokeWidth=2;fontFamily=Arial;fontSize=14;fontStyle=2;container=0;" parent="9BwAd8rwPp-84XcoNZzX-201" vertex="1">
          <mxGeometry x="380" y="1490.0000000000002" width="120" height="30" as="geometry" />
        </mxCell>
        <mxCell id="0MDFwOMSwQNmZCORZw81-175" value="Принтер" style="text;html=1;strokeColor=none;fillColor=none;align=center;verticalAlign=bottom;whiteSpace=wrap;rounded=0;dashed=1;fillStyle=auto;strokeWidth=2;fontFamily=Arial;fontSize=14;fontStyle=2;container=0;" parent="9BwAd8rwPp-84XcoNZzX-201" vertex="1">
          <mxGeometry x="80" y="1510" width="80" height="30" as="geometry" />
        </mxCell>
        <mxCell id="0MDFwOMSwQNmZCORZw81-176" value="Web-сервер" style="text;html=1;strokeColor=none;fillColor=none;align=center;verticalAlign=bottom;whiteSpace=wrap;rounded=0;dashed=1;fillStyle=auto;strokeWidth=2;fontFamily=Arial;fontSize=14;fontStyle=2;container=0;" parent="9BwAd8rwPp-84XcoNZzX-201" vertex="1">
          <mxGeometry x="550" y="1490.3600000000001" width="100" height="30" as="geometry" />
        </mxCell>
        <mxCell id="Ox5Po6O9_LgIOVLj1sJk-18" value="Витая пара категории 5e" style="text;html=1;strokeColor=none;fillColor=none;align=center;verticalAlign=bottom;whiteSpace=wrap;rounded=0;dashed=1;fillStyle=auto;strokeWidth=2;fontFamily=Arial;fontSize=14;fontStyle=2;container=0;" parent="9BwAd8rwPp-84XcoNZzX-201" vertex="1">
          <mxGeometry x="720" y="1500" width="240" height="30" as="geometry" />
        </mxCell>
        <mxCell id="Ox5Po6O9_LgIOVLj1sJk-19" value="Шина" style="text;html=1;strokeColor=none;fillColor=none;align=center;verticalAlign=bottom;whiteSpace=wrap;rounded=0;dashed=1;fillStyle=auto;strokeWidth=2;fontFamily=Arial;fontSize=14;fontStyle=2;container=0;" parent="9BwAd8rwPp-84XcoNZzX-201" vertex="1">
          <mxGeometry x="760" y="1400" width="160" height="30" as="geometry" />
        </mxCell>
        <mxCell id="oEqlLLCMxWZDDx5f_Mu--4" value="&lt;span&gt;&lt;font style=&quot;font-size: 24px;&quot;&gt;...&lt;/font&gt;&lt;/span&gt;" style="text;html=1;align=center;verticalAlign=middle;resizable=0;points=[];autosize=1;strokeColor=none;fillColor=none;fontSize=23;fontFamily=Arial;fontStyle=2" parent="9BwAd8rwPp-84XcoNZzX-201" vertex="1">
          <mxGeometry x="1099" y="337.0000000000001" width="40" height="40" as="geometry" />
        </mxCell>
        <mxCell id="oEqlLLCMxWZDDx5f_Mu--5" value="LaptopModel" style="text;html=1;strokeColor=none;fillColor=none;align=center;verticalAlign=middle;whiteSpace=wrap;rounded=0;dashed=1;fillStyle=auto;strokeWidth=2;fontFamily=Arial;fontSize=14;fontStyle=2;container=0;" parent="9BwAd8rwPp-84XcoNZzX-201" vertex="1">
          <mxGeometry x="280" y="230" width="80" height="20" as="geometry" />
        </mxCell>
        <mxCell id="oEqlLLCMxWZDDx5f_Mu--6" value="LaptopModel" style="text;html=1;strokeColor=none;fillColor=none;align=center;verticalAlign=middle;whiteSpace=wrap;rounded=0;dashed=1;fillStyle=auto;strokeWidth=2;fontFamily=Arial;fontSize=14;fontStyle=2;container=0;" parent="9BwAd8rwPp-84XcoNZzX-201" vertex="1">
          <mxGeometry x="280" y="390" width="80" height="20" as="geometry" />
        </mxCell>
        <mxCell id="oEqlLLCMxWZDDx5f_Mu--7" value="AccessPointModel" style="text;html=1;strokeColor=none;fillColor=none;align=center;verticalAlign=middle;whiteSpace=wrap;rounded=0;dashed=1;fillStyle=auto;strokeWidth=2;fontFamily=Arial;fontSize=14;fontStyle=2;container=0;" parent="9BwAd8rwPp-84XcoNZzX-201" vertex="1">
          <mxGeometry x="440" y="300" width="80" height="20" as="geometry" />
        </mxCell>
        <mxCell id="oEqlLLCMxWZDDx5f_Mu--8" value="SwitchModel" style="text;html=1;strokeColor=none;fillColor=none;align=center;verticalAlign=middle;whiteSpace=wrap;rounded=0;dashed=1;fillStyle=auto;strokeWidth=2;fontFamily=Arial;fontSize=14;fontStyle=2;container=0;" parent="9BwAd8rwPp-84XcoNZzX-201" vertex="1">
          <mxGeometry x="840" y="300" width="80" height="23" as="geometry" />
        </mxCell>
        <mxCell id="oEqlLLCMxWZDDx5f_Mu--9" value="PrinterModel" style="text;html=1;strokeColor=none;fillColor=none;align=center;verticalAlign=middle;whiteSpace=wrap;rounded=0;dashed=1;fillStyle=auto;strokeWidth=2;fontFamily=Arial;fontSize=14;fontStyle=2;container=0;" parent="9BwAd8rwPp-84XcoNZzX-201" vertex="1">
          <mxGeometry x="839" y="380" width="80" height="20" as="geometry" />
        </mxCell>
        <mxCell id="oEqlLLCMxWZDDx5f_Mu--10" value="PrinterModel" style="text;html=1;strokeColor=none;fillColor=none;align=center;verticalAlign=middle;whiteSpace=wrap;rounded=0;dashed=1;fillStyle=auto;strokeWidth=2;fontFamily=Arial;fontSize=14;fontStyle=2;container=0;" parent="9BwAd8rwPp-84XcoNZzX-201" vertex="1">
          <mxGeometry x="1319" y="377" width="80" height="23" as="geometry" />
        </mxCell>
        <mxCell id="oEqlLLCMxWZDDx5f_Mu--11" value="AccessPointModel" style="text;html=1;strokeColor=none;fillColor=none;align=center;verticalAlign=middle;whiteSpace=wrap;rounded=0;dashed=1;fillStyle=auto;strokeWidth=2;fontFamily=Arial;fontSize=14;fontStyle=2;container=0;" parent="9BwAd8rwPp-84XcoNZzX-201" vertex="1">
          <mxGeometry x="1320" y="300" width="80" height="20" as="geometry" />
        </mxCell>
        <mxCell id="oEqlLLCMxWZDDx5f_Mu--12" value="LaptopModel" style="text;html=1;strokeColor=none;fillColor=none;align=center;verticalAlign=middle;whiteSpace=wrap;rounded=0;dashed=1;fillStyle=auto;strokeWidth=2;fontFamily=Arial;fontSize=14;fontStyle=2;container=0;" parent="9BwAd8rwPp-84XcoNZzX-201" vertex="1">
          <mxGeometry x="1480" y="230" width="80" height="20" as="geometry" />
        </mxCell>
        <mxCell id="oEqlLLCMxWZDDx5f_Mu--13" value="LaptopModel" style="text;html=1;strokeColor=none;fillColor=none;align=center;verticalAlign=middle;whiteSpace=wrap;rounded=0;dashed=1;fillStyle=auto;strokeWidth=2;fontFamily=Arial;fontSize=14;fontStyle=2;container=0;" parent="9BwAd8rwPp-84XcoNZzX-201" vertex="1">
          <mxGeometry x="1480" y="390" width="80" height="20" as="geometry" />
        </mxCell>
        <mxCell id="oEqlLLCMxWZDDx5f_Mu--149" value="ServerModel" style="text;html=1;strokeColor=none;fillColor=none;align=center;verticalAlign=middle;whiteSpace=wrap;rounded=0;dashed=1;fillStyle=auto;strokeWidth=2;fontFamily=Arial;fontSize=14;fontStyle=2;container=0;" parent="9BwAd8rwPp-84XcoNZzX-201" vertex="1">
          <mxGeometry x="1640" y="1170" width="80" height="30" as="geometry" />
        </mxCell>
        <mxCell id="oEqlLLCMxWZDDx5f_Mu--150" value="HPE FlexNetwork MSR1003 8S" style="text;html=1;strokeColor=none;fillColor=none;align=center;verticalAlign=middle;whiteSpace=wrap;rounded=0;dashed=1;fillStyle=auto;strokeWidth=2;fontFamily=Arial;fontSize=14;fontStyle=2;container=0;" parent="9BwAd8rwPp-84XcoNZzX-201" vertex="1">
          <mxGeometry x="1760" y="1170" width="80" height="30" as="geometry" />
        </mxCell>
        <mxCell id="oEqlLLCMxWZDDx5f_Mu--152" value="TP-Link TD-8616" style="text;html=1;strokeColor=none;fillColor=none;align=center;verticalAlign=middle;whiteSpace=wrap;rounded=0;dashed=1;fillStyle=auto;strokeWidth=2;fontFamily=Arial;fontSize=14;fontStyle=2;container=0;" parent="9BwAd8rwPp-84XcoNZzX-201" vertex="1">
          <mxGeometry x="1960" y="1170" width="80" height="30" as="geometry" />
        </mxCell>
        <mxCell id="Ln7XQUvNqYD8yCebmWpK-6" value="PCModel" style="text;html=1;strokeColor=none;fillColor=none;align=center;verticalAlign=middle;whiteSpace=wrap;rounded=0;dashed=1;fillStyle=auto;strokeWidth=2;fontFamily=Arial;fontSize=14;fontStyle=2;container=0;" parent="9BwAd8rwPp-84XcoNZzX-201" vertex="1">
          <mxGeometry x="1100" y="240" width="100" height="20" as="geometry" />
        </mxCell>
        <mxCell id="Ln7XQUvNqYD8yCebmWpK-7" value="PCModel" style="text;html=1;strokeColor=none;fillColor=none;align=center;verticalAlign=middle;whiteSpace=wrap;rounded=0;dashed=1;fillStyle=auto;strokeWidth=2;fontFamily=Arial;fontSize=14;fontStyle=2;container=0;" parent="9BwAd8rwPp-84XcoNZzX-201" vertex="1">
          <mxGeometry x="940" y="240" width="100" height="20" as="geometry" />
        </mxCell>
        <mxCell id="Ln7XQUvNqYD8yCebmWpK-18" value="PC 3-1" style="text;html=1;strokeColor=none;fillColor=none;align=center;verticalAlign=middle;whiteSpace=wrap;rounded=0;dashed=1;fillStyle=auto;strokeWidth=2;fontFamily=Arial;fontSize=14;fontStyle=2" parent="9BwAd8rwPp-84XcoNZzX-201" vertex="1">
          <mxGeometry x="959" y="310" width="80" height="20" as="geometry" />
        </mxCell>
        <mxCell id="Ln7XQUvNqYD8yCebmWpK-26" value="PC 3-4" style="text;html=1;strokeColor=none;fillColor=none;align=center;verticalAlign=middle;whiteSpace=wrap;rounded=0;dashed=1;fillStyle=auto;strokeWidth=2;fontFamily=Arial;fontSize=14;fontStyle=2" parent="9BwAd8rwPp-84XcoNZzX-201" vertex="1">
          <mxGeometry x="1119" y="310" width="80" height="20" as="geometry" />
        </mxCell>
        <mxCell id="Ln7XQUvNqYD8yCebmWpK-42" value="Laptop 2-5" style="text;html=1;strokeColor=none;fillColor=none;align=center;verticalAlign=middle;whiteSpace=wrap;rounded=0;dashed=1;fillStyle=auto;strokeWidth=2;fontFamily=Arial;fontSize=14;fontStyle=2;container=0;" parent="9BwAd8rwPp-84XcoNZzX-201" vertex="1">
          <mxGeometry x="280" y="700" width="80" height="20" as="geometry" />
        </mxCell>
        <mxCell id="Ln7XQUvNqYD8yCebmWpK-43" value="Laptop 2-1" style="text;html=1;strokeColor=none;fillColor=none;align=center;verticalAlign=middle;whiteSpace=wrap;rounded=0;dashed=1;fillStyle=auto;strokeWidth=2;fontFamily=Arial;fontSize=14;fontStyle=2;container=0;" parent="9BwAd8rwPp-84XcoNZzX-201" vertex="1">
          <mxGeometry x="280" y="540" width="80" height="20" as="geometry" />
        </mxCell>
        <mxCell id="Ln7XQUvNqYD8yCebmWpK-44" value="AP 2-1" style="text;html=1;strokeColor=none;fillColor=none;align=center;verticalAlign=middle;whiteSpace=wrap;rounded=0;dashed=1;fillStyle=auto;strokeWidth=2;fontFamily=Arial;fontSize=14;fontStyle=2" parent="9BwAd8rwPp-84XcoNZzX-201" vertex="1">
          <mxGeometry x="440" y="630" width="80" height="20" as="geometry" />
        </mxCell>
        <mxCell id="Ln7XQUvNqYD8yCebmWpK-45" value="&lt;span&gt;&lt;font style=&quot;font-size: 24px;&quot;&gt;...&lt;/font&gt;&lt;/span&gt;" style="text;html=1;align=center;verticalAlign=middle;resizable=0;points=[];autosize=1;strokeColor=none;fillColor=none;fontSize=23;fontFamily=Arial;container=0;fontStyle=2" parent="9BwAd8rwPp-84XcoNZzX-201" vertex="1">
          <mxGeometry x="300" y="650.0000000000002" width="40" height="40" as="geometry" />
        </mxCell>
        <mxCell id="Ln7XQUvNqYD8yCebmWpK-46" value="LaptopModel" style="text;html=1;strokeColor=none;fillColor=none;align=center;verticalAlign=middle;whiteSpace=wrap;rounded=0;dashed=1;fillStyle=auto;strokeWidth=2;fontFamily=Arial;fontSize=14;fontStyle=2;container=0;" parent="9BwAd8rwPp-84XcoNZzX-201" vertex="1">
          <mxGeometry x="280" y="620" width="80" height="20" as="geometry" />
        </mxCell>
        <mxCell id="Ln7XQUvNqYD8yCebmWpK-47" value="LaptopModel" style="text;html=1;strokeColor=none;fillColor=none;align=center;verticalAlign=middle;whiteSpace=wrap;rounded=0;dashed=1;fillStyle=auto;strokeWidth=2;fontFamily=Arial;fontSize=14;fontStyle=2;container=0;" parent="9BwAd8rwPp-84XcoNZzX-201" vertex="1">
          <mxGeometry x="280" y="780" width="80" height="20" as="geometry" />
        </mxCell>
        <mxCell id="Ln7XQUvNqYD8yCebmWpK-48" value="AccessPointModel" style="text;html=1;strokeColor=none;fillColor=none;align=center;verticalAlign=middle;whiteSpace=wrap;rounded=0;dashed=1;fillStyle=auto;strokeWidth=2;fontFamily=Arial;fontSize=14;fontStyle=2;container=0;" parent="9BwAd8rwPp-84XcoNZzX-201" vertex="1">
          <mxGeometry x="440" y="690" width="80" height="20" as="geometry" />
        </mxCell>
        <mxCell id="Ln7XQUvNqYD8yCebmWpK-77" value="Switch2" style="text;html=1;strokeColor=none;fillColor=none;align=center;verticalAlign=middle;whiteSpace=wrap;rounded=0;dashed=1;fillStyle=auto;strokeWidth=2;fontFamily=Arial;fontSize=14;fontStyle=2" parent="9BwAd8rwPp-84XcoNZzX-201" vertex="1">
          <mxGeometry x="840" y="630" width="80" height="20" as="geometry" />
        </mxCell>
        <mxCell id="Ln7XQUvNqYD8yCebmWpK-78" value="Laptop 2-6" style="text;html=1;strokeColor=none;fillColor=none;align=center;verticalAlign=middle;whiteSpace=wrap;rounded=0;dashed=1;fillStyle=auto;strokeWidth=2;fontFamily=Arial;fontSize=14;fontStyle=2" parent="9BwAd8rwPp-84XcoNZzX-201" vertex="1">
          <mxGeometry x="1480" y="540" width="80" height="20" as="geometry" />
        </mxCell>
        <mxCell id="Ln7XQUvNqYD8yCebmWpK-79" value="Laptop 2-10" style="text;html=1;strokeColor=none;fillColor=none;align=center;verticalAlign=middle;whiteSpace=wrap;rounded=0;dashed=1;fillStyle=auto;strokeWidth=2;fontFamily=Arial;fontSize=14;fontStyle=2" parent="9BwAd8rwPp-84XcoNZzX-201" vertex="1">
          <mxGeometry x="1480" y="700" width="80" height="20" as="geometry" />
        </mxCell>
        <mxCell id="Ln7XQUvNqYD8yCebmWpK-80" value="&lt;span&gt;&lt;font style=&quot;font-size: 24px;&quot;&gt;...&lt;/font&gt;&lt;/span&gt;" style="text;html=1;align=center;verticalAlign=middle;resizable=0;points=[];autosize=1;strokeColor=none;fillColor=none;fontSize=23;fontFamily=Arial;fontStyle=2" parent="9BwAd8rwPp-84XcoNZzX-201" vertex="1">
          <mxGeometry x="1500" y="650.0000000000002" width="40" height="40" as="geometry" />
        </mxCell>
        <mxCell id="Ln7XQUvNqYD8yCebmWpK-81" value="PC 2-20" style="text;html=1;strokeColor=none;fillColor=none;align=center;verticalAlign=middle;whiteSpace=wrap;rounded=0;dashed=1;fillStyle=auto;strokeWidth=2;fontFamily=Arial;fontSize=14;fontStyle=2" parent="9BwAd8rwPp-84XcoNZzX-201" vertex="1">
          <mxGeometry x="1159" y="540" width="80" height="20" as="geometry" />
        </mxCell>
        <mxCell id="Ln7XQUvNqYD8yCebmWpK-82" value="PC 2-5" style="text;html=1;strokeColor=none;fillColor=none;align=center;verticalAlign=middle;whiteSpace=wrap;rounded=0;dashed=1;fillStyle=auto;strokeWidth=2;fontFamily=Arial;fontSize=14;fontStyle=2" parent="9BwAd8rwPp-84XcoNZzX-201" vertex="1">
          <mxGeometry x="999" y="540" width="80" height="20" as="geometry" />
        </mxCell>
        <mxCell id="Ln7XQUvNqYD8yCebmWpK-83" value="AP 2-2" style="text;html=1;strokeColor=none;fillColor=none;align=center;verticalAlign=middle;whiteSpace=wrap;rounded=0;dashed=1;fillStyle=auto;strokeWidth=2;fontFamily=Arial;fontSize=14;fontStyle=2" parent="9BwAd8rwPp-84XcoNZzX-201" vertex="1">
          <mxGeometry x="1320" y="630" width="80" height="20" as="geometry" />
        </mxCell>
        <mxCell id="Ln7XQUvNqYD8yCebmWpK-84" value="P 2-4" style="text;html=1;strokeColor=none;fillColor=none;align=center;verticalAlign=middle;whiteSpace=wrap;rounded=0;dashed=1;fillStyle=auto;strokeWidth=2;fontFamily=Arial;fontSize=14;fontStyle=2" parent="9BwAd8rwPp-84XcoNZzX-201" vertex="1">
          <mxGeometry x="1320" y="710" width="80" height="20" as="geometry" />
        </mxCell>
        <mxCell id="Ln7XQUvNqYD8yCebmWpK-85" value="&lt;span&gt;&lt;font style=&quot;font-size: 24px;&quot;&gt;...&lt;/font&gt;&lt;/span&gt;" style="text;html=1;align=center;verticalAlign=middle;resizable=0;points=[];autosize=1;strokeColor=none;fillColor=none;fontSize=23;fontFamily=Arial;fontStyle=2" parent="9BwAd8rwPp-84XcoNZzX-201" vertex="1">
          <mxGeometry x="1099" y="577.0000000000001" width="40" height="40" as="geometry" />
        </mxCell>
        <mxCell id="Ln7XQUvNqYD8yCebmWpK-86" value="P 2-1" style="text;html=1;strokeColor=none;fillColor=none;align=center;verticalAlign=middle;whiteSpace=wrap;rounded=0;dashed=1;fillStyle=auto;strokeWidth=2;fontFamily=Arial;fontSize=14;fontStyle=2" parent="9BwAd8rwPp-84XcoNZzX-201" vertex="1">
          <mxGeometry x="840" y="710" width="80" height="20" as="geometry" />
        </mxCell>
        <mxCell id="Ln7XQUvNqYD8yCebmWpK-87" value="&lt;span&gt;&lt;font style=&quot;font-size: 24px;&quot;&gt;...&lt;/font&gt;&lt;/span&gt;" style="text;html=1;align=center;verticalAlign=middle;resizable=0;points=[];autosize=1;strokeColor=none;fillColor=none;fontSize=23;fontFamily=Arial;fontStyle=2" parent="9BwAd8rwPp-84XcoNZzX-201" vertex="1">
          <mxGeometry x="1099" y="727.0000000000001" width="40" height="40" as="geometry" />
        </mxCell>
        <mxCell id="Ln7XQUvNqYD8yCebmWpK-88" value="SwitchModel" style="text;html=1;strokeColor=none;fillColor=none;align=center;verticalAlign=middle;whiteSpace=wrap;rounded=0;dashed=1;fillStyle=auto;strokeWidth=2;fontFamily=Arial;fontSize=14;fontStyle=2;container=0;" parent="9BwAd8rwPp-84XcoNZzX-201" vertex="1">
          <mxGeometry x="840" y="690" width="80" height="23" as="geometry" />
        </mxCell>
        <mxCell id="Ln7XQUvNqYD8yCebmWpK-89" value="PrinterModel" style="text;html=1;strokeColor=none;fillColor=none;align=center;verticalAlign=middle;whiteSpace=wrap;rounded=0;dashed=1;fillStyle=auto;strokeWidth=2;fontFamily=Arial;fontSize=14;fontStyle=2;container=0;" parent="9BwAd8rwPp-84XcoNZzX-201" vertex="1">
          <mxGeometry x="839" y="770" width="80" height="20" as="geometry" />
        </mxCell>
        <mxCell id="Ln7XQUvNqYD8yCebmWpK-90" value="PrinterModel" style="text;html=1;strokeColor=none;fillColor=none;align=center;verticalAlign=middle;whiteSpace=wrap;rounded=0;dashed=1;fillStyle=auto;strokeWidth=2;fontFamily=Arial;fontSize=14;fontStyle=2;container=0;" parent="9BwAd8rwPp-84XcoNZzX-201" vertex="1">
          <mxGeometry x="1319" y="767" width="80" height="23" as="geometry" />
        </mxCell>
        <mxCell id="Ln7XQUvNqYD8yCebmWpK-91" value="AccessPointModel" style="text;html=1;strokeColor=none;fillColor=none;align=center;verticalAlign=middle;whiteSpace=wrap;rounded=0;dashed=1;fillStyle=auto;strokeWidth=2;fontFamily=Arial;fontSize=14;fontStyle=2;container=0;" parent="9BwAd8rwPp-84XcoNZzX-201" vertex="1">
          <mxGeometry x="1320" y="690" width="80" height="20" as="geometry" />
        </mxCell>
        <mxCell id="Ln7XQUvNqYD8yCebmWpK-92" value="LaptopModel" style="text;html=1;strokeColor=none;fillColor=none;align=center;verticalAlign=middle;whiteSpace=wrap;rounded=0;dashed=1;fillStyle=auto;strokeWidth=2;fontFamily=Arial;fontSize=14;fontStyle=2;container=0;" parent="9BwAd8rwPp-84XcoNZzX-201" vertex="1">
          <mxGeometry x="1480" y="620" width="80" height="20" as="geometry" />
        </mxCell>
        <mxCell id="Ln7XQUvNqYD8yCebmWpK-93" value="LaptopModel" style="text;html=1;strokeColor=none;fillColor=none;align=center;verticalAlign=middle;whiteSpace=wrap;rounded=0;dashed=1;fillStyle=auto;strokeWidth=2;fontFamily=Arial;fontSize=14;fontStyle=2;container=0;" parent="9BwAd8rwPp-84XcoNZzX-201" vertex="1">
          <mxGeometry x="1480" y="780" width="80" height="20" as="geometry" />
        </mxCell>
        <mxCell id="Ln7XQUvNqYD8yCebmWpK-94" value="PCModel" style="text;html=1;strokeColor=none;fillColor=none;align=center;verticalAlign=middle;whiteSpace=wrap;rounded=0;dashed=1;fillStyle=auto;strokeWidth=2;fontFamily=Arial;fontSize=14;fontStyle=2;container=0;" parent="9BwAd8rwPp-84XcoNZzX-201" vertex="1">
          <mxGeometry x="1100" y="630" width="100" height="20" as="geometry" />
        </mxCell>
        <mxCell id="Ln7XQUvNqYD8yCebmWpK-95" value="PCModel" style="text;html=1;strokeColor=none;fillColor=none;align=center;verticalAlign=middle;whiteSpace=wrap;rounded=0;dashed=1;fillStyle=auto;strokeWidth=2;fontFamily=Arial;fontSize=14;fontStyle=2;container=0;" parent="9BwAd8rwPp-84XcoNZzX-201" vertex="1">
          <mxGeometry x="940" y="630" width="100" height="20" as="geometry" />
        </mxCell>
        <mxCell id="Ln7XQUvNqYD8yCebmWpK-96" value="PC 2-1" style="text;html=1;strokeColor=none;fillColor=none;align=center;verticalAlign=middle;whiteSpace=wrap;rounded=0;dashed=1;fillStyle=auto;strokeWidth=2;fontFamily=Arial;fontSize=14;fontStyle=2" parent="9BwAd8rwPp-84XcoNZzX-201" vertex="1">
          <mxGeometry x="959" y="700" width="80" height="20" as="geometry" />
        </mxCell>
        <mxCell id="Ln7XQUvNqYD8yCebmWpK-97" value="PC 2-4" style="text;html=1;strokeColor=none;fillColor=none;align=center;verticalAlign=middle;whiteSpace=wrap;rounded=0;dashed=1;fillStyle=auto;strokeWidth=2;fontFamily=Arial;fontSize=14;fontStyle=2" parent="9BwAd8rwPp-84XcoNZzX-201" vertex="1">
          <mxGeometry x="1119" y="700" width="80" height="20" as="geometry" />
        </mxCell>
        <mxCell id="Ln7XQUvNqYD8yCebmWpK-98" value="PCModel" style="text;html=1;strokeColor=none;fillColor=none;align=center;verticalAlign=middle;whiteSpace=wrap;rounded=0;dashed=1;fillStyle=auto;strokeWidth=2;fontFamily=Arial;fontSize=14;fontStyle=2;container=0;" parent="9BwAd8rwPp-84XcoNZzX-201" vertex="1">
          <mxGeometry x="1160" y="400" width="80" height="20" as="geometry" />
        </mxCell>
        <mxCell id="Ln7XQUvNqYD8yCebmWpK-99" value="PCModel" style="text;html=1;strokeColor=none;fillColor=none;align=center;verticalAlign=middle;whiteSpace=wrap;rounded=0;dashed=1;fillStyle=auto;strokeWidth=2;fontFamily=Arial;fontSize=14;fontStyle=2;container=0;" parent="9BwAd8rwPp-84XcoNZzX-201" vertex="1">
          <mxGeometry x="1000" y="400" width="80" height="20" as="geometry" />
        </mxCell>
        <mxCell id="Ln7XQUvNqYD8yCebmWpK-100" value="PCModel" style="text;html=1;strokeColor=none;fillColor=none;align=center;verticalAlign=middle;whiteSpace=wrap;rounded=0;dashed=1;fillStyle=auto;strokeWidth=2;fontFamily=Arial;fontSize=14;fontStyle=2;container=0;" parent="9BwAd8rwPp-84XcoNZzX-201" vertex="1">
          <mxGeometry x="1000" y="790" width="80" height="20" as="geometry" />
        </mxCell>
        <mxCell id="Ln7XQUvNqYD8yCebmWpK-101" value="PCModel" style="text;html=1;strokeColor=none;fillColor=none;align=center;verticalAlign=middle;whiteSpace=wrap;rounded=0;dashed=1;fillStyle=auto;strokeWidth=2;fontFamily=Arial;fontSize=14;fontStyle=2;container=0;" parent="9BwAd8rwPp-84XcoNZzX-201" vertex="1">
          <mxGeometry x="1160" y="790" width="80" height="20" as="geometry" />
        </mxCell>
        <mxCell id="Ln7XQUvNqYD8yCebmWpK-130" value="Switch1" style="text;html=1;strokeColor=none;fillColor=none;align=center;verticalAlign=middle;whiteSpace=wrap;rounded=0;dashed=1;fillStyle=auto;strokeWidth=2;fontFamily=Arial;fontSize=14;fontStyle=2" parent="9BwAd8rwPp-84XcoNZzX-201" vertex="1">
          <mxGeometry x="840" y="1020" width="80" height="20" as="geometry" />
        </mxCell>
        <mxCell id="Ln7XQUvNqYD8yCebmWpK-131" value="Laptop 1-6" style="text;html=1;strokeColor=none;fillColor=none;align=center;verticalAlign=middle;whiteSpace=wrap;rounded=0;dashed=1;fillStyle=auto;strokeWidth=2;fontFamily=Arial;fontSize=14;fontStyle=2" parent="9BwAd8rwPp-84XcoNZzX-201" vertex="1">
          <mxGeometry x="1480" y="930" width="80" height="20" as="geometry" />
        </mxCell>
        <mxCell id="Ln7XQUvNqYD8yCebmWpK-132" value="Laptop 1-10" style="text;html=1;strokeColor=none;fillColor=none;align=center;verticalAlign=middle;whiteSpace=wrap;rounded=0;dashed=1;fillStyle=auto;strokeWidth=2;fontFamily=Arial;fontSize=14;fontStyle=2" parent="9BwAd8rwPp-84XcoNZzX-201" vertex="1">
          <mxGeometry x="1480" y="1090" width="80" height="20" as="geometry" />
        </mxCell>
        <mxCell id="Ln7XQUvNqYD8yCebmWpK-133" value="&lt;span&gt;&lt;font style=&quot;font-size: 24px;&quot;&gt;...&lt;/font&gt;&lt;/span&gt;" style="text;html=1;align=center;verticalAlign=middle;resizable=0;points=[];autosize=1;strokeColor=none;fillColor=none;fontSize=23;fontFamily=Arial;fontStyle=2" parent="9BwAd8rwPp-84XcoNZzX-201" vertex="1">
          <mxGeometry x="1500" y="1040.0000000000002" width="40" height="40" as="geometry" />
        </mxCell>
        <mxCell id="Ln7XQUvNqYD8yCebmWpK-134" value="PC 1-20" style="text;html=1;strokeColor=none;fillColor=none;align=center;verticalAlign=middle;whiteSpace=wrap;rounded=0;dashed=1;fillStyle=auto;strokeWidth=2;fontFamily=Arial;fontSize=14;fontStyle=2" parent="9BwAd8rwPp-84XcoNZzX-201" vertex="1">
          <mxGeometry x="1159" y="930" width="80" height="20" as="geometry" />
        </mxCell>
        <mxCell id="Ln7XQUvNqYD8yCebmWpK-135" value="PC 1-5" style="text;html=1;strokeColor=none;fillColor=none;align=center;verticalAlign=middle;whiteSpace=wrap;rounded=0;dashed=1;fillStyle=auto;strokeWidth=2;fontFamily=Arial;fontSize=14;fontStyle=2" parent="9BwAd8rwPp-84XcoNZzX-201" vertex="1">
          <mxGeometry x="999" y="930" width="80" height="20" as="geometry" />
        </mxCell>
        <mxCell id="Ln7XQUvNqYD8yCebmWpK-136" value="AP 1-2" style="text;html=1;strokeColor=none;fillColor=none;align=center;verticalAlign=middle;whiteSpace=wrap;rounded=0;dashed=1;fillStyle=auto;strokeWidth=2;fontFamily=Arial;fontSize=14;fontStyle=2" parent="9BwAd8rwPp-84XcoNZzX-201" vertex="1">
          <mxGeometry x="1320" y="1020" width="80" height="20" as="geometry" />
        </mxCell>
        <mxCell id="Ln7XQUvNqYD8yCebmWpK-137" value="P 1-4" style="text;html=1;strokeColor=none;fillColor=none;align=center;verticalAlign=middle;whiteSpace=wrap;rounded=0;dashed=1;fillStyle=auto;strokeWidth=2;fontFamily=Arial;fontSize=14;fontStyle=2" parent="9BwAd8rwPp-84XcoNZzX-201" vertex="1">
          <mxGeometry x="1320" y="1100" width="80" height="20" as="geometry" />
        </mxCell>
        <mxCell id="Ln7XQUvNqYD8yCebmWpK-138" value="&lt;span&gt;&lt;font style=&quot;font-size: 24px;&quot;&gt;...&lt;/font&gt;&lt;/span&gt;" style="text;html=1;align=center;verticalAlign=middle;resizable=0;points=[];autosize=1;strokeColor=none;fillColor=none;fontSize=23;fontFamily=Arial;fontStyle=2" parent="9BwAd8rwPp-84XcoNZzX-201" vertex="1">
          <mxGeometry x="1099" y="967.0000000000001" width="40" height="40" as="geometry" />
        </mxCell>
        <mxCell id="Ln7XQUvNqYD8yCebmWpK-139" value="P 1-1" style="text;html=1;strokeColor=none;fillColor=none;align=center;verticalAlign=middle;whiteSpace=wrap;rounded=0;dashed=1;fillStyle=auto;strokeWidth=2;fontFamily=Arial;fontSize=14;fontStyle=2" parent="9BwAd8rwPp-84XcoNZzX-201" vertex="1">
          <mxGeometry x="840" y="1100" width="80" height="20" as="geometry" />
        </mxCell>
        <mxCell id="Ln7XQUvNqYD8yCebmWpK-140" value="&lt;span&gt;&lt;font style=&quot;font-size: 24px;&quot;&gt;...&lt;/font&gt;&lt;/span&gt;" style="text;html=1;align=center;verticalAlign=middle;resizable=0;points=[];autosize=1;strokeColor=none;fillColor=none;fontSize=23;fontFamily=Arial;fontStyle=2" parent="9BwAd8rwPp-84XcoNZzX-201" vertex="1">
          <mxGeometry x="1099" y="1117" width="40" height="40" as="geometry" />
        </mxCell>
        <mxCell id="Ln7XQUvNqYD8yCebmWpK-141" value="SwitchModel" style="text;html=1;strokeColor=none;fillColor=none;align=center;verticalAlign=middle;whiteSpace=wrap;rounded=0;dashed=1;fillStyle=auto;strokeWidth=2;fontFamily=Arial;fontSize=14;fontStyle=2;container=0;" parent="9BwAd8rwPp-84XcoNZzX-201" vertex="1">
          <mxGeometry x="840" y="1080" width="80" height="23" as="geometry" />
        </mxCell>
        <mxCell id="Ln7XQUvNqYD8yCebmWpK-142" value="PrinterModel" style="text;html=1;strokeColor=none;fillColor=none;align=center;verticalAlign=middle;whiteSpace=wrap;rounded=0;dashed=1;fillStyle=auto;strokeWidth=2;fontFamily=Arial;fontSize=14;fontStyle=2;container=0;" parent="9BwAd8rwPp-84XcoNZzX-201" vertex="1">
          <mxGeometry x="839" y="1160" width="80" height="20" as="geometry" />
        </mxCell>
        <mxCell id="Ln7XQUvNqYD8yCebmWpK-143" value="PrinterModel" style="text;html=1;strokeColor=none;fillColor=none;align=center;verticalAlign=middle;whiteSpace=wrap;rounded=0;dashed=1;fillStyle=auto;strokeWidth=2;fontFamily=Arial;fontSize=14;fontStyle=2;container=0;" parent="9BwAd8rwPp-84XcoNZzX-201" vertex="1">
          <mxGeometry x="1319" y="1157" width="80" height="23" as="geometry" />
        </mxCell>
        <mxCell id="Ln7XQUvNqYD8yCebmWpK-144" value="AccessPointModel" style="text;html=1;strokeColor=none;fillColor=none;align=center;verticalAlign=middle;whiteSpace=wrap;rounded=0;dashed=1;fillStyle=auto;strokeWidth=2;fontFamily=Arial;fontSize=14;fontStyle=2;container=0;" parent="9BwAd8rwPp-84XcoNZzX-201" vertex="1">
          <mxGeometry x="1320" y="1080" width="80" height="20" as="geometry" />
        </mxCell>
        <mxCell id="Ln7XQUvNqYD8yCebmWpK-145" value="LaptopModel" style="text;html=1;strokeColor=none;fillColor=none;align=center;verticalAlign=middle;whiteSpace=wrap;rounded=0;dashed=1;fillStyle=auto;strokeWidth=2;fontFamily=Arial;fontSize=14;fontStyle=2;container=0;" parent="9BwAd8rwPp-84XcoNZzX-201" vertex="1">
          <mxGeometry x="1480" y="1010" width="80" height="20" as="geometry" />
        </mxCell>
        <mxCell id="Ln7XQUvNqYD8yCebmWpK-146" value="LaptopModel" style="text;html=1;strokeColor=none;fillColor=none;align=center;verticalAlign=middle;whiteSpace=wrap;rounded=0;dashed=1;fillStyle=auto;strokeWidth=2;fontFamily=Arial;fontSize=14;fontStyle=2;container=0;" parent="9BwAd8rwPp-84XcoNZzX-201" vertex="1">
          <mxGeometry x="1480" y="1170" width="80" height="20" as="geometry" />
        </mxCell>
        <mxCell id="Ln7XQUvNqYD8yCebmWpK-147" value="PCModel" style="text;html=1;strokeColor=none;fillColor=none;align=center;verticalAlign=middle;whiteSpace=wrap;rounded=0;dashed=1;fillStyle=auto;strokeWidth=2;fontFamily=Arial;fontSize=14;fontStyle=2;container=0;" parent="9BwAd8rwPp-84XcoNZzX-201" vertex="1">
          <mxGeometry x="1100" y="1020" width="100" height="20" as="geometry" />
        </mxCell>
        <mxCell id="Ln7XQUvNqYD8yCebmWpK-148" value="PCModel" style="text;html=1;strokeColor=none;fillColor=none;align=center;verticalAlign=middle;whiteSpace=wrap;rounded=0;dashed=1;fillStyle=auto;strokeWidth=2;fontFamily=Arial;fontSize=14;fontStyle=2;container=0;" parent="9BwAd8rwPp-84XcoNZzX-201" vertex="1">
          <mxGeometry x="940" y="1020" width="100" height="20" as="geometry" />
        </mxCell>
        <mxCell id="Ln7XQUvNqYD8yCebmWpK-149" value="PC 1-1" style="text;html=1;strokeColor=none;fillColor=none;align=center;verticalAlign=middle;whiteSpace=wrap;rounded=0;dashed=1;fillStyle=auto;strokeWidth=2;fontFamily=Arial;fontSize=14;fontStyle=2" parent="9BwAd8rwPp-84XcoNZzX-201" vertex="1">
          <mxGeometry x="959" y="1090" width="80" height="20" as="geometry" />
        </mxCell>
        <mxCell id="Ln7XQUvNqYD8yCebmWpK-150" value="PC 1-4" style="text;html=1;strokeColor=none;fillColor=none;align=center;verticalAlign=middle;whiteSpace=wrap;rounded=0;dashed=1;fillStyle=auto;strokeWidth=2;fontFamily=Arial;fontSize=14;fontStyle=2" parent="9BwAd8rwPp-84XcoNZzX-201" vertex="1">
          <mxGeometry x="1119" y="1090" width="80" height="20" as="geometry" />
        </mxCell>
        <mxCell id="Ln7XQUvNqYD8yCebmWpK-159" value="Laptop 1-5" style="text;html=1;strokeColor=none;fillColor=none;align=center;verticalAlign=middle;whiteSpace=wrap;rounded=0;dashed=1;fillStyle=auto;strokeWidth=2;fontFamily=Arial;fontSize=14;fontStyle=2;container=0;" parent="9BwAd8rwPp-84XcoNZzX-201" vertex="1">
          <mxGeometry x="280" y="1090" width="80" height="20" as="geometry" />
        </mxCell>
        <mxCell id="Ln7XQUvNqYD8yCebmWpK-160" value="Laptop 1-1" style="text;html=1;strokeColor=none;fillColor=none;align=center;verticalAlign=middle;whiteSpace=wrap;rounded=0;dashed=1;fillStyle=auto;strokeWidth=2;fontFamily=Arial;fontSize=14;fontStyle=2;container=0;" parent="9BwAd8rwPp-84XcoNZzX-201" vertex="1">
          <mxGeometry x="280" y="930" width="80" height="20" as="geometry" />
        </mxCell>
        <mxCell id="Ln7XQUvNqYD8yCebmWpK-161" value="AP 1-1" style="text;html=1;strokeColor=none;fillColor=none;align=center;verticalAlign=middle;whiteSpace=wrap;rounded=0;dashed=1;fillStyle=auto;strokeWidth=2;fontFamily=Arial;fontSize=14;fontStyle=2" parent="9BwAd8rwPp-84XcoNZzX-201" vertex="1">
          <mxGeometry x="440" y="1020" width="80" height="20" as="geometry" />
        </mxCell>
        <mxCell id="Ln7XQUvNqYD8yCebmWpK-162" value="&lt;span&gt;&lt;font style=&quot;font-size: 24px;&quot;&gt;...&lt;/font&gt;&lt;/span&gt;" style="text;html=1;align=center;verticalAlign=middle;resizable=0;points=[];autosize=1;strokeColor=none;fillColor=none;fontSize=23;fontFamily=Arial;container=0;fontStyle=2" parent="9BwAd8rwPp-84XcoNZzX-201" vertex="1">
          <mxGeometry x="300" y="1040.0000000000002" width="40" height="40" as="geometry" />
        </mxCell>
        <mxCell id="Ln7XQUvNqYD8yCebmWpK-163" value="LaptopModel" style="text;html=1;strokeColor=none;fillColor=none;align=center;verticalAlign=middle;whiteSpace=wrap;rounded=0;dashed=1;fillStyle=auto;strokeWidth=2;fontFamily=Arial;fontSize=14;fontStyle=2;container=0;" parent="9BwAd8rwPp-84XcoNZzX-201" vertex="1">
          <mxGeometry x="280" y="1010" width="80" height="20" as="geometry" />
        </mxCell>
        <mxCell id="Ln7XQUvNqYD8yCebmWpK-164" value="LaptopModel" style="text;html=1;strokeColor=none;fillColor=none;align=center;verticalAlign=middle;whiteSpace=wrap;rounded=0;dashed=1;fillStyle=auto;strokeWidth=2;fontFamily=Arial;fontSize=14;fontStyle=2;container=0;" parent="9BwAd8rwPp-84XcoNZzX-201" vertex="1">
          <mxGeometry x="280" y="1170" width="80" height="20" as="geometry" />
        </mxCell>
        <mxCell id="Ln7XQUvNqYD8yCebmWpK-165" value="AccessPointModel" style="text;html=1;strokeColor=none;fillColor=none;align=center;verticalAlign=middle;whiteSpace=wrap;rounded=0;dashed=1;fillStyle=auto;strokeWidth=2;fontFamily=Arial;fontSize=14;fontStyle=2;container=0;" parent="9BwAd8rwPp-84XcoNZzX-201" vertex="1">
          <mxGeometry x="440" y="1080" width="80" height="20" as="geometry" />
        </mxCell>
        <mxCell id="Ln7XQUvNqYD8yCebmWpK-166" value="PCModel" style="text;html=1;strokeColor=none;fillColor=none;align=center;verticalAlign=middle;whiteSpace=wrap;rounded=0;dashed=1;fillStyle=auto;strokeWidth=2;fontFamily=Arial;fontSize=14;fontStyle=2;container=0;" parent="9BwAd8rwPp-84XcoNZzX-201" vertex="1">
          <mxGeometry x="1000" y="1180" width="80" height="20" as="geometry" />
        </mxCell>
        <mxCell id="Ln7XQUvNqYD8yCebmWpK-167" value="PCModel" style="text;html=1;strokeColor=none;fillColor=none;align=center;verticalAlign=middle;whiteSpace=wrap;rounded=0;dashed=1;fillStyle=auto;strokeWidth=2;fontFamily=Arial;fontSize=14;fontStyle=2;container=0;" parent="9BwAd8rwPp-84XcoNZzX-201" vertex="1">
          <mxGeometry x="1160" y="1180" width="80" height="20" as="geometry" />
        </mxCell>
        <mxCell id="Ox5Po6O9_LgIOVLj1sJk-22" value="Подзаголовки" parent="0" />
        <mxCell id="oEqlLLCMxWZDDx5f_Mu--158" value="Устройства:" style="text;html=1;strokeColor=none;fillColor=none;align=left;verticalAlign=bottom;whiteSpace=wrap;rounded=0;dashed=1;fillStyle=auto;strokeWidth=2;fontFamily=Arial;fontSize=16;fontStyle=2;container=0;" parent="Ox5Po6O9_LgIOVLj1sJk-22" vertex="1">
          <mxGeometry x="80" y="1330" width="410" height="30" as="geometry" />
        </mxCell>
        <mxCell id="oEqlLLCMxWZDDx5f_Mu--159" value="Соединения:" style="text;html=1;strokeColor=none;fillColor=none;align=left;verticalAlign=bottom;whiteSpace=wrap;rounded=0;dashed=1;fillStyle=auto;strokeWidth=2;fontFamily=Arial;fontSize=16;fontStyle=2;container=0;" parent="Ox5Po6O9_LgIOVLj1sJk-22" vertex="1">
          <mxGeometry x="720" y="1330" width="410" height="30" as="geometry" />
        </mxCell>
        <mxCell id="Ox5Po6O9_LgIOVLj1sJk-21" value="Заголовки" parent="0" />
        <mxCell id="0MDFwOMSwQNmZCORZw81-180" value="Этаж 3" style="text;html=1;strokeColor=none;fillColor=none;align=center;verticalAlign=top;whiteSpace=wrap;rounded=0;dashed=1;fillStyle=auto;strokeWidth=2;fontFamily=Arial;fontSize=18;fontStyle=2;container=0;" parent="Ox5Po6O9_LgIOVLj1sJk-21" vertex="1">
          <mxGeometry x="100" y="130" width="121" height="30" as="geometry" />
        </mxCell>
        <mxCell id="Ox5Po6O9_LgIOVLj1sJk-11" value="Условные графические обозначения:" style="text;html=1;strokeColor=none;fillColor=none;align=left;verticalAlign=bottom;whiteSpace=wrap;rounded=0;dashed=1;fillStyle=auto;strokeWidth=2;fontFamily=Arial;fontSize=18;fontStyle=2;container=0;" parent="Ox5Po6O9_LgIOVLj1sJk-21" vertex="1">
          <mxGeometry x="80" y="1300" width="410" height="30" as="geometry" />
        </mxCell>
        <mxCell id="oEqlLLCMxWZDDx5f_Mu--76" value="Этаж 2" style="text;html=1;strokeColor=none;fillColor=none;align=center;verticalAlign=top;whiteSpace=wrap;rounded=0;dashed=1;fillStyle=auto;strokeWidth=2;fontFamily=Arial;fontSize=18;fontStyle=2;container=0;" parent="Ox5Po6O9_LgIOVLj1sJk-21" vertex="1">
          <mxGeometry x="100" y="520" width="121" height="30" as="geometry" />
        </mxCell>
        <mxCell id="oEqlLLCMxWZDDx5f_Mu--139" value="Этаж 1" style="text;html=1;strokeColor=none;fillColor=none;align=center;verticalAlign=top;whiteSpace=wrap;rounded=0;dashed=1;fillStyle=auto;strokeWidth=2;fontFamily=Arial;fontSize=18;fontStyle=2;container=0;" parent="Ox5Po6O9_LgIOVLj1sJk-21" vertex="1">
          <mxGeometry x="100" y="910" width="121" height="30" as="geometry" />
        </mxCell>
        <mxCell id="Ox5Po6O9_LgIOVLj1sJk-23" value="Группы" parent="0" />
        <mxCell id="Ox5Po6O9_LgIOVLj1sJk-0" value="" style="vsdxID=6;edgeStyle=none;dashed=1;dashPattern=12.00 4.00 4.00 4.00;startArrow=none;endArrow=none;startSize=5;endSize=5;strokeColor=#000000;spacingTop=0;spacingBottom=0;spacingLeft=0;spacingRight=0;verticalAlign=middle;html=1;labelBackgroundColor=#ffffff;rounded=0;strokeWidth=2;fontFamily=Arial;align=center;fontStyle=2" parent="Ox5Po6O9_LgIOVLj1sJk-23" edge="1">
          <mxGeometry width="50" height="50" relative="1" as="geometry">
            <mxPoint x="1600" y="110" as="sourcePoint" />
            <mxPoint x="1600" y="110" as="targetPoint" />
            <Array as="points">
              <mxPoint x="1600" y="460" />
              <mxPoint x="80" y="460" />
              <mxPoint x="80" y="110" />
            </Array>
          </mxGeometry>
        </mxCell>
        <mxCell id="oEqlLLCMxWZDDx5f_Mu--78" value="" style="vsdxID=6;edgeStyle=none;dashed=1;dashPattern=12.00 4.00 4.00 4.00;startArrow=none;endArrow=none;startSize=5;endSize=5;strokeColor=#000000;spacingTop=0;spacingBottom=0;spacingLeft=0;spacingRight=0;verticalAlign=middle;html=1;labelBackgroundColor=#ffffff;rounded=0;strokeWidth=2;fontFamily=Arial;align=center;fontStyle=2" parent="Ox5Po6O9_LgIOVLj1sJk-23" edge="1">
          <mxGeometry width="50" height="50" relative="1" as="geometry">
            <mxPoint x="1600" y="500" as="sourcePoint" />
            <mxPoint x="1600" y="500" as="targetPoint" />
            <Array as="points">
              <mxPoint x="1600" y="850" />
              <mxPoint x="80" y="850" />
              <mxPoint x="80" y="500" />
            </Array>
          </mxGeometry>
        </mxCell>
        <mxCell id="oEqlLLCMxWZDDx5f_Mu--141" value="" style="vsdxID=6;edgeStyle=none;dashed=1;dashPattern=12.00 4.00 4.00 4.00;startArrow=none;endArrow=none;startSize=5;endSize=5;strokeColor=#000000;spacingTop=0;spacingBottom=0;spacingLeft=0;spacingRight=0;verticalAlign=middle;html=1;labelBackgroundColor=#ffffff;rounded=0;strokeWidth=2;fontFamily=Arial;align=center;fontStyle=2" parent="Ox5Po6O9_LgIOVLj1sJk-23" edge="1">
          <mxGeometry width="50" height="50" relative="1" as="geometry">
            <mxPoint x="2080" y="890" as="sourcePoint" />
            <mxPoint x="2080" y="890" as="targetPoint" />
            <Array as="points">
              <mxPoint x="2080" y="1260" />
              <mxPoint x="80" y="1260" />
              <mxPoint x="80" y="890" />
            </Array>
          </mxGeometry>
        </mxCell>
        <mxCell id="9BwAd8rwPp-84XcoNZzX-188" value="Рамка" style="" parent="0" />
        <mxCell id="Izu4CDzaR0ki_h7jihql-159" value="&lt;p style=&quot;margin: 0px ; text-indent: 0px ; direction: rtl ; font-size: 30px&quot;&gt;&lt;font style=&quot;font-size: 30px; direction: ltr; letter-spacing: 0px; line-height: 120%; opacity: 1;&quot;&gt;&lt;span style=&quot;font-size: 30px&quot;&gt;&lt;br style=&quot;font-size: 30px&quot;&gt;&lt;/span&gt;&lt;/font&gt;&lt;/p&gt;" style="verticalAlign=middle;align=center;vsdxID=275;rotation=180;fillColor=none;gradientColor=none;shape=stencil(nZBLDoAgDERP0z3SIyjew0SURgSD+Lu9kMZoXLhwN9O+tukAlrNpJg1SzDH4QW/URgNYgZTkjA4UkwJUgGXng+6DX1zLfmoymdXo17xh5zmRJ6Q42BWCfc2oJfdAr+Yv+AP9Cb7OJ3H/2JG1HNGz/84klThPVCc=);strokeColor=none;spacingTop=-1;spacingBottom=-1;spacingLeft=-1;spacingRight=-1;labelBackgroundColor=none;rounded=0;html=1;whiteSpace=wrap;fontSize=30;fontFamily=Arial;fontStyle=2" parent="9BwAd8rwPp-84XcoNZzX-188" vertex="1">
          <mxGeometry x="75.88" y="30.2" width="308" height="16" as="geometry" />
        </mxCell>
        <mxCell id="0MDFwOMSwQNmZCORZw81-0" style="vsdxID=204;edgeStyle=none;startArrow=none;endArrow=none;startSize=5;endSize=5;strokeWidth=3;strokeColor=#000000;spacingTop=0;spacingBottom=0;spacingLeft=0;spacingRight=0;verticalAlign=middle;html=1;labelBackgroundColor=#ffffff;rounded=0;fontFamily=Arial;fontStyle=2;align=center;" parent="9BwAd8rwPp-84XcoNZzX-188" edge="1">
          <mxGeometry relative="1" as="geometry">
            <mxPoint as="offset" />
            <Array as="points">
              <mxPoint x="32" y="1645.4" />
            </Array>
            <mxPoint x="32" y="5" as="sourcePoint" />
            <mxPoint x="2332" y="1646" as="targetPoint" />
          </mxGeometry>
        </mxCell>
        <mxCell id="0MDFwOMSwQNmZCORZw81-1" style="vsdxID=205;edgeStyle=none;startArrow=none;endArrow=none;startSize=5;endSize=5;strokeWidth=3;strokeColor=#000000;spacingTop=0;spacingBottom=0;spacingLeft=0;spacingRight=0;verticalAlign=middle;html=1;labelBackgroundColor=#ffffff;rounded=0;fontFamily=Arial;fontStyle=2;align=center;" parent="9BwAd8rwPp-84XcoNZzX-188" edge="1">
          <mxGeometry relative="1" as="geometry">
            <mxPoint x="-1" as="offset" />
            <Array as="points">
              <mxPoint x="2332" y="5.600000000000001" />
            </Array>
            <mxPoint x="2332" y="1646" as="sourcePoint" />
            <mxPoint x="32" y="5" as="targetPoint" />
          </mxGeometry>
        </mxCell>
        <mxCell id="0MDFwOMSwQNmZCORZw81-2" style="vsdxID=365;edgeStyle=none;startArrow=none;endArrow=none;startSize=5;endSize=5;strokeWidth=3;strokeColor=#000000;spacingTop=-1;spacingBottom=-1;spacingLeft=-1;spacingRight=-1;verticalAlign=middle;html=1;labelBackgroundColor=#ffffff;rounded=0;fontFamily=Arial;fontStyle=2;align=center;" parent="9BwAd8rwPp-84XcoNZzX-188" edge="1">
          <mxGeometry relative="1" as="geometry">
            <Array as="points" />
            <mxPoint x="315" y="62" as="sourcePoint" />
            <mxPoint x="34" y="62" as="targetPoint" />
          </mxGeometry>
        </mxCell>
        <mxCell id="0MDFwOMSwQNmZCORZw81-3" value="&lt;div style=&quot;&quot;&gt;&lt;p style=&quot;margin: 0px; text-indent: 0px; direction: ltr;&quot;&gt;&lt;font style=&quot;color: rgb(0, 0, 0); direction: ltr; letter-spacing: 0px; line-height: 120%; opacity: 1;&quot;&gt;&lt;font style=&quot;font-size: 28px;&quot;&gt;ГУИР.400201.207 С2&lt;/font&gt;&lt;span style=&quot;font-size: 25.4px;&quot;&gt;&lt;br&gt;&lt;/span&gt;&lt;/font&gt;&lt;/p&gt;&lt;/div&gt;" style="verticalAlign=middle;align=center;vsdxID=366;rotation=180;fillColor=none;gradientColor=none;shape=stencil(nZBLDoAgDERP0z3SIyjew0SURgSD+Lu9kMZoXLhwN9O+tukAlrNpJg1SzDH4QW/URgNYgZTkjA4UkwJUgGXng+6DX1zLfmoymdXo17xh5zmRJ6Q42BWCfc2oJfdAr+Yv+AP9Cb7OJ3H/2JG1HNGz/84klThPVCc=);strokeColor=none;spacingTop=-1;spacingBottom=-1;spacingLeft=-1;spacingRight=-1;points=[];labelBackgroundColor=none;rounded=0;html=1;whiteSpace=wrap;fontFamily=Arial;fontStyle=2" parent="9BwAd8rwPp-84XcoNZzX-188" vertex="1">
          <mxGeometry x="35" y="3" width="280" height="60" as="geometry" />
        </mxCell>
        <mxCell id="0MDFwOMSwQNmZCORZw81-4" style="vsdxID=367;edgeStyle=none;startArrow=none;endArrow=none;startSize=5;endSize=5;strokeWidth=3;strokeColor=#000000;spacingTop=-1;spacingBottom=-1;spacingLeft=-1;spacingRight=-1;verticalAlign=middle;html=1;labelBackgroundColor=#ffffff;rounded=0;fontFamily=Arial;fontStyle=2;align=center;" parent="9BwAd8rwPp-84XcoNZzX-188" edge="1">
          <mxGeometry relative="1" as="geometry">
            <Array as="points" />
            <mxPoint x="316" y="5" as="sourcePoint" />
            <mxPoint x="316" y="62" as="targetPoint" />
          </mxGeometry>
        </mxCell>
        <mxCell id="0MDFwOMSwQNmZCORZw81-49" style="vsdxID=3;fillColor=#FFFFFF;gradientColor=none;shape=stencil(nY9LDoAgDERP0z3SI/i5BwkoRAUC+Lu9kGo0Lt3NtK/tFLCOWngFnMUU3Kg2I5MGbIBzY7UKJmUF2ALWvQtqCG6xkrwXhSxqdmvZsNNcxViZ4ewgT64jdDL2hf4E7wsXmsWThd549765c4l+xvYE);strokeColor=#000000;strokeWidth=4;spacingTop=-1;spacingBottom=-1;spacingLeft=-1;spacingRight=-1;labelBackgroundColor=#ffffff;rounded=0;html=1;whiteSpace=wrap;fontFamily=Arial;fontStyle=2;align=center;" parent="9BwAd8rwPp-84XcoNZzX-188" vertex="1">
          <mxGeometry x="1592" y="1427" width="740" height="220" as="geometry" />
        </mxCell>
        <mxCell id="0MDFwOMSwQNmZCORZw81-50" style="vsdxID=28;edgeStyle=none;startArrow=none;endArrow=none;startSize=5;endSize=5;strokeWidth=4;strokeColor=#000000;spacingTop=-1;spacingBottom=-1;spacingLeft=-1;spacingRight=-1;verticalAlign=middle;html=1;labelBackgroundColor=#ffffff;rounded=0;fontFamily=Arial;fontStyle=2;align=center;" parent="9BwAd8rwPp-84XcoNZzX-188" edge="1">
          <mxGeometry relative="1" as="geometry">
            <Array as="points" />
            <mxPoint x="1620" y="1426.9999999999998" as="sourcePoint" />
            <mxPoint x="1620" y="1526.9999999999998" as="targetPoint" />
          </mxGeometry>
        </mxCell>
        <mxCell id="0MDFwOMSwQNmZCORZw81-51" style="vsdxID=27;edgeStyle=none;startArrow=none;endArrow=none;startSize=5;endSize=5;strokeColor=#000000;spacingTop=-1;spacingBottom=-1;spacingLeft=-1;spacingRight=-1;verticalAlign=middle;html=1;labelBackgroundColor=#ffffff;rounded=0;fontFamily=Arial;fontStyle=2;align=center;" parent="9BwAd8rwPp-84XcoNZzX-188" edge="1">
          <mxGeometry relative="1" as="geometry">
            <mxPoint as="offset" />
            <Array as="points" />
            <mxPoint x="1592" y="1626.9999999999998" as="sourcePoint" />
            <mxPoint x="1852" y="1626.9999999999998" as="targetPoint" />
          </mxGeometry>
        </mxCell>
        <mxCell id="0MDFwOMSwQNmZCORZw81-52" style="vsdxID=26;edgeStyle=none;startArrow=none;endArrow=none;startSize=5;endSize=5;strokeColor=#000000;spacingTop=-1;spacingBottom=-1;spacingLeft=-1;spacingRight=-1;verticalAlign=middle;html=1;labelBackgroundColor=#ffffff;rounded=0;fontFamily=Arial;fontStyle=2;align=center;" parent="9BwAd8rwPp-84XcoNZzX-188" edge="1">
          <mxGeometry relative="1" as="geometry">
            <mxPoint as="offset" />
            <Array as="points" />
            <mxPoint x="1592" y="1606.9999999999998" as="sourcePoint" />
            <mxPoint x="1852" y="1606.9999999999998" as="targetPoint" />
          </mxGeometry>
        </mxCell>
        <mxCell id="0MDFwOMSwQNmZCORZw81-53" style="vsdxID=25;edgeStyle=none;startArrow=none;endArrow=none;startSize=5;endSize=5;strokeColor=#000000;spacingTop=-1;spacingBottom=-1;spacingLeft=-1;spacingRight=-1;verticalAlign=middle;html=1;labelBackgroundColor=#ffffff;rounded=0;fontFamily=Arial;fontStyle=2;align=center;" parent="9BwAd8rwPp-84XcoNZzX-188" edge="1">
          <mxGeometry relative="1" as="geometry">
            <mxPoint as="offset" />
            <Array as="points" />
            <mxPoint x="1592" y="1586.9999999999998" as="sourcePoint" />
            <mxPoint x="1852" y="1586.9999999999998" as="targetPoint" />
          </mxGeometry>
        </mxCell>
        <mxCell id="0MDFwOMSwQNmZCORZw81-54" style="vsdxID=24;edgeStyle=none;startArrow=none;endArrow=none;startSize=5;endSize=5;strokeColor=#000000;spacingTop=-1;spacingBottom=-1;spacingLeft=-1;spacingRight=-1;verticalAlign=middle;html=1;labelBackgroundColor=#ffffff;rounded=0;fontFamily=Arial;fontStyle=2;align=center;" parent="9BwAd8rwPp-84XcoNZzX-188" edge="1">
          <mxGeometry relative="1" as="geometry">
            <mxPoint as="offset" />
            <Array as="points" />
            <mxPoint x="1592" y="1566.9999999999998" as="sourcePoint" />
            <mxPoint x="1852" y="1566.9999999999998" as="targetPoint" />
          </mxGeometry>
        </mxCell>
        <mxCell id="0MDFwOMSwQNmZCORZw81-55" style="vsdxID=23;edgeStyle=none;startArrow=none;endArrow=none;startSize=5;endSize=5;strokeColor=#000000;spacingTop=-1;spacingBottom=-1;spacingLeft=-1;spacingRight=-1;verticalAlign=middle;html=1;labelBackgroundColor=#ffffff;rounded=0;fontFamily=Arial;fontStyle=2;align=center;" parent="9BwAd8rwPp-84XcoNZzX-188" edge="1">
          <mxGeometry relative="1" as="geometry">
            <mxPoint as="offset" />
            <Array as="points" />
            <mxPoint x="1592" y="1546.9999999999998" as="sourcePoint" />
            <mxPoint x="1852" y="1546.9999999999998" as="targetPoint" />
          </mxGeometry>
        </mxCell>
        <mxCell id="0MDFwOMSwQNmZCORZw81-56" style="vsdxID=22;edgeStyle=none;startArrow=none;endArrow=none;startSize=5;endSize=5;strokeWidth=4;strokeColor=#000000;spacingTop=-1;spacingBottom=-1;spacingLeft=-1;spacingRight=-1;verticalAlign=middle;html=1;labelBackgroundColor=#ffffff;rounded=0;fontFamily=Arial;fontStyle=2;align=center;" parent="9BwAd8rwPp-84XcoNZzX-188" edge="1">
          <mxGeometry relative="1" as="geometry">
            <mxPoint as="offset" />
            <Array as="points" />
            <mxPoint x="1592" y="1526.9999999999998" as="sourcePoint" />
            <mxPoint x="1852" y="1526.9999999999998" as="targetPoint" />
          </mxGeometry>
        </mxCell>
        <mxCell id="0MDFwOMSwQNmZCORZw81-57" style="vsdxID=21;edgeStyle=none;startArrow=none;endArrow=none;startSize=5;endSize=5;strokeWidth=4;strokeColor=#000000;spacingTop=-1;spacingBottom=-1;spacingLeft=-1;spacingRight=-1;verticalAlign=middle;html=1;labelBackgroundColor=#ffffff;rounded=0;fontFamily=Arial;fontStyle=2;align=center;" parent="9BwAd8rwPp-84XcoNZzX-188" edge="1">
          <mxGeometry relative="1" as="geometry">
            <mxPoint as="offset" />
            <Array as="points" />
            <mxPoint x="1592" y="1506.9999999999998" as="sourcePoint" />
            <mxPoint x="1852" y="1506.9999999999998" as="targetPoint" />
          </mxGeometry>
        </mxCell>
        <mxCell id="0MDFwOMSwQNmZCORZw81-58" style="vsdxID=20;edgeStyle=none;startArrow=none;endArrow=none;startSize=5;endSize=5;strokeColor=#000000;spacingTop=-1;spacingBottom=-1;spacingLeft=-1;spacingRight=-1;verticalAlign=middle;html=1;labelBackgroundColor=#ffffff;rounded=0;fontFamily=Arial;fontStyle=2;align=center;" parent="9BwAd8rwPp-84XcoNZzX-188" edge="1">
          <mxGeometry relative="1" as="geometry">
            <mxPoint as="offset" />
            <Array as="points" />
            <mxPoint x="1592" y="1486.9999999999998" as="sourcePoint" />
            <mxPoint x="1852" y="1486.9999999999998" as="targetPoint" />
          </mxGeometry>
        </mxCell>
        <mxCell id="0MDFwOMSwQNmZCORZw81-59" style="vsdxID=19;edgeStyle=none;startArrow=none;endArrow=none;startSize=5;endSize=5;strokeColor=#000000;spacingTop=-1;spacingBottom=-1;spacingLeft=-1;spacingRight=-1;verticalAlign=middle;html=1;labelBackgroundColor=#ffffff;rounded=0;fontFamily=Arial;fontStyle=2;align=center;" parent="9BwAd8rwPp-84XcoNZzX-188" edge="1">
          <mxGeometry relative="1" as="geometry">
            <mxPoint as="offset" />
            <Array as="points" />
            <mxPoint x="1592" y="1466.9999999999998" as="sourcePoint" />
            <mxPoint x="1852" y="1466.9999999999998" as="targetPoint" />
          </mxGeometry>
        </mxCell>
        <mxCell id="0MDFwOMSwQNmZCORZw81-60" style="vsdxID=18;edgeStyle=none;startArrow=none;endArrow=none;startSize=5;endSize=5;strokeColor=#000000;spacingTop=-1;spacingBottom=-1;spacingLeft=-1;spacingRight=-1;verticalAlign=middle;html=1;labelBackgroundColor=#ffffff;rounded=0;fontFamily=Arial;fontStyle=2;align=center;" parent="9BwAd8rwPp-84XcoNZzX-188" edge="1">
          <mxGeometry relative="1" as="geometry">
            <mxPoint as="offset" />
            <Array as="points" />
            <mxPoint x="1592" y="1446.9999999999998" as="sourcePoint" />
            <mxPoint x="1852" y="1446.9999999999998" as="targetPoint" />
          </mxGeometry>
        </mxCell>
        <mxCell id="0MDFwOMSwQNmZCORZw81-61" style="vsdxID=17;edgeStyle=none;startArrow=none;endArrow=none;startSize=5;endSize=5;strokeWidth=4;strokeColor=#000000;spacingTop=-1;spacingBottom=-1;spacingLeft=-1;spacingRight=-1;verticalAlign=middle;html=1;labelBackgroundColor=#ffffff;rounded=0;fontFamily=Arial;fontStyle=2;align=center;" parent="9BwAd8rwPp-84XcoNZzX-188" edge="1">
          <mxGeometry relative="1" as="geometry">
            <Array as="points" />
            <mxPoint x="1660" y="1426.9999999999998" as="sourcePoint" />
            <mxPoint x="1660" y="1646.9999999999998" as="targetPoint" />
          </mxGeometry>
        </mxCell>
        <mxCell id="0MDFwOMSwQNmZCORZw81-62" style="vsdxID=16;edgeStyle=none;startArrow=none;endArrow=none;startSize=5;endSize=5;strokeWidth=4;strokeColor=#000000;spacingTop=-1;spacingBottom=-1;spacingLeft=-1;spacingRight=-1;verticalAlign=middle;html=1;labelBackgroundColor=#ffffff;rounded=0;fontFamily=Arial;fontStyle=2;align=center;" parent="9BwAd8rwPp-84XcoNZzX-188" edge="1">
          <mxGeometry relative="1" as="geometry">
            <Array as="points" />
            <mxPoint x="1752" y="1426.9999999999998" as="sourcePoint" />
            <mxPoint x="1752" y="1646.9999999999998" as="targetPoint" />
          </mxGeometry>
        </mxCell>
        <mxCell id="0MDFwOMSwQNmZCORZw81-63" style="vsdxID=15;edgeStyle=none;startArrow=none;endArrow=none;startSize=5;endSize=5;strokeWidth=4;strokeColor=#000000;spacingTop=-1;spacingBottom=-1;spacingLeft=-1;spacingRight=-1;verticalAlign=middle;html=1;labelBackgroundColor=#ffffff;rounded=0;fontFamily=Arial;fontStyle=2;align=center;" parent="9BwAd8rwPp-84XcoNZzX-188" edge="1">
          <mxGeometry relative="1" as="geometry">
            <Array as="points" />
            <mxPoint x="1812" y="1426.9999999999998" as="sourcePoint" />
            <mxPoint x="1812" y="1646.9999999999998" as="targetPoint" />
          </mxGeometry>
        </mxCell>
        <mxCell id="0MDFwOMSwQNmZCORZw81-64" style="vsdxID=14;edgeStyle=none;startArrow=none;endArrow=none;startSize=5;endSize=5;strokeWidth=4;strokeColor=#000000;spacingTop=-1;spacingBottom=-1;spacingLeft=-1;spacingRight=-1;verticalAlign=middle;html=1;labelBackgroundColor=#ffffff;rounded=0;fontFamily=Arial;fontStyle=2;align=center;" parent="9BwAd8rwPp-84XcoNZzX-188" edge="1">
          <mxGeometry relative="1" as="geometry">
            <Array as="points" />
            <mxPoint x="2262" y="1486.9999999999998" as="sourcePoint" />
            <mxPoint x="2262" y="1566.9999999999998" as="targetPoint" />
          </mxGeometry>
        </mxCell>
        <mxCell id="0MDFwOMSwQNmZCORZw81-65" style="vsdxID=11;edgeStyle=none;startArrow=none;endArrow=none;startSize=5;endSize=5;strokeWidth=4;strokeColor=#000000;spacingTop=-1;spacingBottom=-1;spacingLeft=-1;spacingRight=-1;verticalAlign=middle;html=1;labelBackgroundColor=#ffffff;rounded=0;fontFamily=Arial;fontStyle=2;align=center;" parent="9BwAd8rwPp-84XcoNZzX-188" edge="1">
          <mxGeometry relative="1" as="geometry">
            <Array as="points" />
            <mxPoint x="2212" y="1566.9999999999998" as="sourcePoint" />
            <mxPoint x="2212" y="1586.9999999999998" as="targetPoint" />
          </mxGeometry>
        </mxCell>
        <mxCell id="0MDFwOMSwQNmZCORZw81-66" style="vsdxID=10;edgeStyle=none;startArrow=none;endArrow=none;startSize=5;endSize=5;strokeWidth=4;strokeColor=#000000;spacingTop=-1;spacingBottom=-1;spacingLeft=-1;spacingRight=-1;verticalAlign=middle;html=1;labelBackgroundColor=#ffffff;rounded=0;fontFamily=Arial;fontStyle=2;align=center;" parent="9BwAd8rwPp-84XcoNZzX-188" edge="1">
          <mxGeometry relative="1" as="geometry">
            <Array as="points" />
            <mxPoint x="2192" y="1486.9999999999998" as="sourcePoint" />
            <mxPoint x="2192" y="1566.9999999999998" as="targetPoint" />
          </mxGeometry>
        </mxCell>
        <mxCell id="0MDFwOMSwQNmZCORZw81-67" style="vsdxID=388;edgeStyle=none;startArrow=none;endArrow=none;startSize=5;endSize=5;strokeColor=#000000;spacingTop=-1;spacingBottom=-1;spacingLeft=-1;spacingRight=-1;verticalAlign=middle;html=1;labelBackgroundColor=#ffffff;rounded=0;fontFamily=Arial;fontStyle=2;align=center;" parent="9BwAd8rwPp-84XcoNZzX-188" edge="1">
          <mxGeometry relative="1" as="geometry">
            <Array as="points" />
            <mxPoint x="2172" y="1504.9999999999998" as="sourcePoint" />
            <mxPoint x="2172" y="1566.9999999999998" as="targetPoint" />
          </mxGeometry>
        </mxCell>
        <mxCell id="0MDFwOMSwQNmZCORZw81-68" style="vsdxID=387;edgeStyle=none;startArrow=none;endArrow=none;startSize=5;endSize=5;strokeColor=#000000;spacingTop=-1;spacingBottom=-1;spacingLeft=-1;spacingRight=-1;verticalAlign=middle;html=1;labelBackgroundColor=#ffffff;rounded=0;fontFamily=Arial;fontStyle=2;align=center;" parent="9BwAd8rwPp-84XcoNZzX-188" edge="1">
          <mxGeometry relative="1" as="geometry">
            <Array as="points" />
            <mxPoint x="2152" y="1504.9999999999998" as="sourcePoint" />
            <mxPoint x="2152" y="1566.9999999999998" as="targetPoint" />
          </mxGeometry>
        </mxCell>
        <mxCell id="0MDFwOMSwQNmZCORZw81-69" style="vsdxID=9;edgeStyle=none;startArrow=none;endArrow=none;startSize=5;endSize=5;strokeWidth=4;strokeColor=#000000;spacingTop=-1;spacingBottom=-1;spacingLeft=-1;spacingRight=-1;verticalAlign=middle;html=1;labelBackgroundColor=#ffffff;rounded=0;fontFamily=Arial;fontStyle=2;align=center;" parent="9BwAd8rwPp-84XcoNZzX-188" edge="1">
          <mxGeometry relative="1" as="geometry">
            <mxPoint as="offset" />
            <Array as="points" />
            <mxPoint x="2132" y="1566.9999999999998" as="sourcePoint" />
            <mxPoint x="2332" y="1566.9999999999998" as="targetPoint" />
          </mxGeometry>
        </mxCell>
        <mxCell id="0MDFwOMSwQNmZCORZw81-70" style="vsdxID=8;edgeStyle=none;startArrow=none;endArrow=none;startSize=5;endSize=5;strokeWidth=4;strokeColor=#000000;spacingTop=-1;spacingBottom=-1;spacingLeft=-1;spacingRight=-1;verticalAlign=middle;html=1;labelBackgroundColor=#ffffff;rounded=0;fontFamily=Arial;fontStyle=2;align=center;" parent="9BwAd8rwPp-84XcoNZzX-188" edge="1">
          <mxGeometry relative="1" as="geometry">
            <mxPoint as="offset" />
            <Array as="points" />
            <mxPoint x="2132" y="1506.9999999999998" as="sourcePoint" />
            <mxPoint x="2332" y="1506.9999999999998" as="targetPoint" />
          </mxGeometry>
        </mxCell>
        <mxCell id="0MDFwOMSwQNmZCORZw81-71" style="vsdxID=7;edgeStyle=none;startArrow=none;endArrow=none;startSize=5;endSize=5;strokeWidth=4;strokeColor=#000000;spacingTop=-1;spacingBottom=-1;spacingLeft=-1;spacingRight=-1;verticalAlign=middle;html=1;labelBackgroundColor=#ffffff;rounded=0;fontFamily=Arial;fontStyle=2;align=center;" parent="9BwAd8rwPp-84XcoNZzX-188" edge="1">
          <mxGeometry relative="1" as="geometry">
            <Array as="points" />
            <mxPoint x="2132" y="1486.9999999999998" as="sourcePoint" />
            <mxPoint x="2132" y="1646.9999999999998" as="targetPoint" />
          </mxGeometry>
        </mxCell>
        <mxCell id="0MDFwOMSwQNmZCORZw81-72" style="vsdxID=6;edgeStyle=none;startArrow=none;endArrow=none;startSize=5;endSize=5;strokeWidth=4;strokeColor=#000000;spacingTop=-1;spacingBottom=-1;spacingLeft=-1;spacingRight=-1;verticalAlign=middle;html=1;labelBackgroundColor=#ffffff;rounded=0;fontFamily=Arial;fontStyle=2;align=center;" parent="9BwAd8rwPp-84XcoNZzX-188" edge="1">
          <mxGeometry relative="1" as="geometry">
            <Array as="points" />
            <mxPoint x="2332" y="1586.9999999999998" as="sourcePoint" />
            <mxPoint x="1852" y="1586.9999999999998" as="targetPoint" />
          </mxGeometry>
        </mxCell>
        <mxCell id="0MDFwOMSwQNmZCORZw81-73" style="vsdxID=4;edgeStyle=none;startArrow=none;endArrow=none;startSize=5;endSize=5;strokeWidth=4;strokeColor=#000000;spacingTop=-1;spacingBottom=-1;spacingLeft=-1;spacingRight=-1;verticalAlign=middle;html=1;labelBackgroundColor=#ffffff;rounded=0;fontFamily=Arial;fontStyle=2;align=center;" parent="9BwAd8rwPp-84XcoNZzX-188" edge="1">
          <mxGeometry relative="1" as="geometry">
            <Array as="points" />
            <mxPoint x="1852" y="1426.9999999999998" as="sourcePoint" />
            <mxPoint x="1852" y="1646.9999999999998" as="targetPoint" />
          </mxGeometry>
        </mxCell>
        <mxCell id="0MDFwOMSwQNmZCORZw81-74" style="vsdxID=5;edgeStyle=none;startArrow=none;endArrow=none;startSize=5;endSize=5;strokeWidth=4;strokeColor=#000000;spacingTop=-1;spacingBottom=-1;spacingLeft=-1;spacingRight=-1;verticalAlign=middle;html=1;labelBackgroundColor=#ffffff;rounded=0;fontFamily=Arial;fontStyle=2;align=center;" parent="9BwAd8rwPp-84XcoNZzX-188" edge="1">
          <mxGeometry relative="1" as="geometry">
            <Array as="points" />
            <mxPoint x="2332" y="1486.9999999999998" as="sourcePoint" />
            <mxPoint x="1852" y="1486.9999999999998" as="targetPoint" />
          </mxGeometry>
        </mxCell>
        <mxCell id="0MDFwOMSwQNmZCORZw81-75" value="&lt;font style=&quot;font-size: 8px; direction: ltr; letter-spacing: 0px; line-height: 120%; opacity: 1;&quot;&gt;&lt;span&gt;Изм&lt;br&gt;&lt;/span&gt;&lt;/font&gt;" style="verticalAlign=middle;align=center;vsdxID=29;fillColor=none;gradientColor=none;shape=stencil(nZBLDoAgDERP0z3SIyjew0SURgSD+Lu9kMZoXLhwN9O+tukAlrNpJg1SzDH4QW/URgNYgZTkjA4UkwJUgGXng+6DX1zLfmoymdXo17xh5zmRJ6Q42BWCfc2oJfdAr+Yv+AP9Cb7OJ3H/2JG1HNGz/84klThPVCc=);strokeColor=none;strokeWidth=4;spacingTop=-1;spacingBottom=-1;spacingLeft=-1;spacingRight=-1;labelBackgroundColor=none;rounded=0;html=1;whiteSpace=wrap;fontFamily=Arial;fontStyle=2" parent="9BwAd8rwPp-84XcoNZzX-188" vertex="1">
          <mxGeometry x="1594" y="1509" width="24" height="16" as="geometry" />
        </mxCell>
        <mxCell id="0MDFwOMSwQNmZCORZw81-76" value="&lt;font style=&quot;font-size: 8px; direction: ltr; letter-spacing: 0px; line-height: 120%; opacity: 1;&quot;&gt;&lt;span&gt;Лист&lt;br&gt;&lt;/span&gt;&lt;/font&gt;" style="verticalAlign=middle;align=center;vsdxID=30;fillColor=none;gradientColor=none;shape=stencil(nZBLDoAgDERP0z3SIyjew0SURgSD+Lu9kMZoXLhwN9O+tukAlrNpJg1SzDH4QW/URgNYgZTkjA4UkwJUgGXng+6DX1zLfmoymdXo17xh5zmRJ6Q42BWCfc2oJfdAr+Yv+AP9Cb7OJ3H/2JG1HNGz/84klThPVCc=);strokeColor=none;strokeWidth=4;spacingTop=-1;spacingBottom=-1;spacingLeft=-1;spacingRight=-1;labelBackgroundColor=none;rounded=0;html=1;whiteSpace=wrap;fontFamily=Arial;fontStyle=2" parent="9BwAd8rwPp-84XcoNZzX-188" vertex="1">
          <mxGeometry x="1622" y="1509" width="36" height="16" as="geometry" />
        </mxCell>
        <mxCell id="0MDFwOMSwQNmZCORZw81-77" value="&lt;font style=&quot;font-size: 8px; direction: ltr; letter-spacing: 0px; line-height: 120%; opacity: 1;&quot;&gt;&lt;span&gt;№ документа&lt;br&gt;&lt;/span&gt;&lt;/font&gt;" style="verticalAlign=middle;align=center;vsdxID=31;fillColor=none;gradientColor=none;shape=stencil(nZBLDoAgDERP0z3SIyjew0SURgSD+Lu9kMZoXLhwN9O+tukAlrNpJg1SzDH4QW/URgNYgZTkjA4UkwJUgGXng+6DX1zLfmoymdXo17xh5zmRJ6Q42BWCfc2oJfdAr+Yv+AP9Cb7OJ3H/2JG1HNGz/84klThPVCc=);strokeColor=none;strokeWidth=4;spacingTop=-1;spacingBottom=-1;spacingLeft=-1;spacingRight=-1;labelBackgroundColor=none;rounded=0;html=1;whiteSpace=wrap;fontFamily=Arial;fontStyle=2" parent="9BwAd8rwPp-84XcoNZzX-188" vertex="1">
          <mxGeometry x="1662" y="1509" width="88" height="16" as="geometry" />
        </mxCell>
        <mxCell id="0MDFwOMSwQNmZCORZw81-78" value="&lt;font style=&quot;font-size: 8px; direction: ltr; letter-spacing: 0px; line-height: 120%; opacity: 1;&quot;&gt;&lt;span&gt;Подпись&lt;br&gt;&lt;/span&gt;&lt;/font&gt;" style="verticalAlign=middle;align=center;vsdxID=32;fillColor=none;gradientColor=none;shape=stencil(nZBLDoAgDERP0z3SIyjew0SURgSD+Lu9kMZoXLhwN9O+tukAlrNpJg1SzDH4QW/URgNYgZTkjA4UkwJUgGXng+6DX1zLfmoymdXo17xh5zmRJ6Q42BWCfc2oJfdAr+Yv+AP9Cb7OJ3H/2JG1HNGz/84klThPVCc=);strokeColor=none;strokeWidth=4;spacingTop=-1;spacingBottom=-1;spacingLeft=-1;spacingRight=-1;labelBackgroundColor=none;rounded=0;html=1;whiteSpace=wrap;fontFamily=Arial;fontStyle=2" parent="9BwAd8rwPp-84XcoNZzX-188" vertex="1">
          <mxGeometry x="1754" y="1509" width="56" height="16" as="geometry" />
        </mxCell>
        <mxCell id="0MDFwOMSwQNmZCORZw81-79" value="&lt;font style=&quot;font-size: 8px; direction: ltr; letter-spacing: 0px; line-height: 120%; opacity: 1;&quot;&gt;&lt;span&gt;Дата&lt;br&gt;&lt;/span&gt;&lt;/font&gt;" style="verticalAlign=middle;align=center;vsdxID=33;fillColor=none;gradientColor=none;shape=stencil(nZBLDoAgDERP0z3SIyjew0SURgSD+Lu9kMZoXLhwN9O+tukAlrNpJg1SzDH4QW/URgNYgZTkjA4UkwJUgGXng+6DX1zLfmoymdXo17xh5zmRJ6Q42BWCfc2oJfdAr+Yv+AP9Cb7OJ3H/2JG1HNGz/84klThPVCc=);strokeColor=none;strokeWidth=4;spacingTop=-1;spacingBottom=-1;spacingLeft=-1;spacingRight=-1;labelBackgroundColor=none;rounded=0;html=1;whiteSpace=wrap;fontFamily=Arial;fontStyle=2" parent="9BwAd8rwPp-84XcoNZzX-188" vertex="1">
          <mxGeometry x="1814" y="1509" width="36" height="16" as="geometry" />
        </mxCell>
        <mxCell id="0MDFwOMSwQNmZCORZw81-80" value="&lt;font style=&quot;font-size: 8px; direction: ltr; letter-spacing: 0px; line-height: 120%; opacity: 1;&quot;&gt;&lt;span&gt;Лит.&lt;br&gt;&lt;/span&gt;&lt;/font&gt;" style="verticalAlign=middle;align=center;vsdxID=34;fillColor=none;gradientColor=none;shape=stencil(nZBLDoAgDERP0z3SIyjew0SURgSD+Lu9kMZoXLhwN9O+tukAlrNpJg1SzDH4QW/URgNYgZTkjA4UkwJUgGXng+6DX1zLfmoymdXo17xh5zmRJ6Q42BWCfc2oJfdAr+Yv+AP9Cb7OJ3H/2JG1HNGz/84klThPVCc=);strokeColor=none;strokeWidth=4;spacingTop=-1;spacingBottom=-1;spacingLeft=-1;spacingRight=-1;labelBackgroundColor=none;rounded=0;html=1;whiteSpace=wrap;fontFamily=Arial;fontStyle=2" parent="9BwAd8rwPp-84XcoNZzX-188" vertex="1">
          <mxGeometry x="2134" y="1489" width="56" height="16" as="geometry" />
        </mxCell>
        <mxCell id="0MDFwOMSwQNmZCORZw81-81" value="&lt;font style=&quot;font-size: 8px; direction: ltr; letter-spacing: 0px; line-height: 120%; opacity: 1;&quot;&gt;&lt;span&gt;Масса&lt;br&gt;&lt;/span&gt;&lt;/font&gt;" style="verticalAlign=middle;align=center;vsdxID=35;fillColor=none;gradientColor=none;shape=stencil(nZBLDoAgDERP0z3SIyjew0SURgSD+Lu9kMZoXLhwN9O+tukAlrNpJg1SzDH4QW/URgNYgZTkjA4UkwJUgGXng+6DX1zLfmoymdXo17xh5zmRJ6Q42BWCfc2oJfdAr+Yv+AP9Cb7OJ3H/2JG1HNGz/84klThPVCc=);strokeColor=none;strokeWidth=4;spacingTop=-1;spacingBottom=-1;spacingLeft=-1;spacingRight=-1;labelBackgroundColor=none;rounded=0;html=1;whiteSpace=wrap;fontFamily=Arial;fontStyle=2" parent="9BwAd8rwPp-84XcoNZzX-188" vertex="1">
          <mxGeometry x="2194" y="1489" width="66" height="16" as="geometry" />
        </mxCell>
        <mxCell id="0MDFwOMSwQNmZCORZw81-82" value="&lt;font style=&quot;font-size: 8px; direction: ltr; letter-spacing: 0px; line-height: 120%; opacity: 1;&quot;&gt;&lt;span&gt;Масштаб&lt;br&gt;&lt;/span&gt;&lt;/font&gt;" style="verticalAlign=middle;align=center;vsdxID=36;fillColor=none;gradientColor=none;shape=stencil(nZBLDoAgDERP0z3SIyjew0SURgSD+Lu9kMZoXLhwN9O+tukAlrNpJg1SzDH4QW/URgNYgZTkjA4UkwJUgGXng+6DX1zLfmoymdXo17xh5zmRJ6Q42BWCfc2oJfdAr+Yv+AP9Cb7OJ3H/2JG1HNGz/84klThPVCc=);strokeColor=none;strokeWidth=4;spacingTop=-1;spacingBottom=-1;spacingLeft=-1;spacingRight=-1;labelBackgroundColor=none;rounded=0;html=1;whiteSpace=wrap;fontFamily=Arial;fontStyle=2" parent="9BwAd8rwPp-84XcoNZzX-188" vertex="1">
          <mxGeometry x="2264" y="1489" width="66" height="16" as="geometry" />
        </mxCell>
        <mxCell id="0MDFwOMSwQNmZCORZw81-83" value="&lt;font style=&quot;font-size: 8px; direction: ltr; letter-spacing: 0px; line-height: 120%; opacity: 1;&quot;&gt;&lt;span&gt;Лист &lt;br&gt;&lt;/span&gt;&lt;/font&gt;" style="verticalAlign=middle;align=center;vsdxID=37;fillColor=none;gradientColor=none;shape=stencil(nZBLDoAgDERP0z3SIyjew0SURgSD+Lu9kMZoXLhwN9O+tukAlrNpJg1SzDH4QW/URgNYgZTkjA4UkwJUgGXng+6DX1zLfmoymdXo17xh5zmRJ6Q42BWCfc2oJfdAr+Yv+AP9Cb7OJ3H/2JG1HNGz/84klThPVCc=);strokeColor=none;strokeWidth=4;spacingTop=-1;spacingBottom=-1;spacingLeft=-1;spacingRight=-1;labelBackgroundColor=none;rounded=0;html=1;whiteSpace=wrap;fontFamily=Arial;fontStyle=2" parent="9BwAd8rwPp-84XcoNZzX-188" vertex="1">
          <mxGeometry x="2134" y="1569" width="76" height="16" as="geometry" />
        </mxCell>
        <mxCell id="0MDFwOMSwQNmZCORZw81-84" value="&lt;font style=&quot;font-size: 8px; direction: ltr; letter-spacing: 0px; line-height: 120%; opacity: 1;&quot;&gt;&lt;span&gt;Листов &lt;/span&gt;&lt;/font&gt;&lt;font style=&quot;font-size: 8px; direction: ltr; letter-spacing: 0px; line-height: 120%; opacity: 1;&quot;&gt;&lt;span&gt;1&lt;br&gt;&lt;/span&gt;&lt;/font&gt;" style="verticalAlign=middle;align=center;vsdxID=38;fillColor=none;gradientColor=none;shape=stencil(nZBLDoAgDERP0z3SIyjew0SURgSD+Lu9kMZoXLhwN9O+tukAlrNpJg1SzDH4QW/URgNYgZTkjA4UkwJUgGXng+6DX1zLfmoymdXo17xh5zmRJ6Q42BWCfc2oJfdAr+Yv+AP9Cb7OJ3H/2JG1HNGz/84klThPVCc=);strokeColor=none;strokeWidth=4;spacingTop=-1;spacingBottom=-1;spacingLeft=-1;spacingRight=-1;labelBackgroundColor=none;rounded=0;html=1;whiteSpace=wrap;fontFamily=Arial;fontStyle=2" parent="9BwAd8rwPp-84XcoNZzX-188" vertex="1">
          <mxGeometry x="2214" y="1569" width="116" height="16" as="geometry" />
        </mxCell>
        <mxCell id="0MDFwOMSwQNmZCORZw81-85" value="&lt;p style=&quot;margin-left: 0 ; margin-right: 0 ; margin-top: 0px ; margin-bottom: 0px ; text-indent: 0 ; direction: rtl&quot;&gt;&lt;font style=&quot;font-size: 12px; direction: ltr; letter-spacing: 0px; line-height: 120%; opacity: 1;&quot;&gt;&lt;span&gt;.Разраб&lt;br&gt;&lt;/span&gt;&lt;/font&gt;&lt;/p&gt;" style="verticalAlign=middle;align=left;vsdxID=39;fillColor=none;gradientColor=none;shape=stencil(nZBLDoAgDERP0z3SIyjew0SURgSD+Lu9kMZoXLhwN9O+tukAlrNpJg1SzDH4QW/URgNYgZTkjA4UkwJUgGXng+6DX1zLfmoymdXo17xh5zmRJ6Q42BWCfc2oJfdAr+Yv+AP9Cb7OJ3H/2JG1HNGz/84klThPVCc=);strokeColor=none;strokeWidth=4;spacingTop=-1;spacingBottom=-1;spacingLeft=-1;spacingRight=-1;labelBackgroundColor=none;rounded=0;html=1;whiteSpace=wrap;fontFamily=Arial;fontStyle=2" parent="9BwAd8rwPp-84XcoNZzX-188" vertex="1">
          <mxGeometry x="1594" y="1530" width="68" height="16" as="geometry" />
        </mxCell>
        <mxCell id="0MDFwOMSwQNmZCORZw81-86" value="&lt;p style=&quot;margin-left: 0 ; margin-right: 0 ; margin-top: 0px ; margin-bottom: 0px ; text-indent: 0 ; direction: rtl&quot;&gt;&lt;font style=&quot;font-size: 12px; direction: ltr; letter-spacing: 0px; line-height: 120%; opacity: 1;&quot;&gt;&lt;span&gt;.Пров&lt;br&gt;&lt;/span&gt;&lt;/font&gt;&lt;/p&gt;" style="verticalAlign=middle;align=left;vsdxID=40;fillColor=none;gradientColor=none;shape=stencil(nZBLDoAgDERP0z3SIyjew0SURgSD+Lu9kMZoXLhwN9O+tukAlrNpJg1SzDH4QW/URgNYgZTkjA4UkwJUgGXng+6DX1zLfmoymdXo17xh5zmRJ6Q42BWCfc2oJfdAr+Yv+AP9Cb7OJ3H/2JG1HNGz/84klThPVCc=);strokeColor=none;strokeWidth=4;spacingTop=-1;spacingBottom=-1;spacingLeft=-1;spacingRight=-1;labelBackgroundColor=none;rounded=0;html=1;whiteSpace=wrap;fontFamily=Arial;fontStyle=2" parent="9BwAd8rwPp-84XcoNZzX-188" vertex="1">
          <mxGeometry x="1594" y="1547" width="64" height="20" as="geometry" />
        </mxCell>
        <mxCell id="0MDFwOMSwQNmZCORZw81-87" value="&lt;p style=&quot;margin-left: 0 ; margin-right: 0 ; margin-top: 0px ; margin-bottom: 0px ; text-indent: 0 ; direction: rtl&quot;&gt;&lt;font style=&quot;direction: ltr; letter-spacing: 0px; line-height: 120%; opacity: 1;&quot;&gt;&lt;span&gt;&lt;font style=&quot;font-size: 36px&quot;&gt;ГУИР.400201.207 С2&lt;/font&gt;&lt;/span&gt;&lt;span style=&quot;font-size: 28px&quot;&gt;&lt;br&gt;&lt;/span&gt;&lt;/font&gt;&lt;/p&gt;" style="verticalAlign=middle;align=center;vsdxID=222;fillColor=none;gradientColor=none;shape=stencil(nZBLDoAgDERP0z3SIyjew0SURgSD+Lu9kMZoXLhwN9O+tukAlrNpJg1SzDH4QW/URgNYgZTkjA4UkwJUgGXng+6DX1zLfmoymdXo17xh5zmRJ6Q42BWCfc2oJfdAr+Yv+AP9Cb7OJ3H/2JG1HNGz/84klThPVCc=);strokeColor=none;spacingTop=-1;spacingBottom=-1;spacingLeft=-1;spacingRight=-1;labelBackgroundColor=none;rounded=0;html=1;whiteSpace=wrap;fontFamily=Arial;fontStyle=2" parent="9BwAd8rwPp-84XcoNZzX-188" vertex="1">
          <mxGeometry x="1852" y="1428.8" width="480" height="60" as="geometry" />
        </mxCell>
        <mxCell id="0MDFwOMSwQNmZCORZw81-88" value="&lt;font style=&quot;font-size: 20px; direction: ltr; letter-spacing: 0px; line-height: 120%; opacity: 1;&quot;&gt;&lt;span&gt;У&lt;br&gt;&lt;/span&gt;&lt;/font&gt;" style="verticalAlign=middle;align=center;vsdxID=233;fillColor=none;gradientColor=none;shape=stencil(nZBLDoAgDERP0z3SIyjew0SURgSD+Lu9kMZoXLhwN9O+tukAlrNpJg1SzDH4QW/URgNYgZTkjA4UkwJUgGXng+6DX1zLfmoymdXo17xh5zmRJ6Q42BWCfc2oJfdAr+Yv+AP9Cb7OJ3H/2JG1HNGz/84klThPVCc=);strokeColor=none;spacingTop=-1;spacingBottom=-1;spacingLeft=-1;spacingRight=-1;labelBackgroundColor=none;rounded=0;html=1;whiteSpace=wrap;fontFamily=Arial;fontStyle=2" parent="9BwAd8rwPp-84XcoNZzX-188" vertex="1">
          <mxGeometry x="2090" y="1527" width="141" height="16" as="geometry" />
        </mxCell>
        <mxCell id="0MDFwOMSwQNmZCORZw81-89" value="&lt;font style=&quot;font-size: 12px; direction: ltr; letter-spacing: 0px; line-height: 120%; opacity: 1;&quot;&gt;&lt;span&gt;Гуринович&lt;br&gt;&lt;/span&gt;&lt;/font&gt;" style="verticalAlign=middle;align=left;vsdxID=236;fillColor=none;gradientColor=none;shape=stencil(nZBLDoAgDERP0z3SIyjew0SURgSD+Lu9kMZoXLhwN9O+tukAlrNpJg1SzDH4QW/URgNYgZTkjA4UkwJUgGXng+6DX1zLfmoymdXo17xh5zmRJ6Q42BWCfc2oJfdAr+Yv+AP9Cb7OJ3H/2JG1HNGz/84klThPVCc=);strokeColor=none;spacingTop=-1;spacingBottom=-1;spacingLeft=-1;spacingRight=-1;labelBackgroundColor=none;rounded=0;html=1;whiteSpace=wrap;fontFamily=Arial;fontStyle=2" parent="9BwAd8rwPp-84XcoNZzX-188" vertex="1">
          <mxGeometry x="1662" y="1530" width="90" height="16" as="geometry" />
        </mxCell>
        <mxCell id="0MDFwOMSwQNmZCORZw81-90" value="Глецевич" style="verticalAlign=middle;align=left;vsdxID=237;fillColor=none;gradientColor=none;shape=stencil(nZBLDoAgDERP0z3SIyjew0SURgSD+Lu9kMZoXLhwN9O+tukAlrNpJg1SzDH4QW/URgNYgZTkjA4UkwJUgGXng+6DX1zLfmoymdXo17xh5zmRJ6Q42BWCfc2oJfdAr+Yv+AP9Cb7OJ3H/2JG1HNGz/84klThPVCc=);strokeColor=none;spacingTop=-1;spacingBottom=-1;spacingLeft=-1;spacingRight=-1;labelBackgroundColor=none;rounded=0;html=1;whiteSpace=wrap;fontFamily=Arial;fontStyle=2" parent="9BwAd8rwPp-84XcoNZzX-188" vertex="1">
          <mxGeometry x="1662" y="1549" width="90" height="16" as="geometry" />
        </mxCell>
        <mxCell id="0MDFwOMSwQNmZCORZw81-91" value="&lt;font style=&quot;font-size: 22px; direction: ltr; letter-spacing: 0px; line-height: 120%; opacity: 1;&quot;&gt;&lt;span&gt;ЭВМ, гр.950502&lt;/span&gt;&lt;/font&gt;&lt;font style=&quot;font-size: 22px; direction: ltr; letter-spacing: 0px; line-height: 120%; opacity: 1;&quot;&gt;&lt;span&gt;&lt;br&gt;&lt;/span&gt;&lt;/font&gt;" style="verticalAlign=middle;align=center;vsdxID=262;fillColor=none;gradientColor=none;shape=stencil(nZBLDoAgDERP0z3SIyjew0SURgSD+Lu9kMZoXLhwN9O+tukAlrNpJg1SzDH4QW/URgNYgZTkjA4UkwJUgGXng+6DX1zLfmoymdXo17xh5zmRJ6Q42BWCfc2oJfdAr+Yv+AP9Cb7OJ3H/2JG1HNGz/84klThPVCc=);strokeColor=none;spacingTop=-1;spacingBottom=-1;spacingLeft=-1;spacingRight=-1;labelBackgroundColor=none;rounded=0;html=1;whiteSpace=wrap;fontFamily=Arial;fontStyle=2" parent="9BwAd8rwPp-84XcoNZzX-188" vertex="1">
          <mxGeometry x="2132" y="1592" width="198" height="50" as="geometry" />
        </mxCell>
        <mxCell id="0MDFwOMSwQNmZCORZw81-92" value="&lt;p style=&quot;margin: 0cm; font-size: 23px;&quot; class=&quot;MsoNormal&quot;&gt;&lt;span style=&quot;&quot;&gt;&lt;font style=&quot;font-size: 23px;&quot;&gt;Локальная компьютерная сеть.&lt;/font&gt;&lt;/span&gt;&lt;/p&gt;&lt;font style=&quot;font-size: 23px;&quot;&gt;&lt;span style=&quot;&quot; lang=&quot;RU&quot;&gt;&lt;span&gt;Схема ф&lt;/span&gt;&lt;/span&gt;ункциональная&lt;/font&gt;" style="verticalAlign=middle;align=center;vsdxID=565;fillColor=none;gradientColor=none;shape=stencil(nZBLDoAgDERP0z3SIyjew0SURgSD+Lu9kMZoXLhwN9O+tukAlrNpJg1SzDH4QW/URgNYgZTkjA4UkwJUgGXng+6DX1zLfmoymdXo17xh5zmRJ6Q42BWCfc2oJfdAr+Yv+AP9Cb7OJ3H/2JG1HNGz/84klThPVCc=);strokeColor=none;spacingTop=-1;spacingBottom=-1;spacingLeft=-1;spacingRight=-1;labelBackgroundColor=none;rounded=0;html=1;whiteSpace=wrap;fontFamily=Arial;fontStyle=2" parent="9BwAd8rwPp-84XcoNZzX-188" vertex="1">
          <mxGeometry x="1852" y="1489" width="280" height="100" as="geometry" />
        </mxCell>
      </root>
    </mxGraphModel>
  </diagram>
</mxfile>
